<svg xmlns="http://www.w3.org/2000/svg" width="128" height="128" viewBox="0 0 128 128" shape-rendering="crispEdges"><rect x="28" y="0" width="32" height="4" fill="#FF5A44"></rect><rect x="72" y="0" width="24" height="4" fill="#FF5A44"></rect><rect x="96" y="0" width="12" height="4" fill="#EA4B36"></rect><rect x="28" y="4" width="12" height="4" fill="#FF5A44"></rect><rect x="40" y="4" width="8" height="4" fill="#1B786E"></rect><rect x="48" y="4" width="48" height="4" fill="#FF5A44"></rect><rect x="96" y="4" width="12" height="4" fill="#EA4B36"></rect><rect x="28" y="8" width="8" height="4" fill="#FF5A44"></rect><rect x="36" y="8" width="4" height="4" fill="#1B786E"></rect><rect x="40" y="8" width="8" height="4" fill="#5FD6C8"></rect><rect x="48" y="8" width="4" height="4" fill="#1B786E"></rect><rect x="52" y="8" width="28" height="4" fill="#FF5A44"></rect><rect x="80" y="8" width="8" height="4" fill="#1B786E"></rect><rect x="88" y="8" width="8" height="4" fill="#FF5A44"></rect><rect x="96" y="8" width="12" height="4" fill="#EA4B36"></rect><rect x="28" y="12" width="8" height="4" fill="#FF5A44"></rect><rect x="36" y="12" width="4" height="4" fill="#1B786E"></rect><rect x="40" y="12" width="12" height="4" fill="#5FD6C8"></rect><rect x="52" y="12" width="24" height="4" fill="#1B786E"></rect><rect x="76" y="12" width="4" height="4" fill="#FF5A44"></rect><rect x="80" y="12" width="8" height="4" fill="#1B786E"></rect><rect x="88" y="12" width="8" height="4" fill="#FF5A44"></rect><rect x="96" y="12" width="12" height="4" fill="#B62F1F"></rect><rect x="24" y="16" width="16" height="4" fill="#FF5A44"></rect><rect x="40" y="16" width="4" height="4" fill="#1B786E"></rect><rect x="44" y="16" width="32" height="4" fill="#5FD6C8"></rect><rect x="76" y="16" width="4" height="4" fill="#1B786E"></rect><rect x="80" y="16" width="4" height="4" fill="#5FD6C8"></rect><rect x="84" y="16" width="4" height="4" fill="#1B786E"></rect><rect x="88" y="16" width="8" height="4" fill="#FF5A44"></rect><rect x="96" y="16" width="12" height="4" fill="#EA4B36"></rect><rect x="20" y="20" width="16" height="4" fill="#FF5A44"></rect><rect x="36" y="20" width="4" height="4" fill="#1B786E"></rect><rect x="40" y="20" width="48" height="4" fill="#5FD6C8"></rect><rect x="88" y="20" width="4" height="4" fill="#1B786E"></rect><rect x="92" y="20" width="16" height="4" fill="#FF5A44"></rect><rect x="16" y="24" width="16" height="4" fill="#FF5A44"></rect><rect x="32" y="24" width="4" height="4" fill="#1B786E"></rect><rect x="36" y="24" width="8" height="4" fill="#5FD6C8"></rect><rect x="44" y="24" width="4" height="4" fill="#C6F4ED"></rect><rect x="48" y="24" width="44" height="4" fill="#5FD6C8"></rect><rect x="92" y="24" width="4" height="4" fill="#1B786E"></rect><rect x="96" y="24" width="12" height="4" fill="#EA4B36"></rect><rect x="108" y="24" width="4" height="4" fill="#FF5A44"></rect><rect x="16" y="28" width="12" height="4" fill="#FF5A44"></rect><rect x="28" y="28" width="4" height="4" fill="#1B786E"></rect><rect x="32" y="28" width="4" height="4" fill="#5FD6C8"></rect><rect x="36" y="28" width="20" height="4" fill="#C6F4ED"></rect><rect x="56" y="28" width="40" height="4" fill="#5FD6C8"></rect><rect x="96" y="28" width="12" height="4" fill="#EA4B36"></rect><rect x="108" y="28" width="4" height="4" fill="#FF5A44"></rect><rect x="16" y="32" width="8" height="4" fill="#FF5A44"></rect><rect x="24" y="32" width="4" height="4" fill="#1B786E"></rect><rect x="28" y="32" width="4" height="4" fill="#5FD6C8"></rect><rect x="32" y="32" width="8" height="4" fill="#C6F4ED"></rect><rect x="40" y="32" width="8" height="4" fill="#FFFFFF"></rect><rect x="48" y="32" width="12" height="4" fill="#C6F4ED"></rect><rect x="60" y="32" width="40" height="4" fill="#5FD6C8"></rect><rect x="100" y="32" width="4" height="4" fill="#1B786E"></rect><rect x="104" y="32" width="8" height="4" fill="#FF5A44"></rect><rect x="12" y="36" width="12" height="4" fill="#FF5A44"></rect><rect x="24" y="36" width="4" height="4" fill="#1B786E"></rect><rect x="28" y="36" width="4" height="4" fill="#5FD6C8"></rect><rect x="32" y="36" width="8" height="4" fill="#C6F4ED"></rect><rect x="40" y="36" width="4" height="4" fill="#FFFFFF"></rect><rect x="44" y="36" width="16" height="4" fill="#C6F4ED"></rect><rect x="60" y="36" width="40" height="4" fill="#5FD6C8"></rect><rect x="100" y="36" width="4" height="4" fill="#1B786E"></rect><rect x="104" y="36" width="12" height="4" fill="#FF5A44"></rect><rect x="12" y="40" width="12" height="4" fill="#FF5A44"></rect><rect x="24" y="40" width="4" height="4" fill="#1B786E"></rect><rect x="28" y="40" width="8" height="4" fill="#5FD6C8"></rect><rect x="36" y="40" width="20" height="4" fill="#C6F4ED"></rect><rect x="56" y="40" width="44" height="4" fill="#5FD6C8"></rect><rect x="100" y="40" width="4" height="4" fill="#1B786E"></rect><rect x="104" y="40" width="12" height="4" fill="#FF5A44"></rect><rect x="12" y="44" width="8" height="4" fill="#FF5A44"></rect><rect x="20" y="44" width="4" height="4" fill="#1B786E"></rect><rect x="24" y="44" width="20" height="4" fill="#5FD6C8"></rect><rect x="44" y="44" width="4" height="4" fill="#C6F4ED"></rect><rect x="48" y="44" width="56" height="4" fill="#5FD6C8"></rect><rect x="104" y="44" width="4" height="4" fill="#1B786E"></rect><rect x="108" y="44" width="8" height="4" fill="#FF5A44"></rect><rect x="12" y="48" width="8" height="4" fill="#FF5A44"></rect><rect x="20" y="48" width="4" height="4" fill="#1B786E"></rect><rect x="24" y="48" width="12" height="4" fill="#5FD6C8"></rect><rect x="36" y="48" width="16" height="4" fill="#2A2622"></rect><rect x="52" y="48" width="24" height="4" fill="#5FD6C8"></rect><rect x="76" y="48" width="16" height="4" fill="#2A2622"></rect><rect x="92" y="48" width="12" height="4" fill="#5FD6C8"></rect><rect x="104" y="48" width="4" height="4" fill="#1B786E"></rect><rect x="108" y="48" width="8" height="4" fill="#FF5A44"></rect><rect x="12" y="52" width="8" height="4" fill="#FF5A44"></rect><rect x="20" y="52" width="4" height="4" fill="#1B786E"></rect><rect x="24" y="52" width="12" height="4" fill="#5FD6C8"></rect><rect x="36" y="52" width="4" height="4" fill="#2A2622"></rect><rect x="40" y="52" width="4" height="4" fill="#FFFFFF"></rect><rect x="44" y="52" width="4" height="4" fill="#0F5A52"></rect><rect x="48" y="52" width="4" height="4" fill="#2A2622"></rect><rect x="52" y="52" width="24" height="4" fill="#5FD6C8"></rect><rect x="76" y="52" width="4" height="4" fill="#2A2622"></rect><rect x="80" y="52" width="4" height="4" fill="#FFFFFF"></rect><rect x="84" y="52" width="4" height="4" fill="#0F5A52"></rect><rect x="88" y="52" width="4" height="4" fill="#2A2622"></rect><rect x="92" y="52" width="12" height="4" fill="#5FD6C8"></rect><rect x="104" y="52" width="4" height="4" fill="#1B786E"></rect><rect x="108" y="52" width="8" height="4" fill="#FF5A44"></rect><rect x="12" y="56" width="8" height="4" fill="#FF5A44"></rect><rect x="20" y="56" width="4" height="4" fill="#1B786E"></rect><rect x="24" y="56" width="12" height="4" fill="#5FD6C8"></rect><rect x="36" y="56" width="4" height="4" fill="#2A2622"></rect><rect x="40" y="56" width="4" height="4" fill="#0F5A52"></rect><rect x="44" y="56" width="4" height="4" fill="#FFFFFF"></rect><rect x="48" y="56" width="4" height="4" fill="#2A2622"></rect><rect x="52" y="56" width="24" height="4" fill="#5FD6C8"></rect><rect x="76" y="56" width="4" height="4" fill="#2A2622"></rect><rect x="80" y="56" width="4" height="4" fill="#0F5A52"></rect><rect x="84" y="56" width="4" height="4" fill="#FFFFFF"></rect><rect x="88" y="56" width="4" height="4" fill="#2A2622"></rect><rect x="92" y="56" width="12" height="4" fill="#5FD6C8"></rect><rect x="104" y="56" width="4" height="4" fill="#1B786E"></rect><rect x="108" y="56" width="8" height="4" fill="#FF5A44"></rect><rect x="12" y="60" width="8" height="4" fill="#FF5A44"></rect><rect x="20" y="60" width="4" height="4" fill="#1B786E"></rect><rect x="24" y="60" width="12" height="4" fill="#5FD6C8"></rect><rect x="36" y="60" width="4" height="4" fill="#2A2622"></rect><rect x="40" y="60" width="8" height="4" fill="#0F5A52"></rect><rect x="48" y="60" width="4" height="4" fill="#2A2622"></rect><rect x="52" y="60" width="24" height="4" fill="#5FD6C8"></rect><rect x="76" y="60" width="4" height="4" fill="#2A2622"></rect><rect x="80" y="60" width="8" height="4" fill="#0F5A52"></rect><rect x="88" y="60" width="4" height="4" fill="#2A2622"></rect><rect x="92" y="60" width="12" height="4" fill="#5FD6C8"></rect><rect x="104" y="60" width="4" height="4" fill="#1B786E"></rect><rect x="108" y="60" width="8" height="4" fill="#FF5A44"></rect><rect x="12" y="64" width="8" height="4" fill="#FF5A44"></rect><rect x="20" y="64" width="4" height="4" fill="#1B786E"></rect><rect x="24" y="64" width="12" height="4" fill="#5FD6C8"></rect><rect x="36" y="64" width="16" height="4" fill="#2A2622"></rect><rect x="52" y="64" width="24" height="4" fill="#5FD6C8"></rect><rect x="76" y="64" width="16" height="4" fill="#2A2622"></rect><rect x="92" y="64" width="12" height="4" fill="#5FD6C8"></rect><rect x="104" y="64" width="4" height="4" fill="#1B786E"></rect><rect x="108" y="64" width="8" height="4" fill="#FF5A44"></rect><rect x="12" y="68" width="12" height="4" fill="#FF5A44"></rect><rect x="24" y="68" width="4" height="4" fill="#1B786E"></rect><rect x="28" y="68" width="12" height="4" fill="#5FD6C8"></rect><rect x="40" y="68" width="48" height="4" fill="#37B7A8"></rect><rect x="88" y="68" width="12" height="4" fill="#5FD6C8"></rect><rect x="100" y="68" width="4" height="4" fill="#1B786E"></rect><rect x="104" y="68" width="12" height="4" fill="#FF5A44"></rect><rect x="12" y="72" width="12" height="4" fill="#FF5A44"></rect><rect x="24" y="72" width="4" height="4" fill="#1B786E"></rect><rect x="28" y="72" width="4" height="4" fill="#5FD6C8"></rect><rect x="32" y="72" width="64" height="4" fill="#37B7A8"></rect><rect x="96" y="72" width="4" height="4" fill="#5FD6C8"></rect><rect x="100" y="72" width="4" height="4" fill="#1B786E"></rect><rect x="104" y="72" width="12" height="4" fill="#FF5A44"></rect><rect x="12" y="76" width="12" height="4" fill="#FF5A44"></rect><rect x="24" y="76" width="4" height="4" fill="#1B786E"></rect><rect x="28" y="76" width="72" height="4" fill="#37B7A8"></rect><rect x="100" y="76" width="4" height="4" fill="#1B786E"></rect><rect x="104" y="76" width="12" height="4" fill="#FF5A44"></rect><rect x="12" y="80" width="12" height="4" fill="#FF5A44"></rect><rect x="24" y="80" width="4" height="4" fill="#1B786E"></rect><rect x="28" y="80" width="32" height="4" fill="#37B7A8"></rect><rect x="60" y="80" width="8" height="4" fill="#2A2622"></rect><rect x="68" y="80" width="32" height="4" fill="#37B7A8"></rect><rect x="100" y="80" width="4" height="4" fill="#1B786E"></rect><rect x="104" y="80" width="12" height="4" fill="#FF5A44"></rect><rect x="12" y="84" width="8" height="4" fill="#FF5A44"></rect><rect x="20" y="84" width="4" height="4" fill="#1B786E"></rect><rect x="24" y="84" width="4" height="4" fill="#5FD6C8"></rect><rect x="28" y="84" width="28" height="4" fill="#37B7A8"></rect><rect x="56" y="84" width="16" height="4" fill="#2A2622"></rect><rect x="72" y="84" width="28" height="4" fill="#37B7A8"></rect><rect x="100" y="84" width="4" height="4" fill="#5FD6C8"></rect><rect x="104" y="84" width="4" height="4" fill="#1B786E"></rect><rect x="108" y="84" width="8" height="4" fill="#FF5A44"></rect><rect x="12" y="88" width="8" height="4" fill="#FF5A44"></rect><rect x="20" y="88" width="4" height="4" fill="#1B786E"></rect><rect x="24" y="88" width="4" height="4" fill="#5FD6C8"></rect><rect x="28" y="88" width="28" height="4" fill="#37B7A8"></rect><rect x="56" y="88" width="16" height="4" fill="#2A2622"></rect><rect x="72" y="88" width="28" height="4" fill="#37B7A8"></rect><rect x="100" y="88" width="4" height="4" fill="#5FD6C8"></rect><rect x="104" y="88" width="4" height="4" fill="#1B786E"></rect><rect x="108" y="88" width="8" height="4" fill="#FF5A44"></rect><rect x="12" y="92" width="12" height="4" fill="#FF5A44"></rect><rect x="24" y="92" width="8" height="4" fill="#1B786E"></rect><rect x="32" y="92" width="28" height="4" fill="#37B7A8"></rect><rect x="60" y="92" width="8" height="4" fill="#2A2622"></rect><rect x="68" y="92" width="28" height="4" fill="#37B7A8"></rect><rect x="96" y="92" width="8" height="4" fill="#1B786E"></rect><rect x="104" y="92" width="12" height="4" fill="#FF5A44"></rect><rect x="12" y="96" width="104" height="4" fill="#FF5A44"></rect><rect x="16" y="100" width="96" height="4" fill="#FF5A44"></rect></svg>