<svg xmlns="http://www.w3.org/2000/svg" width="128" height="128" viewBox="0 0 128 128" shape-rendering="crispEdges"><rect x="96" y="4" width="8" height="4" fill="#7FD0EE"></rect><rect x="92" y="8" width="4" height="4" fill="#7FD0EE"></rect><rect x="96" y="8" width="8" height="4" fill="#5BD0EE"></rect><rect x="104" y="8" width="4" height="4" fill="#7FD0EE"></rect><rect x="48" y="12" width="24" height="4" fill="#8A93A2"></rect><rect x="92" y="12" width="16" height="4" fill="#5BD0EE"></rect><rect x="44" y="16" width="32" height="4" fill="#8A93A2"></rect><rect x="88" y="16" width="4" height="4" fill="#8A93A2"></rect><rect x="92" y="16" width="16" height="4" fill="#5BD0EE"></rect><rect x="108" y="16" width="4" height="4" fill="#8A93A2"></rect><rect x="44" y="20" width="12" height="4" fill="#8A93A2"></rect><rect x="56" y="20" width="8" height="4" fill="#1B786E"></rect><rect x="64" y="20" width="32" height="4" fill="#8A93A2"></rect><rect x="96" y="20" width="8" height="4" fill="#5BD0EE"></rect><rect x="104" y="20" width="8" height="4" fill="#8A93A2"></rect><rect x="24" y="24" width="4" height="4" fill="#5BD0EE"></rect><rect x="44" y="24" width="8" height="4" fill="#8A93A2"></rect><rect x="52" y="24" width="4" height="4" fill="#1B786E"></rect><rect x="56" y="24" width="8" height="4" fill="#5FD6C8"></rect><rect x="64" y="24" width="4" height="4" fill="#1B786E"></rect><rect x="68" y="24" width="28" height="4" fill="#8A93A2"></rect><rect x="96" y="24" width="8" height="4" fill="#1B786E"></rect><rect x="104" y="24" width="8" height="4" fill="#8A93A2"></rect><rect x="40" y="28" width="12" height="4" fill="#8A93A2"></rect><rect x="52" y="28" width="4" height="4" fill="#1B786E"></rect><rect x="56" y="28" width="12" height="4" fill="#5FD6C8"></rect><rect x="68" y="28" width="24" height="4" fill="#1B786E"></rect><rect x="92" y="28" width="4" height="4" fill="#8A93A2"></rect><rect x="96" y="28" width="8" height="4" fill="#1B786E"></rect><rect x="104" y="28" width="8" height="4" fill="#8A93A2"></rect><rect x="20" y="32" width="4" height="4" fill="#5BD0EE"></rect><rect x="36" y="32" width="16" height="4" fill="#8A93A2"></rect><rect x="52" y="32" width="4" height="4" fill="#1B786E"></rect><rect x="56" y="32" width="32" height="4" fill="#5FD6C8"></rect><rect x="88" y="32" width="4" height="4" fill="#1B786E"></rect><rect x="92" y="32" width="4" height="4" fill="#5FD6C8"></rect><rect x="96" y="32" width="4" height="4" fill="#1B786E"></rect><rect x="100" y="32" width="16" height="4" fill="#8A93A2"></rect><rect x="32" y="36" width="16" height="4" fill="#8A93A2"></rect><rect x="48" y="36" width="4" height="4" fill="#1B786E"></rect><rect x="52" y="36" width="48" height="4" fill="#5FD6C8"></rect><rect x="100" y="36" width="4" height="4" fill="#1B786E"></rect><rect x="104" y="36" width="16" height="4" fill="#8A93A2"></rect><rect x="28" y="40" width="16" height="4" fill="#8A93A2"></rect><rect x="44" y="40" width="4" height="4" fill="#1B786E"></rect><rect x="48" y="40" width="8" height="4" fill="#5FD6C8"></rect><rect x="56" y="40" width="4" height="4" fill="#C6F4ED"></rect><rect x="60" y="40" width="44" height="4" fill="#5FD6C8"></rect><rect x="104" y="40" width="4" height="4" fill="#1B786E"></rect><rect x="108" y="40" width="16" height="4" fill="#8A93A2"></rect><rect x="28" y="44" width="12" height="4" fill="#8A93A2"></rect><rect x="40" y="44" width="4" height="4" fill="#1B786E"></rect><rect x="44" y="44" width="4" height="4" fill="#5FD6C8"></rect><rect x="48" y="44" width="20" height="4" fill="#C6F4ED"></rect><rect x="68" y="44" width="40" height="4" fill="#5FD6C8"></rect><rect x="108" y="44" width="4" height="4" fill="#1B786E"></rect><rect x="112" y="44" width="12" height="4" fill="#8A93A2"></rect><rect x="24" y="48" width="12" height="4" fill="#8A93A2"></rect><rect x="36" y="48" width="4" height="4" fill="#1B786E"></rect><rect x="40" y="48" width="4" height="4" fill="#5FD6C8"></rect><rect x="44" y="48" width="8" height="4" fill="#C6F4ED"></rect><rect x="52" y="48" width="8" height="4" fill="#FFFFFF"></rect><rect x="60" y="48" width="12" height="4" fill="#C6F4ED"></rect><rect x="72" y="48" width="40" height="4" fill="#5FD6C8"></rect><rect x="112" y="48" width="4" height="4" fill="#1B786E"></rect><rect x="116" y="48" width="8" height="4" fill="#8A93A2"></rect><rect x="20" y="52" width="16" height="4" fill="#8A93A2"></rect><rect x="36" y="52" width="4" height="4" fill="#1B786E"></rect><rect x="40" y="52" width="4" height="4" fill="#5FD6C8"></rect><rect x="44" y="52" width="8" height="4" fill="#C6F4ED"></rect><rect x="52" y="52" width="4" height="4" fill="#FFFFFF"></rect><rect x="56" y="52" width="16" height="4" fill="#C6F4ED"></rect><rect x="72" y="52" width="40" height="4" fill="#5FD6C8"></rect><rect x="112" y="52" width="4" height="4" fill="#1B786E"></rect><rect x="116" y="52" width="8" height="4" fill="#8A93A2"></rect><rect x="20" y="56" width="12" height="4" fill="#8A93A2"></rect><rect x="32" y="56" width="4" height="4" fill="#1B786E"></rect><rect x="36" y="56" width="8" height="4" fill="#5FD6C8"></rect><rect x="44" y="56" width="20" height="4" fill="#C6F4ED"></rect><rect x="64" y="56" width="44" height="4" fill="#5FD6C8"></rect><rect x="108" y="56" width="4" height="4" fill="#1B786E"></rect><rect x="112" y="56" width="12" height="4" fill="#8A93A2"></rect><rect x="20" y="60" width="8" height="4" fill="#8A93A2"></rect><rect x="28" y="60" width="4" height="4" fill="#1B786E"></rect><rect x="32" y="60" width="20" height="4" fill="#5FD6C8"></rect><rect x="52" y="60" width="4" height="4" fill="#C6F4ED"></rect><rect x="56" y="60" width="56" height="4" fill="#5FD6C8"></rect><rect x="112" y="60" width="4" height="4" fill="#1B786E"></rect><rect x="116" y="60" width="8" height="4" fill="#8A93A2"></rect><rect x="20" y="64" width="8" height="4" fill="#8A93A2"></rect><rect x="28" y="64" width="4" height="4" fill="#1B786E"></rect><rect x="32" y="64" width="80" height="4" fill="#5FD6C8"></rect><rect x="112" y="64" width="4" height="4" fill="#1B786E"></rect><rect x="116" y="64" width="8" height="4" fill="#8A93A2"></rect><rect x="20" y="68" width="8" height="4" fill="#8A93A2"></rect><rect x="28" y="68" width="4" height="4" fill="#1B786E"></rect><rect x="32" y="68" width="80" height="4" fill="#5FD6C8"></rect><rect x="112" y="68" width="4" height="4" fill="#1B786E"></rect><rect x="116" y="68" width="8" height="4" fill="#8A93A2"></rect><rect x="16" y="72" width="12" height="4" fill="#8A93A2"></rect><rect x="28" y="72" width="4" height="4" fill="#1B786E"></rect><rect x="32" y="72" width="80" height="4" fill="#5FD6C8"></rect><rect x="112" y="72" width="4" height="4" fill="#1B786E"></rect><rect x="116" y="72" width="8" height="4" fill="#8A93A2"></rect><rect x="16" y="76" width="12" height="4" fill="#8A93A2"></rect><rect x="28" y="76" width="4" height="4" fill="#1B786E"></rect><rect x="32" y="76" width="16" height="4" fill="#5FD6C8"></rect><rect x="48" y="76" width="4" height="4" fill="#2A2622"></rect><rect x="52" y="76" width="4" height="4" fill="#5FD6C8"></rect><rect x="56" y="76" width="4" height="4" fill="#2A2622"></rect><rect x="60" y="76" width="28" height="4" fill="#5FD6C8"></rect><rect x="88" y="76" width="4" height="4" fill="#2A2622"></rect><rect x="92" y="76" width="4" height="4" fill="#5FD6C8"></rect><rect x="96" y="76" width="4" height="4" fill="#2A2622"></rect><rect x="100" y="76" width="12" height="4" fill="#5FD6C8"></rect><rect x="112" y="76" width="4" height="4" fill="#1B786E"></rect><rect x="116" y="76" width="8" height="4" fill="#8A93A2"></rect><rect x="16" y="80" width="8" height="4" fill="#8A93A2"></rect><rect x="24" y="80" width="4" height="4" fill="#1B786E"></rect><rect x="28" y="80" width="20" height="4" fill="#5FD6C8"></rect><rect x="48" y="80" width="4" height="4" fill="#2A2622"></rect><rect x="52" y="80" width="36" height="4" fill="#5FD6C8"></rect><rect x="88" y="80" width="4" height="4" fill="#2A2622"></rect><rect x="92" y="80" width="16" height="4" fill="#5FD6C8"></rect><rect x="108" y="80" width="4" height="4" fill="#1B786E"></rect><rect x="112" y="80" width="12" height="4" fill="#8A93A2"></rect><rect x="16" y="84" width="12" height="4" fill="#8A93A2"></rect><rect x="28" y="84" width="4" height="4" fill="#1B786E"></rect><rect x="32" y="84" width="12" height="4" fill="#5FD6C8"></rect><rect x="44" y="84" width="4" height="4" fill="#2A2622"></rect><rect x="48" y="84" width="4" height="4" fill="#37B7A8"></rect><rect x="52" y="84" width="4" height="4" fill="#2A2622"></rect><rect x="56" y="84" width="28" height="4" fill="#37B7A8"></rect><rect x="84" y="84" width="4" height="4" fill="#2A2622"></rect><rect x="88" y="84" width="4" height="4" fill="#37B7A8"></rect><rect x="92" y="84" width="4" height="4" fill="#2A2622"></rect><rect x="96" y="84" width="8" height="4" fill="#5FD6C8"></rect><rect x="104" y="84" width="4" height="4" fill="#1B786E"></rect><rect x="108" y="84" width="16" height="4" fill="#8A93A2"></rect><rect x="16" y="88" width="12" height="4" fill="#8A93A2"></rect><rect x="28" y="88" width="4" height="4" fill="#1B786E"></rect><rect x="32" y="88" width="4" height="4" fill="#5FD6C8"></rect><rect x="36" y="88" width="64" height="4" fill="#37B7A8"></rect><rect x="100" y="88" width="4" height="4" fill="#5FD6C8"></rect><rect x="104" y="88" width="4" height="4" fill="#1B786E"></rect><rect x="108" y="88" width="12" height="4" fill="#8A93A2"></rect><rect x="16" y="92" width="12" height="4" fill="#8A93A2"></rect><rect x="28" y="92" width="4" height="4" fill="#1B786E"></rect><rect x="32" y="92" width="72" height="4" fill="#37B7A8"></rect><rect x="104" y="92" width="4" height="4" fill="#1B786E"></rect><rect x="108" y="92" width="12" height="4" fill="#8A93A2"></rect><rect x="12" y="96" width="16" height="4" fill="#8A93A2"></rect><rect x="28" y="96" width="4" height="4" fill="#1B786E"></rect><rect x="32" y="96" width="28" height="4" fill="#37B7A8"></rect><rect x="60" y="96" width="4" height="4" fill="#2A2622"></rect><rect x="64" y="96" width="4" height="4" fill="#37B7A8"></rect><rect x="68" y="96" width="4" height="4" fill="#2A2622"></rect><rect x="72" y="96" width="32" height="4" fill="#37B7A8"></rect><rect x="104" y="96" width="4" height="4" fill="#1B786E"></rect><rect x="108" y="96" width="12" height="4" fill="#8A93A2"></rect><rect x="12" y="100" width="12" height="4" fill="#8A93A2"></rect><rect x="24" y="100" width="4" height="4" fill="#1B786E"></rect><rect x="28" y="100" width="4" height="4" fill="#5FD6C8"></rect><rect x="32" y="100" width="32" height="4" fill="#37B7A8"></rect><rect x="64" y="100" width="4" height="4" fill="#2A2622"></rect><rect x="68" y="100" width="4" height="4" fill="#37B7A8"></rect><rect x="72" y="100" width="4" height="4" fill="#2A2622"></rect><rect x="76" y="100" width="28" height="4" fill="#37B7A8"></rect><rect x="104" y="100" width="4" height="4" fill="#5FD6C8"></rect><rect x="108" y="100" width="4" height="4" fill="#1B786E"></rect><rect x="112" y="100" width="8" height="4" fill="#8A93A2"></rect><rect x="12" y="104" width="8" height="4" fill="#8A93A2"></rect><rect x="20" y="104" width="4" height="4" fill="#1B786E"></rect><rect x="24" y="104" width="4" height="4" fill="#5FD6C8"></rect><rect x="28" y="104" width="72" height="4" fill="#37B7A8"></rect><rect x="100" y="104" width="4" height="4" fill="#5FD6C8"></rect><rect x="104" y="104" width="4" height="4" fill="#1B786E"></rect><rect x="108" y="104" width="12" height="4" fill="#8A93A2"></rect><rect x="12" y="108" width="12" height="4" fill="#8A93A2"></rect><rect x="24" y="108" width="8" height="4" fill="#1B786E"></rect><rect x="32" y="108" width="64" height="4" fill="#37B7A8"></rect><rect x="96" y="108" width="8" height="4" fill="#1B786E"></rect><rect x="104" y="108" width="16" height="4" fill="#8A93A2"></rect><rect x="12" y="112" width="104" height="4" fill="#8A93A2"></rect><rect x="16" y="116" width="96" height="4" fill="#8A93A2"></rect></svg>