<svg xmlns="http://www.w3.org/2000/svg" width="128" height="128" viewBox="0 0 128 128" shape-rendering="crispEdges"><rect x="108" y="0" width="12" height="4" fill="#4FA8E6"></rect><rect x="112" y="4" width="4" height="4" fill="#4FA8E6"></rect><rect x="108" y="8" width="12" height="4" fill="#4FA8E6"></rect><rect x="40" y="16" width="24" height="4" fill="#46506E"></rect><rect x="96" y="16" width="16" height="4" fill="#4FA8E6"></rect><rect x="36" y="20" width="32" height="4" fill="#46506E"></rect><rect x="80" y="20" width="24" height="4" fill="#46506E"></rect><rect x="104" y="20" width="4" height="4" fill="#4FA8E6"></rect><rect x="36" y="24" width="12" height="4" fill="#46506E"></rect><rect x="48" y="24" width="8" height="4" fill="#1B786E"></rect><rect x="56" y="24" width="44" height="4" fill="#46506E"></rect><rect x="100" y="24" width="4" height="4" fill="#4FA8E6"></rect><rect x="36" y="28" width="8" height="4" fill="#46506E"></rect><rect x="44" y="28" width="4" height="4" fill="#1B786E"></rect><rect x="48" y="28" width="8" height="4" fill="#5FD6C8"></rect><rect x="56" y="28" width="4" height="4" fill="#1B786E"></rect><rect x="60" y="28" width="28" height="4" fill="#46506E"></rect><rect x="88" y="28" width="8" height="4" fill="#1B786E"></rect><rect x="96" y="28" width="16" height="4" fill="#4FA8E6"></rect><rect x="36" y="32" width="8" height="4" fill="#46506E"></rect><rect x="44" y="32" width="4" height="4" fill="#1B786E"></rect><rect x="48" y="32" width="12" height="4" fill="#5FD6C8"></rect><rect x="60" y="32" width="24" height="4" fill="#1B786E"></rect><rect x="84" y="32" width="4" height="4" fill="#46506E"></rect><rect x="88" y="32" width="8" height="4" fill="#1B786E"></rect><rect x="96" y="32" width="12" height="4" fill="#46506E"></rect><rect x="32" y="36" width="16" height="4" fill="#46506E"></rect><rect x="48" y="36" width="4" height="4" fill="#1B786E"></rect><rect x="52" y="36" width="32" height="4" fill="#5FD6C8"></rect><rect x="84" y="36" width="4" height="4" fill="#1B786E"></rect><rect x="88" y="36" width="12" height="4" fill="#4FA8E6"></rect><rect x="100" y="36" width="12" height="4" fill="#46506E"></rect><rect x="28" y="40" width="16" height="4" fill="#46506E"></rect><rect x="44" y="40" width="4" height="4" fill="#1B786E"></rect><rect x="48" y="40" width="44" height="4" fill="#5FD6C8"></rect><rect x="92" y="40" width="4" height="4" fill="#4FA8E6"></rect><rect x="96" y="40" width="4" height="4" fill="#1B786E"></rect><rect x="100" y="40" width="16" height="4" fill="#46506E"></rect><rect x="24" y="44" width="16" height="4" fill="#46506E"></rect><rect x="40" y="44" width="4" height="4" fill="#1B786E"></rect><rect x="44" y="44" width="8" height="4" fill="#5FD6C8"></rect><rect x="52" y="44" width="4" height="4" fill="#C6F4ED"></rect><rect x="56" y="44" width="32" height="4" fill="#5FD6C8"></rect><rect x="88" y="44" width="12" height="4" fill="#4FA8E6"></rect><rect x="100" y="44" width="4" height="4" fill="#1B786E"></rect><rect x="104" y="44" width="16" height="4" fill="#46506E"></rect><rect x="24" y="48" width="12" height="4" fill="#46506E"></rect><rect x="36" y="48" width="4" height="4" fill="#1B786E"></rect><rect x="40" y="48" width="4" height="4" fill="#5FD6C8"></rect><rect x="44" y="48" width="20" height="4" fill="#C6F4ED"></rect><rect x="64" y="48" width="40" height="4" fill="#5FD6C8"></rect><rect x="104" y="48" width="4" height="4" fill="#1B786E"></rect><rect x="108" y="48" width="12" height="4" fill="#46506E"></rect><rect x="24" y="52" width="8" height="4" fill="#46506E"></rect><rect x="32" y="52" width="4" height="4" fill="#1B786E"></rect><rect x="36" y="52" width="4" height="4" fill="#5FD6C8"></rect><rect x="40" y="52" width="8" height="4" fill="#C6F4ED"></rect><rect x="48" y="52" width="8" height="4" fill="#FFFFFF"></rect><rect x="56" y="52" width="12" height="4" fill="#C6F4ED"></rect><rect x="68" y="52" width="40" height="4" fill="#5FD6C8"></rect><rect x="108" y="52" width="4" height="4" fill="#1B786E"></rect><rect x="112" y="52" width="8" height="4" fill="#46506E"></rect><rect x="16" y="56" width="16" height="4" fill="#46506E"></rect><rect x="32" y="56" width="4" height="4" fill="#1B786E"></rect><rect x="36" y="56" width="4" height="4" fill="#5FD6C8"></rect><rect x="40" y="56" width="8" height="4" fill="#C6F4ED"></rect><rect x="48" y="56" width="4" height="4" fill="#FFFFFF"></rect><rect x="52" y="56" width="16" height="4" fill="#C6F4ED"></rect><rect x="68" y="56" width="40" height="4" fill="#5FD6C8"></rect><rect x="108" y="56" width="4" height="4" fill="#1B786E"></rect><rect x="112" y="56" width="8" height="4" fill="#46506E"></rect><rect x="16" y="60" width="16" height="4" fill="#46506E"></rect><rect x="32" y="60" width="4" height="4" fill="#1B786E"></rect><rect x="36" y="60" width="8" height="4" fill="#5FD6C8"></rect><rect x="44" y="60" width="20" height="4" fill="#C6F4ED"></rect><rect x="64" y="60" width="44" height="4" fill="#5FD6C8"></rect><rect x="108" y="60" width="4" height="4" fill="#1B786E"></rect><rect x="112" y="60" width="8" height="4" fill="#46506E"></rect><rect x="16" y="64" width="8" height="4" fill="#46506E"></rect><rect x="24" y="64" width="4" height="4" fill="#1B786E"></rect><rect x="28" y="64" width="20" height="4" fill="#5FD6C8"></rect><rect x="48" y="64" width="4" height="4" fill="#C6F4ED"></rect><rect x="52" y="64" width="56" height="4" fill="#5FD6C8"></rect><rect x="108" y="64" width="4" height="4" fill="#1B786E"></rect><rect x="112" y="64" width="8" height="4" fill="#46506E"></rect><rect x="16" y="68" width="8" height="4" fill="#46506E"></rect><rect x="24" y="68" width="4" height="4" fill="#1B786E"></rect><rect x="28" y="68" width="80" height="4" fill="#5FD6C8"></rect><rect x="108" y="68" width="4" height="4" fill="#1B786E"></rect><rect x="112" y="68" width="8" height="4" fill="#46506E"></rect><rect x="16" y="72" width="8" height="4" fill="#46506E"></rect><rect x="24" y="72" width="4" height="4" fill="#1B786E"></rect><rect x="28" y="72" width="80" height="4" fill="#5FD6C8"></rect><rect x="108" y="72" width="4" height="4" fill="#1B786E"></rect><rect x="112" y="72" width="8" height="4" fill="#46506E"></rect><rect x="16" y="76" width="8" height="4" fill="#46506E"></rect><rect x="24" y="76" width="4" height="4" fill="#1B786E"></rect><rect x="28" y="76" width="80" height="4" fill="#5FD6C8"></rect><rect x="108" y="76" width="4" height="4" fill="#1B786E"></rect><rect x="112" y="76" width="8" height="4" fill="#46506E"></rect><rect x="16" y="80" width="8" height="4" fill="#46506E"></rect><rect x="24" y="80" width="4" height="4" fill="#1B786E"></rect><rect x="28" y="80" width="80" height="4" fill="#5FD6C8"></rect><rect x="108" y="80" width="4" height="4" fill="#1B786E"></rect><rect x="112" y="80" width="8" height="4" fill="#46506E"></rect><rect x="16" y="84" width="8" height="4" fill="#46506E"></rect><rect x="24" y="84" width="4" height="4" fill="#1B786E"></rect><rect x="28" y="84" width="12" height="4" fill="#5FD6C8"></rect><rect x="40" y="84" width="16" height="4" fill="#2A2622"></rect><rect x="56" y="84" width="24" height="4" fill="#5FD6C8"></rect><rect x="80" y="84" width="16" height="4" fill="#2A2622"></rect><rect x="96" y="84" width="12" height="4" fill="#5FD6C8"></rect><rect x="108" y="84" width="4" height="4" fill="#1B786E"></rect><rect x="112" y="84" width="8" height="4" fill="#46506E"></rect><rect x="16" y="88" width="12" height="4" fill="#46506E"></rect><rect x="28" y="88" width="4" height="4" fill="#1B786E"></rect><rect x="32" y="88" width="12" height="4" fill="#5FD6C8"></rect><rect x="44" y="88" width="8" height="4" fill="#2A2622"></rect><rect x="52" y="88" width="32" height="4" fill="#37B7A8"></rect><rect x="84" y="88" width="8" height="4" fill="#2A2622"></rect><rect x="92" y="88" width="12" height="4" fill="#5FD6C8"></rect><rect x="104" y="88" width="4" height="4" fill="#1B786E"></rect><rect x="108" y="88" width="12" height="4" fill="#46506E"></rect><rect x="16" y="92" width="12" height="4" fill="#46506E"></rect><rect x="28" y="92" width="4" height="4" fill="#1B786E"></rect><rect x="32" y="92" width="4" height="4" fill="#5FD6C8"></rect><rect x="36" y="92" width="64" height="4" fill="#37B7A8"></rect><rect x="100" y="92" width="4" height="4" fill="#5FD6C8"></rect><rect x="104" y="92" width="4" height="4" fill="#1B786E"></rect><rect x="108" y="92" width="12" height="4" fill="#46506E"></rect><rect x="12" y="96" width="16" height="4" fill="#46506E"></rect><rect x="28" y="96" width="4" height="4" fill="#1B786E"></rect><rect x="32" y="96" width="72" height="4" fill="#37B7A8"></rect><rect x="104" y="96" width="4" height="4" fill="#1B786E"></rect><rect x="108" y="96" width="8" height="4" fill="#46506E"></rect><rect x="12" y="100" width="16" height="4" fill="#46506E"></rect><rect x="28" y="100" width="4" height="4" fill="#1B786E"></rect><rect x="32" y="100" width="32" height="4" fill="#37B7A8"></rect><rect x="64" y="100" width="8" height="4" fill="#2A2622"></rect><rect x="72" y="100" width="32" height="4" fill="#37B7A8"></rect><rect x="104" y="100" width="4" height="4" fill="#1B786E"></rect><rect x="108" y="100" width="8" height="4" fill="#46506E"></rect><rect x="12" y="104" width="8" height="4" fill="#46506E"></rect><rect x="20" y="104" width="4" height="4" fill="#1B786E"></rect><rect x="24" y="104" width="4" height="4" fill="#5FD6C8"></rect><rect x="28" y="104" width="72" height="4" fill="#37B7A8"></rect><rect x="100" y="104" width="4" height="4" fill="#5FD6C8"></rect><rect x="104" y="104" width="4" height="4" fill="#1B786E"></rect><rect x="108" y="104" width="8" height="4" fill="#46506E"></rect><rect x="12" y="108" width="8" height="4" fill="#46506E"></rect><rect x="20" y="108" width="4" height="4" fill="#1B786E"></rect><rect x="24" y="108" width="4" height="4" fill="#5FD6C8"></rect><rect x="28" y="108" width="72" height="4" fill="#37B7A8"></rect><rect x="100" y="108" width="4" height="4" fill="#5FD6C8"></rect><rect x="104" y="108" width="4" height="4" fill="#1B786E"></rect><rect x="108" y="108" width="8" height="4" fill="#46506E"></rect><rect x="12" y="112" width="12" height="4" fill="#46506E"></rect><rect x="24" y="112" width="8" height="4" fill="#1B786E"></rect><rect x="32" y="112" width="64" height="4" fill="#37B7A8"></rect><rect x="96" y="112" width="8" height="4" fill="#1B786E"></rect><rect x="104" y="112" width="12" height="4" fill="#46506E"></rect><rect x="12" y="116" width="104" height="4" fill="#46506E"></rect><rect x="16" y="120" width="96" height="4" fill="#46506E"></rect></svg>