<svg xmlns="http://www.w3.org/2000/svg" width="128" height="128" viewBox="0 0 128 128" shape-rendering="crispEdges"><rect x="20" y="4" width="24" height="4" fill="#6FA6E6"></rect><rect x="16" y="8" width="32" height="4" fill="#6FA6E6"></rect><rect x="60" y="8" width="24" height="4" fill="#6FA6E6"></rect><rect x="92" y="8" width="16" height="4" fill="#CFE2F8"></rect><rect x="16" y="12" width="12" height="4" fill="#6FA6E6"></rect><rect x="28" y="12" width="8" height="4" fill="#1B786E"></rect><rect x="36" y="12" width="48" height="4" fill="#6FA6E6"></rect><rect x="84" y="12" width="8" height="4" fill="#CFE2F8"></rect><rect x="92" y="12" width="12" height="4" fill="#2A2622"></rect><rect x="104" y="12" width="12" height="4" fill="#CFE2F8"></rect><rect x="16" y="16" width="8" height="4" fill="#6FA6E6"></rect><rect x="24" y="16" width="4" height="4" fill="#1B786E"></rect><rect x="28" y="16" width="8" height="4" fill="#5FD6C8"></rect><rect x="36" y="16" width="4" height="4" fill="#1B786E"></rect><rect x="40" y="16" width="28" height="4" fill="#6FA6E6"></rect><rect x="68" y="16" width="8" height="4" fill="#1B786E"></rect><rect x="76" y="16" width="8" height="4" fill="#6FA6E6"></rect><rect x="84" y="16" width="16" height="4" fill="#CFE2F8"></rect><rect x="100" y="16" width="4" height="4" fill="#2A2622"></rect><rect x="104" y="16" width="16" height="4" fill="#CFE2F8"></rect><rect x="16" y="20" width="8" height="4" fill="#6FA6E6"></rect><rect x="24" y="20" width="4" height="4" fill="#1B786E"></rect><rect x="28" y="20" width="12" height="4" fill="#5FD6C8"></rect><rect x="40" y="20" width="24" height="4" fill="#1B786E"></rect><rect x="64" y="20" width="4" height="4" fill="#6FA6E6"></rect><rect x="68" y="20" width="8" height="4" fill="#1B786E"></rect><rect x="76" y="20" width="12" height="4" fill="#6FA6E6"></rect><rect x="88" y="20" width="8" height="4" fill="#CFE2F8"></rect><rect x="96" y="20" width="8" height="4" fill="#2A2622"></rect><rect x="104" y="20" width="16" height="4" fill="#CFE2F8"></rect><rect x="16" y="24" width="12" height="4" fill="#6FA6E6"></rect><rect x="28" y="24" width="4" height="4" fill="#1B786E"></rect><rect x="32" y="24" width="32" height="4" fill="#5FD6C8"></rect><rect x="64" y="24" width="4" height="4" fill="#1B786E"></rect><rect x="68" y="24" width="4" height="4" fill="#5FD6C8"></rect><rect x="72" y="24" width="4" height="4" fill="#1B786E"></rect><rect x="76" y="24" width="20" height="4" fill="#6FA6E6"></rect><rect x="96" y="24" width="4" height="4" fill="#2A2622"></rect><rect x="100" y="24" width="24" height="4" fill="#CFE2F8"></rect><rect x="12" y="28" width="12" height="4" fill="#6FA6E6"></rect><rect x="24" y="28" width="4" height="4" fill="#1B786E"></rect><rect x="28" y="28" width="48" height="4" fill="#5FD6C8"></rect><rect x="76" y="28" width="4" height="4" fill="#1B786E"></rect><rect x="80" y="28" width="20" height="4" fill="#6FA6E6"></rect><rect x="100" y="28" width="24" height="4" fill="#CFE2F8"></rect><rect x="8" y="32" width="16" height="4" fill="#6FA6E6"></rect><rect x="24" y="32" width="4" height="4" fill="#1B786E"></rect><rect x="28" y="32" width="8" height="4" fill="#5FD6C8"></rect><rect x="36" y="32" width="4" height="4" fill="#C6F4ED"></rect><rect x="40" y="32" width="44" height="4" fill="#5FD6C8"></rect><rect x="84" y="32" width="4" height="4" fill="#1B786E"></rect><rect x="88" y="32" width="8" height="4" fill="#6FA6E6"></rect><rect x="96" y="32" width="4" height="4" fill="#2A2622"></rect><rect x="100" y="32" width="4" height="4" fill="#6FA6E6"></rect><rect x="104" y="32" width="20" height="4" fill="#CFE2F8"></rect><rect x="8" y="36" width="12" height="4" fill="#6FA6E6"></rect><rect x="20" y="36" width="4" height="4" fill="#1B786E"></rect><rect x="24" y="36" width="4" height="4" fill="#5FD6C8"></rect><rect x="28" y="36" width="20" height="4" fill="#C6F4ED"></rect><rect x="48" y="36" width="40" height="4" fill="#5FD6C8"></rect><rect x="88" y="36" width="4" height="4" fill="#1B786E"></rect><rect x="92" y="36" width="12" height="4" fill="#6FA6E6"></rect><rect x="104" y="36" width="20" height="4" fill="#CFE2F8"></rect><rect x="8" y="40" width="8" height="4" fill="#6FA6E6"></rect><rect x="16" y="40" width="4" height="4" fill="#1B786E"></rect><rect x="20" y="40" width="4" height="4" fill="#5FD6C8"></rect><rect x="24" y="40" width="8" height="4" fill="#C6F4ED"></rect><rect x="32" y="40" width="8" height="4" fill="#FFFFFF"></rect><rect x="40" y="40" width="12" height="4" fill="#C6F4ED"></rect><rect x="52" y="40" width="40" height="4" fill="#5FD6C8"></rect><rect x="92" y="40" width="4" height="4" fill="#1B786E"></rect><rect x="96" y="40" width="8" height="4" fill="#6FA6E6"></rect><rect x="4" y="44" width="12" height="4" fill="#6FA6E6"></rect><rect x="16" y="44" width="4" height="4" fill="#1B786E"></rect><rect x="20" y="44" width="4" height="4" fill="#5FD6C8"></rect><rect x="24" y="44" width="8" height="4" fill="#C6F4ED"></rect><rect x="32" y="44" width="4" height="4" fill="#FFFFFF"></rect><rect x="36" y="44" width="16" height="4" fill="#C6F4ED"></rect><rect x="52" y="44" width="40" height="4" fill="#5FD6C8"></rect><rect x="92" y="44" width="4" height="4" fill="#1B786E"></rect><rect x="96" y="44" width="12" height="4" fill="#6FA6E6"></rect><rect x="4" y="48" width="12" height="4" fill="#6FA6E6"></rect><rect x="16" y="48" width="4" height="4" fill="#1B786E"></rect><rect x="20" y="48" width="8" height="4" fill="#5FD6C8"></rect><rect x="28" y="48" width="20" height="4" fill="#C6F4ED"></rect><rect x="48" y="48" width="28" height="4" fill="#5FD6C8"></rect><rect x="76" y="48" width="4" height="4" fill="#CFE2F8"></rect><rect x="80" y="48" width="12" height="4" fill="#5FD6C8"></rect><rect x="92" y="48" width="4" height="4" fill="#1B786E"></rect><rect x="96" y="48" width="12" height="4" fill="#6FA6E6"></rect><rect x="4" y="52" width="8" height="4" fill="#6FA6E6"></rect><rect x="12" y="52" width="4" height="4" fill="#1B786E"></rect><rect x="16" y="52" width="20" height="4" fill="#5FD6C8"></rect><rect x="36" y="52" width="4" height="4" fill="#C6F4ED"></rect><rect x="40" y="52" width="56" height="4" fill="#5FD6C8"></rect><rect x="96" y="52" width="4" height="4" fill="#1B786E"></rect><rect x="100" y="52" width="8" height="4" fill="#6FA6E6"></rect><rect x="4" y="56" width="8" height="4" fill="#6FA6E6"></rect><rect x="12" y="56" width="4" height="4" fill="#1B786E"></rect><rect x="16" y="56" width="52" height="4" fill="#5FD6C8"></rect><rect x="68" y="56" width="4" height="4" fill="#CFE2F8"></rect><rect x="72" y="56" width="24" height="4" fill="#5FD6C8"></rect><rect x="96" y="56" width="4" height="4" fill="#1B786E"></rect><rect x="100" y="56" width="12" height="4" fill="#6FA6E6"></rect><rect x="4" y="60" width="8" height="4" fill="#6FA6E6"></rect><rect x="12" y="60" width="4" height="4" fill="#1B786E"></rect><rect x="16" y="60" width="16" height="4" fill="#5FD6C8"></rect><rect x="32" y="60" width="8" height="4" fill="#2A2622"></rect><rect x="40" y="60" width="56" height="4" fill="#5FD6C8"></rect><rect x="96" y="60" width="4" height="4" fill="#1B786E"></rect><rect x="100" y="60" width="12" height="4" fill="#6FA6E6"></rect><rect x="4" y="64" width="12" height="4" fill="#6FA6E6"></rect><rect x="16" y="64" width="4" height="4" fill="#1B786E"></rect><rect x="20" y="64" width="12" height="4" fill="#5FD6C8"></rect><rect x="32" y="64" width="4" height="4" fill="#2A2622"></rect><rect x="36" y="64" width="4" height="4" fill="#FFFFFF"></rect><rect x="40" y="64" width="4" height="4" fill="#0F5A52"></rect><rect x="44" y="64" width="4" height="4" fill="#2A2622"></rect><rect x="48" y="64" width="52" height="4" fill="#5FD6C8"></rect><rect x="100" y="64" width="4" height="4" fill="#1B786E"></rect><rect x="104" y="64" width="8" height="4" fill="#6FA6E6"></rect><rect x="4" y="68" width="12" height="4" fill="#6FA6E6"></rect><rect x="16" y="68" width="4" height="4" fill="#1B786E"></rect><rect x="20" y="68" width="12" height="4" fill="#5FD6C8"></rect><rect x="32" y="68" width="4" height="4" fill="#2A2622"></rect><rect x="36" y="68" width="8" height="4" fill="#0F5A52"></rect><rect x="44" y="68" width="4" height="4" fill="#2A2622"></rect><rect x="48" y="68" width="28" height="4" fill="#5FD6C8"></rect><rect x="76" y="68" width="12" height="4" fill="#2A2622"></rect><rect x="88" y="68" width="12" height="4" fill="#5FD6C8"></rect><rect x="100" y="68" width="4" height="4" fill="#1B786E"></rect><rect x="104" y="68" width="8" height="4" fill="#6FA6E6"></rect><rect x="8" y="72" width="8" height="4" fill="#6FA6E6"></rect><rect x="16" y="72" width="4" height="4" fill="#1B786E"></rect><rect x="20" y="72" width="16" height="4" fill="#5FD6C8"></rect><rect x="36" y="72" width="8" height="4" fill="#2A2622"></rect><rect x="44" y="72" width="32" height="4" fill="#5FD6C8"></rect><rect x="76" y="72" width="4" height="4" fill="#2A2622"></rect><rect x="80" y="72" width="4" height="4" fill="#0F5A52"></rect><rect x="84" y="72" width="4" height="4" fill="#2A2622"></rect><rect x="88" y="72" width="12" height="4" fill="#5FD6C8"></rect><rect x="100" y="72" width="4" height="4" fill="#1B786E"></rect><rect x="104" y="72" width="8" height="4" fill="#6FA6E6"></rect><rect x="8" y="76" width="12" height="4" fill="#6FA6E6"></rect><rect x="20" y="76" width="4" height="4" fill="#1B786E"></rect><rect x="24" y="76" width="12" height="4" fill="#5FD6C8"></rect><rect x="36" y="76" width="48" height="4" fill="#37B7A8"></rect><rect x="84" y="76" width="12" height="4" fill="#5FD6C8"></rect><rect x="96" y="76" width="4" height="4" fill="#1B786E"></rect><rect x="100" y="76" width="12" height="4" fill="#6FA6E6"></rect><rect x="8" y="80" width="12" height="4" fill="#6FA6E6"></rect><rect x="20" y="80" width="4" height="4" fill="#1B786E"></rect><rect x="24" y="80" width="4" height="4" fill="#5FD6C8"></rect><rect x="28" y="80" width="64" height="4" fill="#37B7A8"></rect><rect x="92" y="80" width="4" height="4" fill="#5FD6C8"></rect><rect x="96" y="80" width="4" height="4" fill="#1B786E"></rect><rect x="100" y="80" width="12" height="4" fill="#6FA6E6"></rect><rect x="8" y="84" width="12" height="4" fill="#6FA6E6"></rect><rect x="20" y="84" width="4" height="4" fill="#1B786E"></rect><rect x="24" y="84" width="72" height="4" fill="#37B7A8"></rect><rect x="96" y="84" width="4" height="4" fill="#1B786E"></rect><rect x="100" y="84" width="12" height="4" fill="#6FA6E6"></rect><rect x="8" y="88" width="12" height="4" fill="#6FA6E6"></rect><rect x="20" y="88" width="4" height="4" fill="#1B786E"></rect><rect x="24" y="88" width="32" height="4" fill="#37B7A8"></rect><rect x="56" y="88" width="8" height="4" fill="#2A2622"></rect><rect x="64" y="88" width="32" height="4" fill="#37B7A8"></rect><rect x="96" y="88" width="4" height="4" fill="#1B786E"></rect><rect x="100" y="88" width="16" height="4" fill="#6FA6E6"></rect><rect x="8" y="92" width="8" height="4" fill="#6FA6E6"></rect><rect x="16" y="92" width="4" height="4" fill="#1B786E"></rect><rect x="20" y="92" width="4" height="4" fill="#5FD6C8"></rect><rect x="24" y="92" width="72" height="4" fill="#37B7A8"></rect><rect x="96" y="92" width="4" height="4" fill="#5FD6C8"></rect><rect x="100" y="92" width="4" height="4" fill="#1B786E"></rect><rect x="104" y="92" width="12" height="4" fill="#6FA6E6"></rect><rect x="8" y="96" width="12" height="4" fill="#6FA6E6"></rect><rect x="20" y="96" width="4" height="4" fill="#1B786E"></rect><rect x="24" y="96" width="4" height="4" fill="#5FD6C8"></rect><rect x="28" y="96" width="72" height="4" fill="#37B7A8"></rect><rect x="100" y="96" width="4" height="4" fill="#5FD6C8"></rect><rect x="104" y="96" width="4" height="4" fill="#1B786E"></rect><rect x="108" y="96" width="8" height="4" fill="#6FA6E6"></rect><rect x="8" y="100" width="16" height="4" fill="#6FA6E6"></rect><rect x="24" y="100" width="8" height="4" fill="#1B786E"></rect><rect x="32" y="100" width="64" height="4" fill="#37B7A8"></rect><rect x="96" y="100" width="8" height="4" fill="#1B786E"></rect><rect x="104" y="100" width="12" height="4" fill="#6FA6E6"></rect><rect x="12" y="104" width="104" height="4" fill="#6FA6E6"></rect><rect x="16" y="108" width="96" height="4" fill="#6FA6E6"></rect></svg>