<svg xmlns="http://www.w3.org/2000/svg" width="128" height="128" viewBox="0 0 128 128" shape-rendering="crispEdges"><rect x="20" y="0" width="24" height="4" fill="#FFC24D"></rect><rect x="112" y="0" width="4" height="4" fill="#FFD23F"></rect><rect x="16" y="4" width="32" height="4" fill="#FFC24D"></rect><rect x="60" y="4" width="24" height="4" fill="#FFC24D"></rect><rect x="84" y="4" width="4" height="4" fill="#f0f"></rect><rect x="16" y="8" width="12" height="4" fill="#FFC24D"></rect><rect x="28" y="8" width="8" height="4" fill="#1B786E"></rect><rect x="36" y="8" width="48" height="4" fill="#FFC24D"></rect><rect x="96" y="8" width="4" height="4" fill="#FFD23F"></rect><rect x="16" y="12" width="8" height="4" fill="#FFC24D"></rect><rect x="24" y="12" width="4" height="4" fill="#1B786E"></rect><rect x="28" y="12" width="8" height="4" fill="#5FD6C8"></rect><rect x="36" y="12" width="4" height="4" fill="#1B786E"></rect><rect x="40" y="12" width="28" height="4" fill="#FFC24D"></rect><rect x="68" y="12" width="8" height="4" fill="#1B786E"></rect><rect x="76" y="12" width="8" height="4" fill="#FFC24D"></rect><rect x="96" y="12" width="4" height="4" fill="#FFD23F"></rect><rect x="16" y="16" width="8" height="4" fill="#FFC24D"></rect><rect x="24" y="16" width="4" height="4" fill="#1B786E"></rect><rect x="28" y="16" width="12" height="4" fill="#5FD6C8"></rect><rect x="40" y="16" width="24" height="4" fill="#1B786E"></rect><rect x="64" y="16" width="4" height="4" fill="#FFC24D"></rect><rect x="68" y="16" width="8" height="4" fill="#1B786E"></rect><rect x="76" y="16" width="12" height="4" fill="#FFC24D"></rect><rect x="88" y="16" width="8" height="4" fill="#FFD23F"></rect><rect x="96" y="16" width="4" height="4" fill="#F2A33C"></rect><rect x="100" y="16" width="8" height="4" fill="#FFD23F"></rect><rect x="16" y="20" width="12" height="4" fill="#FFC24D"></rect><rect x="28" y="20" width="4" height="4" fill="#1B786E"></rect><rect x="32" y="20" width="32" height="4" fill="#5FD6C8"></rect><rect x="64" y="20" width="4" height="4" fill="#1B786E"></rect><rect x="68" y="20" width="4" height="4" fill="#5FD6C8"></rect><rect x="72" y="20" width="4" height="4" fill="#1B786E"></rect><rect x="76" y="20" width="20" height="4" fill="#FFC24D"></rect><rect x="96" y="20" width="4" height="4" fill="#FFD23F"></rect><rect x="12" y="24" width="12" height="4" fill="#FFC24D"></rect><rect x="24" y="24" width="4" height="4" fill="#1B786E"></rect><rect x="28" y="24" width="48" height="4" fill="#5FD6C8"></rect><rect x="76" y="24" width="4" height="4" fill="#1B786E"></rect><rect x="80" y="24" width="4" height="4" fill="#FFD23F"></rect><rect x="84" y="24" width="12" height="4" fill="#FFC24D"></rect><rect x="96" y="24" width="4" height="4" fill="#FFD23F"></rect><rect x="8" y="28" width="16" height="4" fill="#FFC24D"></rect><rect x="24" y="28" width="4" height="4" fill="#1B786E"></rect><rect x="28" y="28" width="8" height="4" fill="#5FD6C8"></rect><rect x="36" y="28" width="4" height="4" fill="#C6F4ED"></rect><rect x="40" y="28" width="44" height="4" fill="#5FD6C8"></rect><rect x="84" y="28" width="4" height="4" fill="#1B786E"></rect><rect x="88" y="28" width="16" height="4" fill="#FFC24D"></rect><rect x="8" y="32" width="12" height="4" fill="#FFC24D"></rect><rect x="20" y="32" width="4" height="4" fill="#1B786E"></rect><rect x="24" y="32" width="4" height="4" fill="#5FD6C8"></rect><rect x="28" y="32" width="20" height="4" fill="#C6F4ED"></rect><rect x="48" y="32" width="40" height="4" fill="#5FD6C8"></rect><rect x="88" y="32" width="4" height="4" fill="#1B786E"></rect><rect x="92" y="32" width="12" height="4" fill="#FFC24D"></rect><rect x="8" y="36" width="8" height="4" fill="#FFC24D"></rect><rect x="16" y="36" width="4" height="4" fill="#1B786E"></rect><rect x="20" y="36" width="4" height="4" fill="#5FD6C8"></rect><rect x="24" y="36" width="8" height="4" fill="#C6F4ED"></rect><rect x="32" y="36" width="8" height="4" fill="#FFFFFF"></rect><rect x="40" y="36" width="12" height="4" fill="#C6F4ED"></rect><rect x="52" y="36" width="40" height="4" fill="#5FD6C8"></rect><rect x="92" y="36" width="4" height="4" fill="#1B786E"></rect><rect x="96" y="36" width="8" height="4" fill="#FFC24D"></rect><rect x="4" y="40" width="12" height="4" fill="#FFC24D"></rect><rect x="16" y="40" width="4" height="4" fill="#1B786E"></rect><rect x="20" y="40" width="4" height="4" fill="#5FD6C8"></rect><rect x="24" y="40" width="8" height="4" fill="#C6F4ED"></rect><rect x="32" y="40" width="4" height="4" fill="#FFFFFF"></rect><rect x="36" y="40" width="16" height="4" fill="#C6F4ED"></rect><rect x="52" y="40" width="40" height="4" fill="#5FD6C8"></rect><rect x="92" y="40" width="4" height="4" fill="#1B786E"></rect><rect x="96" y="40" width="12" height="4" fill="#FFC24D"></rect><rect x="4" y="44" width="12" height="4" fill="#FFC24D"></rect><rect x="16" y="44" width="4" height="4" fill="#1B786E"></rect><rect x="20" y="44" width="8" height="4" fill="#5FD6C8"></rect><rect x="28" y="44" width="20" height="4" fill="#C6F4ED"></rect><rect x="48" y="44" width="44" height="4" fill="#5FD6C8"></rect><rect x="92" y="44" width="4" height="4" fill="#1B786E"></rect><rect x="96" y="44" width="12" height="4" fill="#FFC24D"></rect><rect x="4" y="48" width="4" height="4" fill="#FFD23F"></rect><rect x="8" y="48" width="4" height="4" fill="#FFC24D"></rect><rect x="12" y="48" width="4" height="4" fill="#1B786E"></rect><rect x="16" y="48" width="20" height="4" fill="#5FD6C8"></rect><rect x="36" y="48" width="4" height="4" fill="#C6F4ED"></rect><rect x="40" y="48" width="56" height="4" fill="#5FD6C8"></rect><rect x="96" y="48" width="4" height="4" fill="#1B786E"></rect><rect x="100" y="48" width="8" height="4" fill="#FFC24D"></rect><rect x="4" y="52" width="4" height="4" fill="#FFC24D"></rect><rect x="8" y="52" width="4" height="4" fill="#FFD23F"></rect><rect x="12" y="52" width="4" height="4" fill="#1B786E"></rect><rect x="16" y="52" width="80" height="4" fill="#5FD6C8"></rect><rect x="96" y="52" width="4" height="4" fill="#1B786E"></rect><rect x="100" y="52" width="12" height="4" fill="#FFC24D"></rect><rect x="4" y="56" width="8" height="4" fill="#FFC24D"></rect><rect x="12" y="56" width="4" height="4" fill="#1B786E"></rect><rect x="16" y="56" width="80" height="4" fill="#5FD6C8"></rect><rect x="96" y="56" width="4" height="4" fill="#1B786E"></rect><rect x="100" y="56" width="12" height="4" fill="#FFC24D"></rect><rect x="4" y="60" width="12" height="4" fill="#FFC24D"></rect><rect x="16" y="60" width="4" height="4" fill="#1B786E"></rect><rect x="20" y="60" width="12" height="4" fill="#5FD6C8"></rect><rect x="32" y="60" width="12" height="4" fill="#2A2622"></rect><rect x="44" y="60" width="32" height="4" fill="#5FD6C8"></rect><rect x="76" y="60" width="12" height="4" fill="#2A2622"></rect><rect x="88" y="60" width="12" height="4" fill="#5FD6C8"></rect><rect x="100" y="60" width="4" height="4" fill="#1B786E"></rect><rect x="104" y="60" width="8" height="4" fill="#FFC24D"></rect><rect x="4" y="64" width="12" height="4" fill="#FFC24D"></rect><rect x="16" y="64" width="4" height="4" fill="#1B786E"></rect><rect x="20" y="64" width="12" height="4" fill="#5FD6C8"></rect><rect x="32" y="64" width="4" height="4" fill="#2A2622"></rect><rect x="36" y="64" width="4" height="4" fill="#FFFFFF"></rect><rect x="40" y="64" width="4" height="4" fill="#0F5A52"></rect><rect x="44" y="64" width="4" height="4" fill="#2A2622"></rect><rect x="48" y="64" width="24" height="4" fill="#5FD6C8"></rect><rect x="72" y="64" width="4" height="4" fill="#2A2622"></rect><rect x="76" y="64" width="4" height="4" fill="#0F5A52"></rect><rect x="80" y="64" width="4" height="4" fill="#FFFFFF"></rect><rect x="84" y="64" width="4" height="4" fill="#2A2622"></rect><rect x="88" y="64" width="12" height="4" fill="#5FD6C8"></rect><rect x="100" y="64" width="4" height="4" fill="#1B786E"></rect><rect x="104" y="64" width="8" height="4" fill="#FFC24D"></rect><rect x="8" y="68" width="8" height="4" fill="#FFC24D"></rect><rect x="16" y="68" width="4" height="4" fill="#1B786E"></rect><rect x="20" y="68" width="16" height="4" fill="#5FD6C8"></rect><rect x="36" y="68" width="8" height="4" fill="#2A2622"></rect><rect x="44" y="68" width="32" height="4" fill="#5FD6C8"></rect><rect x="76" y="68" width="8" height="4" fill="#2A2622"></rect><rect x="84" y="68" width="16" height="4" fill="#5FD6C8"></rect><rect x="100" y="68" width="4" height="4" fill="#1B786E"></rect><rect x="104" y="68" width="8" height="4" fill="#FFC24D"></rect><rect x="8" y="72" width="4" height="4" fill="#FFD23F"></rect><rect x="12" y="72" width="8" height="4" fill="#FFC24D"></rect><rect x="20" y="72" width="4" height="4" fill="#1B786E"></rect><rect x="24" y="72" width="12" height="4" fill="#5FD6C8"></rect><rect x="36" y="72" width="48" height="4" fill="#37B7A8"></rect><rect x="84" y="72" width="12" height="4" fill="#5FD6C8"></rect><rect x="96" y="72" width="4" height="4" fill="#1B786E"></rect><rect x="100" y="72" width="12" height="4" fill="#FFC24D"></rect><rect x="4" y="76" width="4" height="4" fill="#FFD23F"></rect><rect x="8" y="76" width="12" height="4" fill="#FFC24D"></rect><rect x="20" y="76" width="4" height="4" fill="#1B786E"></rect><rect x="24" y="76" width="4" height="4" fill="#5FD6C8"></rect><rect x="28" y="76" width="64" height="4" fill="#37B7A8"></rect><rect x="92" y="76" width="4" height="4" fill="#5FD6C8"></rect><rect x="96" y="76" width="4" height="4" fill="#1B786E"></rect><rect x="100" y="76" width="12" height="4" fill="#FFC24D"></rect><rect x="8" y="80" width="12" height="4" fill="#FFC24D"></rect><rect x="20" y="80" width="4" height="4" fill="#1B786E"></rect><rect x="24" y="80" width="72" height="4" fill="#37B7A8"></rect><rect x="96" y="80" width="4" height="4" fill="#1B786E"></rect><rect x="100" y="80" width="12" height="4" fill="#FFC24D"></rect><rect x="8" y="84" width="12" height="4" fill="#FFC24D"></rect><rect x="20" y="84" width="4" height="4" fill="#1B786E"></rect><rect x="24" y="84" width="32" height="4" fill="#37B7A8"></rect><rect x="56" y="84" width="12" height="4" fill="#2A2622"></rect><rect x="68" y="84" width="28" height="4" fill="#37B7A8"></rect><rect x="96" y="84" width="4" height="4" fill="#1B786E"></rect><rect x="100" y="84" width="16" height="4" fill="#FFC24D"></rect><rect x="8" y="88" width="8" height="4" fill="#FFC24D"></rect><rect x="16" y="88" width="4" height="4" fill="#1B786E"></rect><rect x="20" y="88" width="4" height="4" fill="#5FD6C8"></rect><rect x="24" y="88" width="72" height="4" fill="#37B7A8"></rect><rect x="96" y="88" width="4" height="4" fill="#5FD6C8"></rect><rect x="100" y="88" width="4" height="4" fill="#1B786E"></rect><rect x="104" y="88" width="12" height="4" fill="#FFC24D"></rect><rect x="8" y="92" width="12" height="4" fill="#FFC24D"></rect><rect x="20" y="92" width="4" height="4" fill="#1B786E"></rect><rect x="24" y="92" width="4" height="4" fill="#5FD6C8"></rect><rect x="28" y="92" width="72" height="4" fill="#37B7A8"></rect><rect x="100" y="92" width="4" height="4" fill="#5FD6C8"></rect><rect x="104" y="92" width="4" height="4" fill="#1B786E"></rect><rect x="108" y="92" width="8" height="4" fill="#FFC24D"></rect><rect x="8" y="96" width="16" height="4" fill="#FFC24D"></rect><rect x="24" y="96" width="8" height="4" fill="#1B786E"></rect><rect x="32" y="96" width="64" height="4" fill="#37B7A8"></rect><rect x="96" y="96" width="8" height="4" fill="#1B786E"></rect><rect x="104" y="96" width="12" height="4" fill="#FFC24D"></rect><rect x="12" y="100" width="104" height="4" fill="#FFC24D"></rect><rect x="16" y="104" width="96" height="4" fill="#FFC24D"></rect></svg>