<svg xmlns="http://www.w3.org/2000/svg" width="128" height="128" viewBox="0 0 128 128" shape-rendering="crispEdges"><rect x="52" y="24" width="24" height="4" fill="#4A4A4A"></rect><rect x="48" y="28" width="8" height="4" fill="#D0D0D0"></rect><rect x="56" y="28" width="20" height="4" fill="#A6A6A6"></rect><rect x="76" y="28" width="4" height="4" fill="#4A4A4A"></rect><rect x="44" y="32" width="16" height="4" fill="#D0D0D0"></rect><rect x="60" y="32" width="20" height="4" fill="#A6A6A6"></rect><rect x="80" y="32" width="4" height="4" fill="#4A4A4A"></rect><rect x="44" y="36" width="16" height="4" fill="#D0D0D0"></rect><rect x="60" y="36" width="20" height="4" fill="#A6A6A6"></rect><rect x="80" y="36" width="4" height="4" fill="#4A4A4A"></rect><rect x="44" y="40" width="4" height="4" fill="#4A4A4A"></rect><rect x="48" y="40" width="8" height="4" fill="#D0D0D0"></rect><rect x="56" y="40" width="24" height="4" fill="#A6A6A6"></rect><rect x="80" y="40" width="4" height="4" fill="#4A4A4A"></rect><rect x="44" y="44" width="4" height="4" fill="#4A4A4A"></rect><rect x="48" y="44" width="32" height="4" fill="#A6A6A6"></rect><rect x="80" y="44" width="4" height="4" fill="#4A4A4A"></rect><rect x="44" y="48" width="4" height="4" fill="#4A4A4A"></rect><rect x="48" y="48" width="32" height="4" fill="#A6A6A6"></rect><rect x="80" y="48" width="4" height="4" fill="#4A4A4A"></rect><rect x="44" y="52" width="4" height="4" fill="#4A4A4A"></rect><rect x="48" y="52" width="32" height="4" fill="#A6A6A6"></rect><rect x="80" y="52" width="4" height="4" fill="#4A4A4A"></rect><rect x="48" y="56" width="4" height="4" fill="#4A4A4A"></rect><rect x="52" y="56" width="24" height="4" fill="#A6A6A6"></rect><rect x="76" y="56" width="4" height="4" fill="#4A4A4A"></rect><rect x="52" y="60" width="24" height="4" fill="#4A4A4A"></rect><rect x="52" y="72" width="24" height="4" fill="#4A4A4A"></rect><rect x="40" y="76" width="12" height="4" fill="#4A4A4A"></rect><rect x="52" y="76" width="24" height="4" fill="#A6A6A6"></rect><rect x="76" y="76" width="12" height="4" fill="#4A4A4A"></rect><rect x="36" y="80" width="4" height="4" fill="#4A4A4A"></rect><rect x="40" y="80" width="40" height="4" fill="#A6A6A6"></rect><rect x="80" y="80" width="12" height="4" fill="#8A8A8A"></rect><rect x="32" y="84" width="4" height="4" fill="#4A4A4A"></rect><rect x="36" y="84" width="44" height="4" fill="#A6A6A6"></rect><rect x="80" y="84" width="16" height="4" fill="#8A8A8A"></rect><rect x="28" y="88" width="4" height="4" fill="#4A4A4A"></rect><rect x="32" y="88" width="48" height="4" fill="#A6A6A6"></rect><rect x="80" y="88" width="20" height="4" fill="#8A8A8A"></rect><rect x="28" y="92" width="4" height="4" fill="#4A4A4A"></rect><rect x="32" y="92" width="48" height="4" fill="#A6A6A6"></rect><rect x="80" y="92" width="20" height="4" fill="#8A8A8A"></rect><rect x="24" y="96" width="4" height="4" fill="#4A4A4A"></rect><rect x="28" y="96" width="52" height="4" fill="#A6A6A6"></rect><rect x="80" y="96" width="24" height="4" fill="#8A8A8A"></rect><rect x="24" y="100" width="4" height="4" fill="#4A4A4A"></rect><rect x="28" y="100" width="52" height="4" fill="#A6A6A6"></rect><rect x="80" y="100" width="24" height="4" fill="#8A8A8A"></rect><rect x="24" y="104" width="56" height="4" fill="#4A4A4A"></rect><rect x="80" y="104" width="24" height="4" fill="#8A8A8A"></rect><rect x="88" y="8" width="24" height="24" fill="#E0A030"></rect><rect x="96" y="12" width="4" height="12" fill="#5A4010"></rect><rect x="100" y="16" width="8" height="4" fill="#5A4010"></rect></svg>