<svg xmlns="http://www.w3.org/2000/svg" width="128" height="128" viewBox="0 0 128 128" shape-rendering="crispEdges"><rect x="100" y="12" width="8" height="4" fill="#4FA8E6"></rect><rect x="104" y="16" width="4" height="4" fill="#4FA8E6"></rect><rect x="100" y="20" width="8" height="4" fill="#4FA8E6"></rect><rect x="48" y="32" width="12" height="4" fill="#3E4666"></rect><rect x="84" y="32" width="12" height="4" fill="#4FA8E6"></rect><rect x="40" y="36" width="8" height="4" fill="#3E4666"></rect><rect x="48" y="36" width="4" height="4" fill="#BAC6E6"></rect><rect x="52" y="36" width="4" height="4" fill="#3E4666"></rect><rect x="88" y="36" width="4" height="4" fill="#4FA8E6"></rect><rect x="36" y="40" width="4" height="4" fill="#3E4666"></rect><rect x="40" y="40" width="8" height="4" fill="#BAC6E6"></rect><rect x="48" y="40" width="4" height="4" fill="#3E4666"></rect><rect x="84" y="40" width="12" height="4" fill="#4FA8E6"></rect><rect x="32" y="44" width="4" height="4" fill="#3E4666"></rect><rect x="36" y="44" width="12" height="4" fill="#BAC6E6"></rect><rect x="48" y="44" width="4" height="4" fill="#3E4666"></rect><rect x="28" y="48" width="4" height="4" fill="#3E4666"></rect><rect x="32" y="48" width="4" height="4" fill="#BAC6E6"></rect><rect x="36" y="48" width="16" height="4" fill="#E6ECF8"></rect><rect x="28" y="52" width="4" height="4" fill="#3E4666"></rect><rect x="32" y="52" width="4" height="4" fill="#BAC6E6"></rect><rect x="36" y="52" width="16" height="4" fill="#E6ECF8"></rect><rect x="24" y="56" width="4" height="4" fill="#3E4666"></rect><rect x="28" y="56" width="8" height="4" fill="#BAC6E6"></rect><rect x="36" y="56" width="16" height="4" fill="#E6ECF8"></rect><rect x="24" y="60" width="4" height="4" fill="#3E4666"></rect><rect x="28" y="60" width="8" height="4" fill="#BAC6E6"></rect><rect x="36" y="60" width="16" height="4" fill="#E6ECF8"></rect><rect x="24" y="64" width="4" height="4" fill="#3E4666"></rect><rect x="28" y="64" width="20" height="4" fill="#BAC6E6"></rect><rect x="48" y="64" width="4" height="4" fill="#3E4666"></rect><rect x="24" y="68" width="4" height="4" fill="#3E4666"></rect><rect x="28" y="68" width="12" height="4" fill="#BAC6E6"></rect><rect x="40" y="68" width="12" height="4" fill="#2A2622"></rect><rect x="24" y="72" width="4" height="4" fill="#3E4666"></rect><rect x="28" y="72" width="16" height="4" fill="#BAC6E6"></rect><rect x="44" y="72" width="4" height="4" fill="#2A2622"></rect><rect x="48" y="72" width="4" height="4" fill="#BAC6E6"></rect><rect x="52" y="72" width="4" height="4" fill="#3E4666"></rect><rect x="24" y="76" width="4" height="4" fill="#3E4666"></rect><rect x="28" y="76" width="28" height="4" fill="#BAC6E6"></rect><rect x="56" y="76" width="4" height="4" fill="#3E4666"></rect><rect x="28" y="80" width="4" height="4" fill="#3E4666"></rect><rect x="32" y="80" width="28" height="4" fill="#BAC6E6"></rect><rect x="60" y="80" width="4" height="4" fill="#3E4666"></rect><rect x="28" y="84" width="4" height="4" fill="#3E4666"></rect><rect x="32" y="84" width="32" height="4" fill="#BAC6E6"></rect><rect x="64" y="84" width="28" height="4" fill="#3E4666"></rect><rect x="32" y="88" width="4" height="4" fill="#3E4666"></rect><rect x="36" y="88" width="48" height="4" fill="#BAC6E6"></rect><rect x="84" y="88" width="4" height="4" fill="#3E4666"></rect><rect x="36" y="92" width="4" height="4" fill="#3E4666"></rect><rect x="40" y="92" width="40" height="4" fill="#BAC6E6"></rect><rect x="80" y="92" width="4" height="4" fill="#3E4666"></rect><rect x="40" y="96" width="8" height="4" fill="#3E4666"></rect><rect x="48" y="96" width="24" height="4" fill="#BAC6E6"></rect><rect x="72" y="96" width="8" height="4" fill="#3E4666"></rect><rect x="48" y="100" width="24" height="4" fill="#3E4666"></rect></svg>