<svg xmlns="http://www.w3.org/2000/svg" width="128" height="128" viewBox="0 0 128 128" shape-rendering="crispEdges"><rect x="40" y="12" width="8" height="4" fill="#1B786E"></rect><rect x="100" y="12" width="4" height="4" fill="#FFD23F"></rect><rect x="36" y="16" width="4" height="4" fill="#1B786E"></rect><rect x="40" y="16" width="8" height="4" fill="#5FD6C8"></rect><rect x="48" y="16" width="4" height="4" fill="#1B786E"></rect><rect x="80" y="16" width="8" height="4" fill="#1B786E"></rect><rect x="96" y="16" width="12" height="4" fill="#FFD23F"></rect><rect x="36" y="20" width="4" height="4" fill="#1B786E"></rect><rect x="40" y="20" width="12" height="4" fill="#5FD6C8"></rect><rect x="52" y="20" width="24" height="4" fill="#1B786E"></rect><rect x="80" y="20" width="8" height="4" fill="#1B786E"></rect><rect x="100" y="20" width="4" height="4" fill="#FFD23F"></rect><rect x="20" y="24" width="4" height="4" fill="#FF8FB0"></rect><rect x="40" y="24" width="4" height="4" fill="#1B786E"></rect><rect x="44" y="24" width="32" height="4" fill="#5FD6C8"></rect><rect x="76" y="24" width="4" height="4" fill="#1B786E"></rect><rect x="80" y="24" width="4" height="4" fill="#5FD6C8"></rect><rect x="84" y="24" width="4" height="4" fill="#1B786E"></rect><rect x="16" y="28" width="12" height="4" fill="#FF8FB0"></rect><rect x="36" y="28" width="4" height="4" fill="#1B786E"></rect><rect x="40" y="28" width="48" height="4" fill="#5FD6C8"></rect><rect x="88" y="28" width="4" height="4" fill="#1B786E"></rect><rect x="20" y="32" width="4" height="4" fill="#FF8FB0"></rect><rect x="32" y="32" width="4" height="4" fill="#1B786E"></rect><rect x="36" y="32" width="8" height="4" fill="#5FD6C8"></rect><rect x="44" y="32" width="4" height="4" fill="#C6F4ED"></rect><rect x="48" y="32" width="44" height="4" fill="#5FD6C8"></rect><rect x="92" y="32" width="4" height="4" fill="#1B786E"></rect><rect x="28" y="36" width="4" height="4" fill="#1B786E"></rect><rect x="32" y="36" width="4" height="4" fill="#5FD6C8"></rect><rect x="36" y="36" width="20" height="4" fill="#C6F4ED"></rect><rect x="56" y="36" width="40" height="4" fill="#5FD6C8"></rect><rect x="96" y="36" width="4" height="4" fill="#1B786E"></rect><rect x="24" y="40" width="4" height="4" fill="#1B786E"></rect><rect x="28" y="40" width="4" height="4" fill="#5FD6C8"></rect><rect x="32" y="40" width="8" height="4" fill="#C6F4ED"></rect><rect x="40" y="40" width="8" height="4" fill="#FFFFFF"></rect><rect x="48" y="40" width="12" height="4" fill="#C6F4ED"></rect><rect x="60" y="40" width="40" height="4" fill="#5FD6C8"></rect><rect x="100" y="40" width="4" height="4" fill="#1B786E"></rect><rect x="24" y="44" width="4" height="4" fill="#1B786E"></rect><rect x="28" y="44" width="4" height="4" fill="#5FD6C8"></rect><rect x="32" y="44" width="8" height="4" fill="#C6F4ED"></rect><rect x="40" y="44" width="4" height="4" fill="#FFFFFF"></rect><rect x="44" y="44" width="16" height="4" fill="#C6F4ED"></rect><rect x="60" y="44" width="40" height="4" fill="#5FD6C8"></rect><rect x="100" y="44" width="4" height="4" fill="#1B786E"></rect><rect x="24" y="48" width="4" height="4" fill="#1B786E"></rect><rect x="28" y="48" width="8" height="4" fill="#5FD6C8"></rect><rect x="36" y="48" width="20" height="4" fill="#C6F4ED"></rect><rect x="56" y="48" width="44" height="4" fill="#5FD6C8"></rect><rect x="100" y="48" width="4" height="4" fill="#1B786E"></rect><rect x="20" y="52" width="4" height="4" fill="#1B786E"></rect><rect x="24" y="52" width="20" height="4" fill="#5FD6C8"></rect><rect x="44" y="52" width="4" height="4" fill="#C6F4ED"></rect><rect x="48" y="52" width="56" height="4" fill="#5FD6C8"></rect><rect x="104" y="52" width="4" height="4" fill="#1B786E"></rect><rect x="20" y="56" width="4" height="4" fill="#1B786E"></rect><rect x="24" y="56" width="80" height="4" fill="#5FD6C8"></rect><rect x="104" y="56" width="4" height="4" fill="#1B786E"></rect><rect x="20" y="60" width="4" height="4" fill="#1B786E"></rect><rect x="24" y="60" width="80" height="4" fill="#5FD6C8"></rect><rect x="104" y="60" width="4" height="4" fill="#1B786E"></rect><rect x="20" y="64" width="4" height="4" fill="#1B786E"></rect><rect x="24" y="64" width="80" height="4" fill="#5FD6C8"></rect><rect x="104" y="64" width="4" height="4" fill="#1B786E"></rect><rect x="20" y="68" width="4" height="4" fill="#1B786E"></rect><rect x="24" y="68" width="16" height="4" fill="#5FD6C8"></rect><rect x="40" y="68" width="8" height="4" fill="#2A2622"></rect><rect x="48" y="68" width="32" height="4" fill="#5FD6C8"></rect><rect x="80" y="68" width="8" height="4" fill="#2A2622"></rect><rect x="88" y="68" width="16" height="4" fill="#5FD6C8"></rect><rect x="104" y="68" width="4" height="4" fill="#1B786E"></rect><rect x="20" y="72" width="4" height="4" fill="#1B786E"></rect><rect x="24" y="72" width="12" height="4" fill="#5FD6C8"></rect><rect x="36" y="72" width="4" height="4" fill="#2A2622"></rect><rect x="40" y="72" width="8" height="4" fill="#5FD6C8"></rect><rect x="48" y="72" width="4" height="4" fill="#2A2622"></rect><rect x="52" y="72" width="24" height="4" fill="#5FD6C8"></rect><rect x="76" y="72" width="4" height="4" fill="#2A2622"></rect><rect x="80" y="72" width="8" height="4" fill="#5FD6C8"></rect><rect x="88" y="72" width="4" height="4" fill="#2A2622"></rect><rect x="92" y="72" width="12" height="4" fill="#5FD6C8"></rect><rect x="104" y="72" width="4" height="4" fill="#1B786E"></rect><rect x="24" y="76" width="4" height="4" fill="#1B786E"></rect><rect x="28" y="76" width="12" height="4" fill="#5FD6C8"></rect><rect x="40" y="76" width="48" height="4" fill="#37B7A8"></rect><rect x="88" y="76" width="12" height="4" fill="#5FD6C8"></rect><rect x="100" y="76" width="4" height="4" fill="#1B786E"></rect><rect x="24" y="80" width="4" height="4" fill="#1B786E"></rect><rect x="28" y="80" width="4" height="4" fill="#5FD6C8"></rect><rect x="32" y="80" width="8" height="4" fill="#FF8FB0"></rect><rect x="40" y="80" width="52" height="4" fill="#37B7A8"></rect><rect x="92" y="80" width="8" height="4" fill="#FF8FB0"></rect><rect x="100" y="80" width="4" height="4" fill="#1B786E"></rect><rect x="24" y="84" width="4" height="4" fill="#1B786E"></rect><rect x="28" y="84" width="72" height="4" fill="#37B7A8"></rect><rect x="100" y="84" width="4" height="4" fill="#1B786E"></rect><rect x="24" y="88" width="4" height="4" fill="#1B786E"></rect><rect x="28" y="88" width="28" height="4" fill="#37B7A8"></rect><rect x="56" y="88" width="4" height="4" fill="#2A2622"></rect><rect x="60" y="88" width="8" height="4" fill="#37B7A8"></rect><rect x="68" y="88" width="4" height="4" fill="#2A2622"></rect><rect x="72" y="88" width="28" height="4" fill="#37B7A8"></rect><rect x="100" y="88" width="4" height="4" fill="#1B786E"></rect><rect x="20" y="92" width="4" height="4" fill="#1B786E"></rect><rect x="24" y="92" width="4" height="4" fill="#5FD6C8"></rect><rect x="28" y="92" width="32" height="4" fill="#37B7A8"></rect><rect x="60" y="92" width="8" height="4" fill="#2A2622"></rect><rect x="68" y="92" width="32" height="4" fill="#37B7A8"></rect><rect x="100" y="92" width="4" height="4" fill="#5FD6C8"></rect><rect x="104" y="92" width="4" height="4" fill="#1B786E"></rect><rect x="20" y="96" width="4" height="4" fill="#1B786E"></rect><rect x="24" y="96" width="4" height="4" fill="#5FD6C8"></rect><rect x="28" y="96" width="72" height="4" fill="#37B7A8"></rect><rect x="100" y="96" width="4" height="4" fill="#5FD6C8"></rect><rect x="104" y="96" width="4" height="4" fill="#1B786E"></rect><rect x="24" y="100" width="8" height="4" fill="#1B786E"></rect><rect x="32" y="100" width="64" height="4" fill="#37B7A8"></rect><rect x="96" y="100" width="8" height="4" fill="#1B786E"></rect></svg>