<svg xmlns="http://www.w3.org/2000/svg" width="128" height="128" viewBox="0 0 128 128" shape-rendering="crispEdges"><rect x="96" y="0" width="12" height="4" fill="#EA4B36"></rect><rect x="52" y="4" width="20" height="4" fill="#FF5A44"></rect><rect x="96" y="4" width="12" height="4" fill="#EA4B36"></rect><rect x="52" y="8" width="20" height="4" fill="#FF5A44"></rect><rect x="96" y="8" width="12" height="4" fill="#EA4B36"></rect><rect x="16" y="12" width="20" height="4" fill="#FF5A44"></rect><rect x="44" y="12" width="16" height="4" fill="#FF5A44"></rect><rect x="60" y="12" width="4" height="4" fill="#2E2A26"></rect><rect x="64" y="12" width="20" height="4" fill="#FF5A44"></rect><rect x="92" y="12" width="4" height="4" fill="#FF5A44"></rect><rect x="96" y="12" width="12" height="4" fill="#B62F1F"></rect><rect x="108" y="12" width="4" height="4" fill="#FF5A44"></rect><rect x="12" y="16" width="48" height="4" fill="#FF5A44"></rect><rect x="60" y="16" width="4" height="4" fill="#2E2A26"></rect><rect x="64" y="16" width="32" height="4" fill="#FF5A44"></rect><rect x="96" y="16" width="12" height="4" fill="#EA4B36"></rect><rect x="108" y="16" width="8" height="4" fill="#FF5A44"></rect><rect x="8" y="20" width="16" height="4" fill="#FF5A44"></rect><rect x="24" y="20" width="4" height="4" fill="#2E2A26"></rect><rect x="28" y="20" width="24" height="4" fill="#FF5A44"></rect><rect x="52" y="20" width="8" height="4" fill="#2E2A26"></rect><rect x="60" y="20" width="4" height="4" fill="#F6F3EC"></rect><rect x="64" y="20" width="12" height="4" fill="#2E2A26"></rect><rect x="76" y="20" width="24" height="4" fill="#FF5A44"></rect><rect x="100" y="20" width="4" height="4" fill="#2E2A26"></rect><rect x="104" y="20" width="16" height="4" fill="#FF5A44"></rect><rect x="8" y="24" width="12" height="4" fill="#FF5A44"></rect><rect x="20" y="24" width="4" height="4" fill="#2E2A26"></rect><rect x="24" y="24" width="4" height="4" fill="#F6F3EC"></rect><rect x="28" y="24" width="4" height="4" fill="#2E2A26"></rect><rect x="32" y="24" width="12" height="4" fill="#FF5A44"></rect><rect x="44" y="24" width="8" height="4" fill="#2E2A26"></rect><rect x="52" y="24" width="24" height="4" fill="#F6F3EC"></rect><rect x="76" y="24" width="8" height="4" fill="#2E2A26"></rect><rect x="84" y="24" width="12" height="4" fill="#FF5A44"></rect><rect x="96" y="24" width="12" height="4" fill="#EA4B36"></rect><rect x="108" y="24" width="12" height="4" fill="#FF5A44"></rect><rect x="8" y="28" width="8" height="4" fill="#FF5A44"></rect><rect x="16" y="28" width="4" height="4" fill="#2E2A26"></rect><rect x="20" y="28" width="12" height="4" fill="#F6F3EC"></rect><rect x="32" y="28" width="4" height="4" fill="#2E2A26"></rect><rect x="36" y="28" width="4" height="4" fill="#FF5A44"></rect><rect x="40" y="28" width="4" height="4" fill="#2E2A26"></rect><rect x="44" y="28" width="40" height="4" fill="#F6F3EC"></rect><rect x="84" y="28" width="4" height="4" fill="#2E2A26"></rect><rect x="88" y="28" width="4" height="4" fill="#FF5A44"></rect><rect x="92" y="28" width="4" height="4" fill="#2E2A26"></rect><rect x="96" y="28" width="12" height="4" fill="#EA4B36"></rect><rect x="108" y="28" width="4" height="4" fill="#2E2A26"></rect><rect x="112" y="28" width="8" height="4" fill="#FF5A44"></rect><rect x="8" y="32" width="8" height="4" fill="#FF5A44"></rect><rect x="16" y="32" width="4" height="4" fill="#2E2A26"></rect><rect x="20" y="32" width="16" height="4" fill="#F6F3EC"></rect><rect x="36" y="32" width="4" height="4" fill="#2E2A26"></rect><rect x="40" y="32" width="48" height="4" fill="#F6F3EC"></rect><rect x="88" y="32" width="4" height="4" fill="#2E2A26"></rect><rect x="92" y="32" width="16" height="4" fill="#F6F3EC"></rect><rect x="108" y="32" width="4" height="4" fill="#2E2A26"></rect><rect x="112" y="32" width="8" height="4" fill="#FF5A44"></rect><rect x="8" y="36" width="8" height="4" fill="#FF5A44"></rect><rect x="16" y="36" width="4" height="4" fill="#2E2A26"></rect><rect x="20" y="36" width="88" height="4" fill="#F6F3EC"></rect><rect x="108" y="36" width="4" height="4" fill="#2E2A26"></rect><rect x="112" y="36" width="8" height="4" fill="#FF5A44"></rect><rect x="8" y="40" width="8" height="4" fill="#FF5A44"></rect><rect x="16" y="40" width="4" height="4" fill="#2E2A26"></rect><rect x="20" y="40" width="28" height="4" fill="#F6F3EC"></rect><rect x="48" y="40" width="4" height="4" fill="#2A2622"></rect><rect x="52" y="40" width="28" height="4" fill="#F6F3EC"></rect><rect x="80" y="40" width="4" height="4" fill="#2A2622"></rect><rect x="84" y="40" width="24" height="4" fill="#F6F3EC"></rect><rect x="108" y="40" width="4" height="4" fill="#2E2A26"></rect><rect x="112" y="40" width="8" height="4" fill="#FF5A44"></rect><rect x="8" y="44" width="8" height="4" fill="#FF5A44"></rect><rect x="16" y="44" width="4" height="4" fill="#2E2A26"></rect><rect x="20" y="44" width="24" height="4" fill="#F6F3EC"></rect><rect x="44" y="44" width="4" height="4" fill="#2A2622"></rect><rect x="48" y="44" width="4" height="4" fill="#F6F3EC"></rect><rect x="52" y="44" width="4" height="4" fill="#2A2622"></rect><rect x="56" y="44" width="20" height="4" fill="#F6F3EC"></rect><rect x="76" y="44" width="4" height="4" fill="#2A2622"></rect><rect x="80" y="44" width="4" height="4" fill="#F6F3EC"></rect><rect x="84" y="44" width="4" height="4" fill="#2A2622"></rect><rect x="88" y="44" width="20" height="4" fill="#F6F3EC"></rect><rect x="108" y="44" width="4" height="4" fill="#2E2A26"></rect><rect x="112" y="44" width="8" height="4" fill="#FF5A44"></rect><rect x="8" y="48" width="8" height="4" fill="#FF5A44"></rect><rect x="16" y="48" width="4" height="4" fill="#2E2A26"></rect><rect x="20" y="48" width="28" height="4" fill="#F6F3EC"></rect><rect x="48" y="48" width="4" height="4" fill="#2A2622"></rect><rect x="52" y="48" width="28" height="4" fill="#F6F3EC"></rect><rect x="80" y="48" width="4" height="4" fill="#2A2622"></rect><rect x="84" y="48" width="24" height="4" fill="#F6F3EC"></rect><rect x="108" y="48" width="4" height="4" fill="#2E2A26"></rect><rect x="112" y="48" width="8" height="4" fill="#FF5A44"></rect><rect x="8" y="52" width="8" height="4" fill="#FF5A44"></rect><rect x="16" y="52" width="4" height="4" fill="#2E2A26"></rect><rect x="20" y="52" width="88" height="4" fill="#F6F3EC"></rect><rect x="108" y="52" width="4" height="4" fill="#2E2A26"></rect><rect x="112" y="52" width="8" height="4" fill="#FF5A44"></rect><rect x="8" y="56" width="8" height="4" fill="#FF5A44"></rect><rect x="16" y="56" width="4" height="4" fill="#2E2A26"></rect><rect x="20" y="56" width="40" height="4" fill="#F6F3EC"></rect><rect x="60" y="56" width="8" height="4" fill="#2A2622"></rect><rect x="68" y="56" width="40" height="4" fill="#F6F3EC"></rect><rect x="108" y="56" width="4" height="4" fill="#2E2A26"></rect><rect x="112" y="56" width="8" height="4" fill="#FF5A44"></rect><rect x="8" y="60" width="12" height="4" fill="#FF5A44"></rect><rect x="20" y="60" width="4" height="4" fill="#2E2A26"></rect><rect x="24" y="60" width="4" height="4" fill="#F6F3EC"></rect><rect x="28" y="60" width="8" height="4" fill="#2E2A26"></rect><rect x="36" y="60" width="24" height="4" fill="#F6F3EC"></rect><rect x="60" y="60" width="8" height="4" fill="#2A2622"></rect><rect x="68" y="60" width="24" height="4" fill="#F6F3EC"></rect><rect x="92" y="60" width="8" height="4" fill="#2E2A26"></rect><rect x="100" y="60" width="4" height="4" fill="#F6F3EC"></rect><rect x="104" y="60" width="4" height="4" fill="#2E2A26"></rect><rect x="108" y="60" width="12" height="4" fill="#FF5A44"></rect><rect x="8" y="64" width="16" height="4" fill="#FF5A44"></rect><rect x="24" y="64" width="4" height="4" fill="#2E2A26"></rect><rect x="28" y="64" width="8" height="4" fill="#FF5A44"></rect><rect x="36" y="64" width="4" height="4" fill="#2E2A26"></rect><rect x="40" y="64" width="20" height="4" fill="#F6F3EC"></rect><rect x="60" y="64" width="8" height="4" fill="#2A2622"></rect><rect x="68" y="64" width="20" height="4" fill="#F6F3EC"></rect><rect x="88" y="64" width="4" height="4" fill="#2E2A26"></rect><rect x="92" y="64" width="8" height="4" fill="#FF5A44"></rect><rect x="100" y="64" width="4" height="4" fill="#2E2A26"></rect><rect x="104" y="64" width="16" height="4" fill="#FF5A44"></rect><rect x="12" y="68" width="24" height="4" fill="#FF5A44"></rect><rect x="36" y="68" width="4" height="4" fill="#2E2A26"></rect><rect x="40" y="68" width="16" height="4" fill="#F6F3EC"></rect><rect x="56" y="68" width="4" height="4" fill="#2A2622"></rect><rect x="60" y="68" width="8" height="4" fill="#F6F3EC"></rect><rect x="68" y="68" width="4" height="4" fill="#2A2622"></rect><rect x="72" y="68" width="16" height="4" fill="#F6F3EC"></rect><rect x="88" y="68" width="4" height="4" fill="#2E2A26"></rect><rect x="92" y="68" width="24" height="4" fill="#FF5A44"></rect><rect x="16" y="72" width="24" height="4" fill="#FF5A44"></rect><rect x="40" y="72" width="4" height="4" fill="#2E2A26"></rect><rect x="44" y="72" width="40" height="4" fill="#F6F3EC"></rect><rect x="84" y="72" width="4" height="4" fill="#2E2A26"></rect><rect x="88" y="72" width="24" height="4" fill="#FF5A44"></rect><rect x="28" y="76" width="16" height="4" fill="#FF5A44"></rect><rect x="44" y="76" width="8" height="4" fill="#2E2A26"></rect><rect x="52" y="76" width="24" height="4" fill="#F6F3EC"></rect><rect x="76" y="76" width="8" height="4" fill="#2E2A26"></rect><rect x="84" y="76" width="16" height="4" fill="#FF5A44"></rect><rect x="32" y="80" width="20" height="4" fill="#FF5A44"></rect><rect x="52" y="80" width="24" height="4" fill="#2E2A26"></rect><rect x="76" y="80" width="20" height="4" fill="#FF5A44"></rect><rect x="36" y="84" width="56" height="4" fill="#FF5A44"></rect><rect x="44" y="88" width="40" height="4" fill="#FF5A44"></rect></svg>