<svg xmlns="http://www.w3.org/2000/svg" width="128" height="128" viewBox="0 0 128 128" shape-rendering="crispEdges"><rect x="96" y="4" width="8" height="4" fill="#7FD0EE"></rect><rect x="92" y="8" width="4" height="4" fill="#7FD0EE"></rect><rect x="96" y="8" width="8" height="4" fill="#5BD0EE"></rect><rect x="104" y="8" width="4" height="4" fill="#7FD0EE"></rect><rect x="92" y="12" width="16" height="4" fill="#5BD0EE"></rect><rect x="92" y="16" width="16" height="4" fill="#5BD0EE"></rect><rect x="68" y="20" width="20" height="4" fill="#8A93A2"></rect><rect x="92" y="20" width="4" height="4" fill="#7FD0EE"></rect><rect x="96" y="20" width="8" height="4" fill="#5BD0EE"></rect><rect x="104" y="20" width="4" height="4" fill="#7FD0EE"></rect><rect x="24" y="24" width="4" height="4" fill="#5BD0EE"></rect><rect x="64" y="24" width="24" height="4" fill="#8A93A2"></rect><rect x="96" y="24" width="8" height="4" fill="#7FD0EE"></rect><rect x="28" y="28" width="20" height="4" fill="#8A93A2"></rect><rect x="56" y="28" width="20" height="4" fill="#8A93A2"></rect><rect x="76" y="28" width="4" height="4" fill="#2E2A26"></rect><rect x="80" y="28" width="16" height="4" fill="#8A93A2"></rect><rect x="104" y="28" width="20" height="4" fill="#8A93A2"></rect><rect x="20" y="32" width="4" height="4" fill="#5BD0EE"></rect><rect x="24" y="32" width="48" height="4" fill="#8A93A2"></rect><rect x="72" y="32" width="4" height="4" fill="#2E2A26"></rect><rect x="76" y="32" width="52" height="4" fill="#8A93A2"></rect><rect x="20" y="36" width="16" height="4" fill="#8A93A2"></rect><rect x="36" y="36" width="4" height="4" fill="#2E2A26"></rect><rect x="40" y="36" width="24" height="4" fill="#8A93A2"></rect><rect x="64" y="36" width="8" height="4" fill="#2E2A26"></rect><rect x="72" y="36" width="4" height="4" fill="#F6F3EC"></rect><rect x="76" y="36" width="12" height="4" fill="#2E2A26"></rect><rect x="88" y="36" width="24" height="4" fill="#8A93A2"></rect><rect x="112" y="36" width="4" height="4" fill="#2E2A26"></rect><rect x="116" y="36" width="12" height="4" fill="#8A93A2"></rect><rect x="20" y="40" width="12" height="4" fill="#8A93A2"></rect><rect x="32" y="40" width="4" height="4" fill="#2E2A26"></rect><rect x="36" y="40" width="4" height="4" fill="#F6F3EC"></rect><rect x="40" y="40" width="4" height="4" fill="#2E2A26"></rect><rect x="44" y="40" width="12" height="4" fill="#8A93A2"></rect><rect x="56" y="40" width="8" height="4" fill="#2E2A26"></rect><rect x="64" y="40" width="24" height="4" fill="#F6F3EC"></rect><rect x="88" y="40" width="8" height="4" fill="#2E2A26"></rect><rect x="96" y="40" width="12" height="4" fill="#8A93A2"></rect><rect x="108" y="40" width="4" height="4" fill="#2E2A26"></rect><rect x="112" y="40" width="4" height="4" fill="#F6F3EC"></rect><rect x="116" y="40" width="4" height="4" fill="#2E2A26"></rect><rect x="120" y="40" width="8" height="4" fill="#8A93A2"></rect><rect x="20" y="44" width="8" height="4" fill="#8A93A2"></rect><rect x="28" y="44" width="4" height="4" fill="#2E2A26"></rect><rect x="32" y="44" width="12" height="4" fill="#F6F3EC"></rect><rect x="44" y="44" width="4" height="4" fill="#2E2A26"></rect><rect x="48" y="44" width="4" height="4" fill="#8A93A2"></rect><rect x="52" y="44" width="4" height="4" fill="#2E2A26"></rect><rect x="56" y="44" width="40" height="4" fill="#F6F3EC"></rect><rect x="96" y="44" width="4" height="4" fill="#2E2A26"></rect><rect x="100" y="44" width="4" height="4" fill="#8A93A2"></rect><rect x="104" y="44" width="4" height="4" fill="#2E2A26"></rect><rect x="108" y="44" width="12" height="4" fill="#F6F3EC"></rect><rect x="120" y="44" width="4" height="4" fill="#2E2A26"></rect><rect x="124" y="44" width="4" height="4" fill="#8A93A2"></rect><rect x="16" y="48" width="12" height="4" fill="#8A93A2"></rect><rect x="28" y="48" width="4" height="4" fill="#2E2A26"></rect><rect x="32" y="48" width="16" height="4" fill="#F6F3EC"></rect><rect x="48" y="48" width="4" height="4" fill="#2E2A26"></rect><rect x="52" y="48" width="48" height="4" fill="#F6F3EC"></rect><rect x="100" y="48" width="4" height="4" fill="#2E2A26"></rect><rect x="104" y="48" width="16" height="4" fill="#F6F3EC"></rect><rect x="120" y="48" width="4" height="4" fill="#2E2A26"></rect><rect x="124" y="48" width="4" height="4" fill="#8A93A2"></rect><rect x="16" y="52" width="12" height="4" fill="#8A93A2"></rect><rect x="28" y="52" width="4" height="4" fill="#2E2A26"></rect><rect x="32" y="52" width="88" height="4" fill="#F6F3EC"></rect><rect x="120" y="52" width="4" height="4" fill="#2E2A26"></rect><rect x="124" y="52" width="4" height="4" fill="#8A93A2"></rect><rect x="16" y="56" width="8" height="4" fill="#8A93A2"></rect><rect x="24" y="56" width="4" height="4" fill="#2E2A26"></rect><rect x="28" y="56" width="24" height="4" fill="#F6F3EC"></rect><rect x="52" y="56" width="4" height="4" fill="#2A2622"></rect><rect x="56" y="56" width="4" height="4" fill="#F6F3EC"></rect><rect x="60" y="56" width="4" height="4" fill="#2A2622"></rect><rect x="64" y="56" width="20" height="4" fill="#F6F3EC"></rect><rect x="84" y="56" width="4" height="4" fill="#2A2622"></rect><rect x="88" y="56" width="4" height="4" fill="#F6F3EC"></rect><rect x="92" y="56" width="4" height="4" fill="#2A2622"></rect><rect x="96" y="56" width="20" height="4" fill="#F6F3EC"></rect><rect x="116" y="56" width="4" height="4" fill="#2E2A26"></rect><rect x="120" y="56" width="8" height="4" fill="#8A93A2"></rect><rect x="16" y="60" width="8" height="4" fill="#8A93A2"></rect><rect x="24" y="60" width="4" height="4" fill="#2E2A26"></rect><rect x="28" y="60" width="28" height="4" fill="#F6F3EC"></rect><rect x="56" y="60" width="4" height="4" fill="#2A2622"></rect><rect x="60" y="60" width="28" height="4" fill="#F6F3EC"></rect><rect x="88" y="60" width="4" height="4" fill="#2A2622"></rect><rect x="92" y="60" width="24" height="4" fill="#F6F3EC"></rect><rect x="116" y="60" width="4" height="4" fill="#2E2A26"></rect><rect x="120" y="60" width="8" height="4" fill="#8A93A2"></rect><rect x="16" y="64" width="8" height="4" fill="#8A93A2"></rect><rect x="24" y="64" width="4" height="4" fill="#2E2A26"></rect><rect x="28" y="64" width="24" height="4" fill="#F6F3EC"></rect><rect x="52" y="64" width="4" height="4" fill="#2A2622"></rect><rect x="56" y="64" width="4" height="4" fill="#F6F3EC"></rect><rect x="60" y="64" width="4" height="4" fill="#2A2622"></rect><rect x="64" y="64" width="20" height="4" fill="#F6F3EC"></rect><rect x="84" y="64" width="4" height="4" fill="#2A2622"></rect><rect x="88" y="64" width="4" height="4" fill="#F6F3EC"></rect><rect x="92" y="64" width="4" height="4" fill="#2A2622"></rect><rect x="96" y="64" width="20" height="4" fill="#F6F3EC"></rect><rect x="116" y="64" width="4" height="4" fill="#2E2A26"></rect><rect x="120" y="64" width="8" height="4" fill="#8A93A2"></rect><rect x="16" y="68" width="8" height="4" fill="#8A93A2"></rect><rect x="24" y="68" width="4" height="4" fill="#2E2A26"></rect><rect x="28" y="68" width="88" height="4" fill="#F6F3EC"></rect><rect x="116" y="68" width="4" height="4" fill="#2E2A26"></rect><rect x="120" y="68" width="8" height="4" fill="#8A93A2"></rect><rect x="16" y="72" width="8" height="4" fill="#8A93A2"></rect><rect x="24" y="72" width="4" height="4" fill="#2E2A26"></rect><rect x="28" y="72" width="40" height="4" fill="#F6F3EC"></rect><rect x="68" y="72" width="8" height="4" fill="#2A2622"></rect><rect x="76" y="72" width="40" height="4" fill="#F6F3EC"></rect><rect x="116" y="72" width="4" height="4" fill="#2E2A26"></rect><rect x="120" y="72" width="8" height="4" fill="#8A93A2"></rect><rect x="16" y="76" width="12" height="4" fill="#8A93A2"></rect><rect x="28" y="76" width="4" height="4" fill="#2E2A26"></rect><rect x="32" y="76" width="4" height="4" fill="#F6F3EC"></rect><rect x="36" y="76" width="8" height="4" fill="#2E2A26"></rect><rect x="44" y="76" width="24" height="4" fill="#F6F3EC"></rect><rect x="68" y="76" width="8" height="4" fill="#2A2622"></rect><rect x="76" y="76" width="24" height="4" fill="#F6F3EC"></rect><rect x="100" y="76" width="8" height="4" fill="#2E2A26"></rect><rect x="108" y="76" width="4" height="4" fill="#F6F3EC"></rect><rect x="112" y="76" width="4" height="4" fill="#2E2A26"></rect><rect x="116" y="76" width="12" height="4" fill="#8A93A2"></rect><rect x="16" y="80" width="12" height="4" fill="#8A93A2"></rect><rect x="28" y="80" width="4" height="4" fill="#2E2A26"></rect><rect x="32" y="80" width="8" height="4" fill="#8A93A2"></rect><rect x="40" y="80" width="4" height="4" fill="#2E2A26"></rect><rect x="44" y="80" width="16" height="4" fill="#F6F3EC"></rect><rect x="60" y="80" width="4" height="4" fill="#2A2622"></rect><rect x="64" y="80" width="4" height="4" fill="#F6F3EC"></rect><rect x="68" y="80" width="4" height="4" fill="#2A2622"></rect><rect x="72" y="80" width="20" height="4" fill="#F6F3EC"></rect><rect x="92" y="80" width="4" height="4" fill="#2E2A26"></rect><rect x="96" y="80" width="8" height="4" fill="#8A93A2"></rect><rect x="104" y="80" width="4" height="4" fill="#2E2A26"></rect><rect x="108" y="80" width="20" height="4" fill="#8A93A2"></rect><rect x="20" y="84" width="20" height="4" fill="#8A93A2"></rect><rect x="40" y="84" width="4" height="4" fill="#2E2A26"></rect><rect x="44" y="84" width="20" height="4" fill="#F6F3EC"></rect><rect x="64" y="84" width="4" height="4" fill="#2A2622"></rect><rect x="68" y="84" width="4" height="4" fill="#F6F3EC"></rect><rect x="72" y="84" width="4" height="4" fill="#2A2622"></rect><rect x="76" y="84" width="16" height="4" fill="#F6F3EC"></rect><rect x="92" y="84" width="4" height="4" fill="#2E2A26"></rect><rect x="96" y="84" width="28" height="4" fill="#8A93A2"></rect><rect x="20" y="88" width="24" height="4" fill="#8A93A2"></rect><rect x="44" y="88" width="4" height="4" fill="#2E2A26"></rect><rect x="48" y="88" width="40" height="4" fill="#F6F3EC"></rect><rect x="88" y="88" width="4" height="4" fill="#2E2A26"></rect><rect x="92" y="88" width="24" height="4" fill="#8A93A2"></rect><rect x="32" y="92" width="16" height="4" fill="#8A93A2"></rect><rect x="48" y="92" width="8" height="4" fill="#2E2A26"></rect><rect x="56" y="92" width="24" height="4" fill="#F6F3EC"></rect><rect x="80" y="92" width="8" height="4" fill="#2E2A26"></rect><rect x="88" y="92" width="16" height="4" fill="#8A93A2"></rect><rect x="36" y="96" width="20" height="4" fill="#8A93A2"></rect><rect x="56" y="96" width="24" height="4" fill="#2E2A26"></rect><rect x="80" y="96" width="20" height="4" fill="#8A93A2"></rect><rect x="40" y="100" width="56" height="4" fill="#8A93A2"></rect><rect x="48" y="104" width="40" height="4" fill="#8A93A2"></rect></svg>