<svg xmlns="http://www.w3.org/2000/svg" width="128" height="128" viewBox="0 0 128 128" shape-rendering="crispEdges"><rect x="92" y="8" width="16" height="4" fill="#CFE2F8"></rect><rect x="48" y="12" width="20" height="4" fill="#6FA6E6"></rect><rect x="84" y="12" width="32" height="4" fill="#CFE2F8"></rect><rect x="48" y="16" width="20" height="4" fill="#6FA6E6"></rect><rect x="80" y="16" width="12" height="4" fill="#CFE2F8"></rect><rect x="92" y="16" width="4" height="4" fill="#FF8FB0"></rect><rect x="96" y="16" width="4" height="4" fill="#CFE2F8"></rect><rect x="100" y="16" width="4" height="4" fill="#FF8FB0"></rect><rect x="104" y="16" width="16" height="4" fill="#CFE2F8"></rect><rect x="12" y="20" width="20" height="4" fill="#6FA6E6"></rect><rect x="40" y="20" width="16" height="4" fill="#6FA6E6"></rect><rect x="56" y="20" width="4" height="4" fill="#2E2A26"></rect><rect x="60" y="20" width="20" height="4" fill="#6FA6E6"></rect><rect x="80" y="20" width="8" height="4" fill="#CFE2F8"></rect><rect x="88" y="20" width="4" height="4" fill="#6FA6E6"></rect><rect x="92" y="20" width="12" height="4" fill="#FF8FB0"></rect><rect x="104" y="20" width="4" height="4" fill="#6FA6E6"></rect><rect x="108" y="20" width="12" height="4" fill="#CFE2F8"></rect><rect x="8" y="24" width="48" height="4" fill="#6FA6E6"></rect><rect x="56" y="24" width="4" height="4" fill="#2E2A26"></rect><rect x="60" y="24" width="36" height="4" fill="#6FA6E6"></rect><rect x="96" y="24" width="4" height="4" fill="#FF8FB0"></rect><rect x="100" y="24" width="12" height="4" fill="#6FA6E6"></rect><rect x="112" y="24" width="12" height="4" fill="#CFE2F8"></rect><rect x="4" y="28" width="16" height="4" fill="#6FA6E6"></rect><rect x="20" y="28" width="4" height="4" fill="#2E2A26"></rect><rect x="24" y="28" width="24" height="4" fill="#6FA6E6"></rect><rect x="48" y="28" width="8" height="4" fill="#2E2A26"></rect><rect x="56" y="28" width="4" height="4" fill="#F6F3EC"></rect><rect x="60" y="28" width="12" height="4" fill="#2E2A26"></rect><rect x="72" y="28" width="24" height="4" fill="#6FA6E6"></rect><rect x="96" y="28" width="4" height="4" fill="#2E2A26"></rect><rect x="100" y="28" width="16" height="4" fill="#6FA6E6"></rect><rect x="116" y="28" width="8" height="4" fill="#CFE2F8"></rect><rect x="4" y="32" width="12" height="4" fill="#6FA6E6"></rect><rect x="16" y="32" width="4" height="4" fill="#2E2A26"></rect><rect x="20" y="32" width="4" height="4" fill="#F6F3EC"></rect><rect x="24" y="32" width="4" height="4" fill="#2E2A26"></rect><rect x="28" y="32" width="12" height="4" fill="#6FA6E6"></rect><rect x="40" y="32" width="8" height="4" fill="#2E2A26"></rect><rect x="48" y="32" width="24" height="4" fill="#F6F3EC"></rect><rect x="72" y="32" width="8" height="4" fill="#2E2A26"></rect><rect x="80" y="32" width="12" height="4" fill="#6FA6E6"></rect><rect x="92" y="32" width="4" height="4" fill="#2E2A26"></rect><rect x="96" y="32" width="4" height="4" fill="#F6F3EC"></rect><rect x="100" y="32" width="4" height="4" fill="#2E2A26"></rect><rect x="104" y="32" width="12" height="4" fill="#6FA6E6"></rect><rect x="116" y="32" width="8" height="4" fill="#CFE2F8"></rect><rect x="4" y="36" width="8" height="4" fill="#6FA6E6"></rect><rect x="12" y="36" width="4" height="4" fill="#2E2A26"></rect><rect x="16" y="36" width="12" height="4" fill="#F6F3EC"></rect><rect x="28" y="36" width="4" height="4" fill="#2E2A26"></rect><rect x="32" y="36" width="4" height="4" fill="#6FA6E6"></rect><rect x="36" y="36" width="4" height="4" fill="#2E2A26"></rect><rect x="40" y="36" width="40" height="4" fill="#F6F3EC"></rect><rect x="80" y="36" width="4" height="4" fill="#2E2A26"></rect><rect x="84" y="36" width="4" height="4" fill="#6FA6E6"></rect><rect x="88" y="36" width="4" height="4" fill="#2E2A26"></rect><rect x="92" y="36" width="12" height="4" fill="#F6F3EC"></rect><rect x="104" y="36" width="4" height="4" fill="#2E2A26"></rect><rect x="108" y="36" width="8" height="4" fill="#6FA6E6"></rect><rect x="116" y="36" width="8" height="4" fill="#CFE2F8"></rect><rect x="4" y="40" width="8" height="4" fill="#6FA6E6"></rect><rect x="12" y="40" width="4" height="4" fill="#2E2A26"></rect><rect x="16" y="40" width="16" height="4" fill="#F6F3EC"></rect><rect x="32" y="40" width="4" height="4" fill="#2E2A26"></rect><rect x="36" y="40" width="48" height="4" fill="#F6F3EC"></rect><rect x="84" y="40" width="4" height="4" fill="#2E2A26"></rect><rect x="88" y="40" width="16" height="4" fill="#F6F3EC"></rect><rect x="104" y="40" width="4" height="4" fill="#2E2A26"></rect><rect x="108" y="40" width="8" height="4" fill="#6FA6E6"></rect><rect x="4" y="44" width="8" height="4" fill="#6FA6E6"></rect><rect x="12" y="44" width="4" height="4" fill="#2E2A26"></rect><rect x="16" y="44" width="88" height="4" fill="#F6F3EC"></rect><rect x="104" y="44" width="4" height="4" fill="#2E2A26"></rect><rect x="108" y="44" width="8" height="4" fill="#6FA6E6"></rect><rect x="4" y="48" width="8" height="4" fill="#6FA6E6"></rect><rect x="12" y="48" width="4" height="4" fill="#2E2A26"></rect><rect x="16" y="48" width="60" height="4" fill="#F6F3EC"></rect><rect x="76" y="48" width="4" height="4" fill="#CFE2F8"></rect><rect x="80" y="48" width="24" height="4" fill="#F6F3EC"></rect><rect x="104" y="48" width="4" height="4" fill="#2E2A26"></rect><rect x="108" y="48" width="8" height="4" fill="#6FA6E6"></rect><rect x="4" y="52" width="8" height="4" fill="#6FA6E6"></rect><rect x="12" y="52" width="4" height="4" fill="#2E2A26"></rect><rect x="16" y="52" width="24" height="4" fill="#F6F3EC"></rect><rect x="40" y="52" width="4" height="4" fill="#2A2622"></rect><rect x="44" y="52" width="4" height="4" fill="#F6F3EC"></rect><rect x="48" y="52" width="4" height="4" fill="#2A2622"></rect><rect x="52" y="52" width="20" height="4" fill="#F6F3EC"></rect><rect x="72" y="52" width="4" height="4" fill="#2A2622"></rect><rect x="76" y="52" width="4" height="4" fill="#F6F3EC"></rect><rect x="80" y="52" width="4" height="4" fill="#2A2622"></rect><rect x="84" y="52" width="20" height="4" fill="#F6F3EC"></rect><rect x="104" y="52" width="4" height="4" fill="#2E2A26"></rect><rect x="108" y="52" width="12" height="4" fill="#6FA6E6"></rect><rect x="4" y="56" width="8" height="4" fill="#6FA6E6"></rect><rect x="12" y="56" width="4" height="4" fill="#2E2A26"></rect><rect x="16" y="56" width="28" height="4" fill="#F6F3EC"></rect><rect x="44" y="56" width="4" height="4" fill="#2A2622"></rect><rect x="48" y="56" width="20" height="4" fill="#F6F3EC"></rect><rect x="68" y="56" width="4" height="4" fill="#CFE2F8"></rect><rect x="72" y="56" width="4" height="4" fill="#F6F3EC"></rect><rect x="76" y="56" width="4" height="4" fill="#2A2622"></rect><rect x="80" y="56" width="24" height="4" fill="#F6F3EC"></rect><rect x="104" y="56" width="4" height="4" fill="#2E2A26"></rect><rect x="108" y="56" width="12" height="4" fill="#6FA6E6"></rect><rect x="4" y="60" width="12" height="4" fill="#6FA6E6"></rect><rect x="16" y="60" width="4" height="4" fill="#2E2A26"></rect><rect x="20" y="60" width="88" height="4" fill="#F6F3EC"></rect><rect x="108" y="60" width="4" height="4" fill="#2E2A26"></rect><rect x="112" y="60" width="8" height="4" fill="#6FA6E6"></rect><rect x="4" y="64" width="12" height="4" fill="#6FA6E6"></rect><rect x="16" y="64" width="4" height="4" fill="#2E2A26"></rect><rect x="20" y="64" width="40" height="4" fill="#F6F3EC"></rect><rect x="60" y="64" width="8" height="4" fill="#2A2622"></rect><rect x="68" y="64" width="40" height="4" fill="#F6F3EC"></rect><rect x="108" y="64" width="4" height="4" fill="#2E2A26"></rect><rect x="112" y="64" width="8" height="4" fill="#6FA6E6"></rect><rect x="8" y="68" width="12" height="4" fill="#6FA6E6"></rect><rect x="20" y="68" width="4" height="4" fill="#2E2A26"></rect><rect x="24" y="68" width="4" height="4" fill="#F6F3EC"></rect><rect x="28" y="68" width="8" height="4" fill="#2E2A26"></rect><rect x="36" y="68" width="24" height="4" fill="#F6F3EC"></rect><rect x="60" y="68" width="8" height="4" fill="#2A2622"></rect><rect x="68" y="68" width="24" height="4" fill="#F6F3EC"></rect><rect x="92" y="68" width="8" height="4" fill="#2E2A26"></rect><rect x="100" y="68" width="4" height="4" fill="#F6F3EC"></rect><rect x="104" y="68" width="4" height="4" fill="#2E2A26"></rect><rect x="108" y="68" width="12" height="4" fill="#6FA6E6"></rect><rect x="8" y="72" width="16" height="4" fill="#6FA6E6"></rect><rect x="24" y="72" width="4" height="4" fill="#2E2A26"></rect><rect x="28" y="72" width="8" height="4" fill="#6FA6E6"></rect><rect x="36" y="72" width="4" height="4" fill="#2E2A26"></rect><rect x="40" y="72" width="16" height="4" fill="#F6F3EC"></rect><rect x="56" y="72" width="4" height="4" fill="#2A2622"></rect><rect x="60" y="72" width="8" height="4" fill="#F6F3EC"></rect><rect x="68" y="72" width="4" height="4" fill="#2A2622"></rect><rect x="72" y="72" width="16" height="4" fill="#F6F3EC"></rect><rect x="88" y="72" width="4" height="4" fill="#2E2A26"></rect><rect x="92" y="72" width="8" height="4" fill="#6FA6E6"></rect><rect x="100" y="72" width="4" height="4" fill="#2E2A26"></rect><rect x="104" y="72" width="16" height="4" fill="#6FA6E6"></rect><rect x="12" y="76" width="24" height="4" fill="#6FA6E6"></rect><rect x="36" y="76" width="4" height="4" fill="#2E2A26"></rect><rect x="40" y="76" width="20" height="4" fill="#F6F3EC"></rect><rect x="60" y="76" width="8" height="4" fill="#2A2622"></rect><rect x="68" y="76" width="20" height="4" fill="#F6F3EC"></rect><rect x="88" y="76" width="4" height="4" fill="#2E2A26"></rect><rect x="92" y="76" width="24" height="4" fill="#6FA6E6"></rect><rect x="16" y="80" width="24" height="4" fill="#6FA6E6"></rect><rect x="40" y="80" width="4" height="4" fill="#2E2A26"></rect><rect x="44" y="80" width="40" height="4" fill="#F6F3EC"></rect><rect x="84" y="80" width="4" height="4" fill="#2E2A26"></rect><rect x="88" y="80" width="24" height="4" fill="#6FA6E6"></rect><rect x="28" y="84" width="16" height="4" fill="#6FA6E6"></rect><rect x="44" y="84" width="8" height="4" fill="#2E2A26"></rect><rect x="52" y="84" width="24" height="4" fill="#F6F3EC"></rect><rect x="76" y="84" width="8" height="4" fill="#2E2A26"></rect><rect x="84" y="84" width="16" height="4" fill="#6FA6E6"></rect><rect x="32" y="88" width="20" height="4" fill="#6FA6E6"></rect><rect x="52" y="88" width="24" height="4" fill="#2E2A26"></rect><rect x="76" y="88" width="20" height="4" fill="#6FA6E6"></rect><rect x="36" y="92" width="56" height="4" fill="#6FA6E6"></rect><rect x="44" y="96" width="40" height="4" fill="#6FA6E6"></rect></svg>