<svg xmlns="http://www.w3.org/2000/svg" width="128" height="128" viewBox="0 0 128 128" shape-rendering="crispEdges"><rect x="112" y="0" width="4" height="4" fill="#FFD23F"></rect><rect x="84" y="4" width="4" height="4" fill="#f0f"></rect><rect x="40" y="8" width="20" height="4" fill="#FFC24D"></rect><rect x="96" y="8" width="4" height="4" fill="#FFD23F"></rect><rect x="40" y="12" width="20" height="4" fill="#FFC24D"></rect><rect x="96" y="12" width="4" height="4" fill="#FFD23F"></rect><rect x="4" y="16" width="20" height="4" fill="#FFC24D"></rect><rect x="32" y="16" width="16" height="4" fill="#FFC24D"></rect><rect x="48" y="16" width="4" height="4" fill="#2E2A26"></rect><rect x="52" y="16" width="20" height="4" fill="#FFC24D"></rect><rect x="80" y="16" width="8" height="4" fill="#FFC24D"></rect><rect x="88" y="16" width="8" height="4" fill="#FFD23F"></rect><rect x="96" y="16" width="4" height="4" fill="#F2A33C"></rect><rect x="100" y="16" width="8" height="4" fill="#FFD23F"></rect><rect x="4" y="20" width="44" height="4" fill="#FFC24D"></rect><rect x="48" y="20" width="4" height="4" fill="#2E2A26"></rect><rect x="52" y="20" width="44" height="4" fill="#FFC24D"></rect><rect x="96" y="20" width="4" height="4" fill="#FFD23F"></rect><rect x="100" y="20" width="8" height="4" fill="#FFC24D"></rect><rect x="0" y="24" width="12" height="4" fill="#FFC24D"></rect><rect x="12" y="24" width="4" height="4" fill="#2E2A26"></rect><rect x="16" y="24" width="24" height="4" fill="#FFC24D"></rect><rect x="40" y="24" width="8" height="4" fill="#2E2A26"></rect><rect x="48" y="24" width="4" height="4" fill="#F6F3EC"></rect><rect x="52" y="24" width="12" height="4" fill="#2E2A26"></rect><rect x="64" y="24" width="16" height="4" fill="#FFC24D"></rect><rect x="80" y="24" width="4" height="4" fill="#FFD23F"></rect><rect x="84" y="24" width="4" height="4" fill="#FFC24D"></rect><rect x="88" y="24" width="4" height="4" fill="#2E2A26"></rect><rect x="92" y="24" width="4" height="4" fill="#FFC24D"></rect><rect x="96" y="24" width="4" height="4" fill="#FFD23F"></rect><rect x="100" y="24" width="12" height="4" fill="#FFC24D"></rect><rect x="0" y="28" width="12" height="4" fill="#FFC24D"></rect><rect x="12" y="28" width="4" height="4" fill="#2E2A26"></rect><rect x="16" y="28" width="4" height="4" fill="#F6F3EC"></rect><rect x="20" y="28" width="4" height="4" fill="#2E2A26"></rect><rect x="24" y="28" width="12" height="4" fill="#FFC24D"></rect><rect x="36" y="28" width="8" height="4" fill="#2E2A26"></rect><rect x="44" y="28" width="24" height="4" fill="#F6F3EC"></rect><rect x="68" y="28" width="8" height="4" fill="#2E2A26"></rect><rect x="76" y="28" width="12" height="4" fill="#FFC24D"></rect><rect x="88" y="28" width="4" height="4" fill="#2E2A26"></rect><rect x="92" y="28" width="4" height="4" fill="#F6F3EC"></rect><rect x="96" y="28" width="4" height="4" fill="#2E2A26"></rect><rect x="100" y="28" width="12" height="4" fill="#FFC24D"></rect><rect x="0" y="32" width="8" height="4" fill="#FFC24D"></rect><rect x="8" y="32" width="4" height="4" fill="#2E2A26"></rect><rect x="12" y="32" width="12" height="4" fill="#F6F3EC"></rect><rect x="24" y="32" width="4" height="4" fill="#2E2A26"></rect><rect x="28" y="32" width="4" height="4" fill="#FFC24D"></rect><rect x="32" y="32" width="4" height="4" fill="#2E2A26"></rect><rect x="36" y="32" width="40" height="4" fill="#F6F3EC"></rect><rect x="76" y="32" width="4" height="4" fill="#2E2A26"></rect><rect x="80" y="32" width="4" height="4" fill="#FFC24D"></rect><rect x="84" y="32" width="4" height="4" fill="#2E2A26"></rect><rect x="88" y="32" width="12" height="4" fill="#F6F3EC"></rect><rect x="100" y="32" width="4" height="4" fill="#2E2A26"></rect><rect x="104" y="32" width="8" height="4" fill="#FFC24D"></rect><rect x="0" y="36" width="8" height="4" fill="#FFC24D"></rect><rect x="8" y="36" width="4" height="4" fill="#2E2A26"></rect><rect x="12" y="36" width="16" height="4" fill="#F6F3EC"></rect><rect x="28" y="36" width="4" height="4" fill="#2E2A26"></rect><rect x="32" y="36" width="48" height="4" fill="#F6F3EC"></rect><rect x="80" y="36" width="4" height="4" fill="#2E2A26"></rect><rect x="84" y="36" width="16" height="4" fill="#F6F3EC"></rect><rect x="100" y="36" width="4" height="4" fill="#2E2A26"></rect><rect x="104" y="36" width="8" height="4" fill="#FFC24D"></rect><rect x="0" y="40" width="8" height="4" fill="#FFC24D"></rect><rect x="8" y="40" width="4" height="4" fill="#2E2A26"></rect><rect x="12" y="40" width="88" height="4" fill="#F6F3EC"></rect><rect x="100" y="40" width="4" height="4" fill="#2E2A26"></rect><rect x="104" y="40" width="8" height="4" fill="#FFC24D"></rect><rect x="0" y="44" width="8" height="4" fill="#FFC24D"></rect><rect x="8" y="44" width="4" height="4" fill="#2E2A26"></rect><rect x="12" y="44" width="88" height="4" fill="#F6F3EC"></rect><rect x="100" y="44" width="4" height="4" fill="#2E2A26"></rect><rect x="104" y="44" width="8" height="4" fill="#FFC24D"></rect><rect x="0" y="48" width="4" height="4" fill="#FFC24D"></rect><rect x="4" y="48" width="4" height="4" fill="#FFD23F"></rect><rect x="8" y="48" width="4" height="4" fill="#2E2A26"></rect><rect x="12" y="48" width="24" height="4" fill="#F6F3EC"></rect><rect x="36" y="48" width="8" height="4" fill="#2A2622"></rect><rect x="44" y="48" width="24" height="4" fill="#F6F3EC"></rect><rect x="68" y="48" width="8" height="4" fill="#2A2622"></rect><rect x="76" y="48" width="24" height="4" fill="#F6F3EC"></rect><rect x="100" y="48" width="4" height="4" fill="#2E2A26"></rect><rect x="104" y="48" width="8" height="4" fill="#FFC24D"></rect><rect x="0" y="52" width="8" height="4" fill="#FFC24D"></rect><rect x="8" y="52" width="4" height="4" fill="#FFD23F"></rect><rect x="12" y="52" width="24" height="4" fill="#F6F3EC"></rect><rect x="36" y="52" width="8" height="4" fill="#2A2622"></rect><rect x="44" y="52" width="24" height="4" fill="#F6F3EC"></rect><rect x="68" y="52" width="8" height="4" fill="#2A2622"></rect><rect x="76" y="52" width="24" height="4" fill="#F6F3EC"></rect><rect x="100" y="52" width="4" height="4" fill="#2E2A26"></rect><rect x="104" y="52" width="12" height="4" fill="#FFC24D"></rect><rect x="0" y="56" width="8" height="4" fill="#FFC24D"></rect><rect x="8" y="56" width="4" height="4" fill="#2E2A26"></rect><rect x="12" y="56" width="88" height="4" fill="#F6F3EC"></rect><rect x="100" y="56" width="4" height="4" fill="#2E2A26"></rect><rect x="104" y="56" width="12" height="4" fill="#FFC24D"></rect><rect x="0" y="60" width="12" height="4" fill="#FFC24D"></rect><rect x="12" y="60" width="4" height="4" fill="#2E2A26"></rect><rect x="16" y="60" width="40" height="4" fill="#F6F3EC"></rect><rect x="56" y="60" width="8" height="4" fill="#2A2622"></rect><rect x="64" y="60" width="40" height="4" fill="#F6F3EC"></rect><rect x="104" y="60" width="4" height="4" fill="#2E2A26"></rect><rect x="108" y="60" width="8" height="4" fill="#FFC24D"></rect><rect x="0" y="64" width="16" height="4" fill="#FFC24D"></rect><rect x="16" y="64" width="4" height="4" fill="#2E2A26"></rect><rect x="20" y="64" width="4" height="4" fill="#F6F3EC"></rect><rect x="24" y="64" width="8" height="4" fill="#2E2A26"></rect><rect x="32" y="64" width="24" height="4" fill="#F6F3EC"></rect><rect x="56" y="64" width="8" height="4" fill="#2A2622"></rect><rect x="64" y="64" width="24" height="4" fill="#F6F3EC"></rect><rect x="88" y="64" width="8" height="4" fill="#2E2A26"></rect><rect x="96" y="64" width="4" height="4" fill="#F6F3EC"></rect><rect x="100" y="64" width="4" height="4" fill="#2E2A26"></rect><rect x="104" y="64" width="12" height="4" fill="#FFC24D"></rect><rect x="4" y="68" width="16" height="4" fill="#FFC24D"></rect><rect x="20" y="68" width="4" height="4" fill="#2E2A26"></rect><rect x="24" y="68" width="8" height="4" fill="#FFC24D"></rect><rect x="32" y="68" width="4" height="4" fill="#2E2A26"></rect><rect x="36" y="68" width="16" height="4" fill="#F6F3EC"></rect><rect x="52" y="68" width="16" height="4" fill="#2A2622"></rect><rect x="68" y="68" width="16" height="4" fill="#F6F3EC"></rect><rect x="84" y="68" width="4" height="4" fill="#2E2A26"></rect><rect x="88" y="68" width="8" height="4" fill="#FFC24D"></rect><rect x="96" y="68" width="4" height="4" fill="#2E2A26"></rect><rect x="100" y="68" width="16" height="4" fill="#FFC24D"></rect><rect x="8" y="72" width="4" height="4" fill="#FFD23F"></rect><rect x="12" y="72" width="20" height="4" fill="#FFC24D"></rect><rect x="32" y="72" width="4" height="4" fill="#2E2A26"></rect><rect x="36" y="72" width="48" height="4" fill="#F6F3EC"></rect><rect x="84" y="72" width="4" height="4" fill="#2E2A26"></rect><rect x="88" y="72" width="24" height="4" fill="#FFC24D"></rect><rect x="4" y="76" width="4" height="4" fill="#FFD23F"></rect><rect x="12" y="76" width="24" height="4" fill="#FFC24D"></rect><rect x="36" y="76" width="4" height="4" fill="#2E2A26"></rect><rect x="40" y="76" width="40" height="4" fill="#F6F3EC"></rect><rect x="80" y="76" width="4" height="4" fill="#2E2A26"></rect><rect x="84" y="76" width="24" height="4" fill="#FFC24D"></rect><rect x="24" y="80" width="16" height="4" fill="#FFC24D"></rect><rect x="40" y="80" width="8" height="4" fill="#2E2A26"></rect><rect x="48" y="80" width="24" height="4" fill="#F6F3EC"></rect><rect x="72" y="80" width="8" height="4" fill="#2E2A26"></rect><rect x="80" y="80" width="16" height="4" fill="#FFC24D"></rect><rect x="28" y="84" width="20" height="4" fill="#FFC24D"></rect><rect x="48" y="84" width="24" height="4" fill="#2E2A26"></rect><rect x="72" y="84" width="20" height="4" fill="#FFC24D"></rect><rect x="32" y="88" width="56" height="4" fill="#FFC24D"></rect><rect x="40" y="92" width="40" height="4" fill="#FFC24D"></rect></svg>