<svg xmlns="http://www.w3.org/2000/svg" width="128" height="128" viewBox="0 0 128 128" shape-rendering="crispEdges"><rect x="96" y="4" width="8" height="4" fill="#7FD0EE"></rect><rect x="92" y="8" width="4" height="4" fill="#7FD0EE"></rect><rect x="96" y="8" width="8" height="4" fill="#5BD0EE"></rect><rect x="104" y="8" width="4" height="4" fill="#7FD0EE"></rect><rect x="56" y="12" width="36" height="4" fill="#8A93A2"></rect><rect x="92" y="12" width="16" height="4" fill="#5BD0EE"></rect><rect x="48" y="16" width="44" height="4" fill="#8A93A2"></rect><rect x="92" y="16" width="16" height="4" fill="#5BD0EE"></rect><rect x="108" y="16" width="4" height="4" fill="#8A93A2"></rect><rect x="40" y="20" width="24" height="4" fill="#8A93A2"></rect><rect x="64" y="20" width="32" height="4" fill="#7A4A2E"></rect><rect x="96" y="20" width="8" height="4" fill="#5BD0EE"></rect><rect x="104" y="20" width="16" height="4" fill="#8A93A2"></rect><rect x="20" y="24" width="4" height="4" fill="#8A93A2"></rect><rect x="24" y="24" width="4" height="4" fill="#5BD0EE"></rect><rect x="28" y="24" width="28" height="4" fill="#8A93A2"></rect><rect x="56" y="24" width="8" height="4" fill="#7A4A2E"></rect><rect x="64" y="24" width="32" height="4" fill="#B5743C"></rect><rect x="96" y="24" width="8" height="4" fill="#7A4A2E"></rect><rect x="104" y="24" width="16" height="4" fill="#8A93A2"></rect><rect x="20" y="28" width="28" height="4" fill="#8A93A2"></rect><rect x="48" y="28" width="8" height="4" fill="#7A4A2E"></rect><rect x="56" y="28" width="4" height="4" fill="#B5743C"></rect><rect x="60" y="28" width="8" height="4" fill="#D89A5C"></rect><rect x="68" y="28" width="32" height="4" fill="#B5743C"></rect><rect x="100" y="28" width="4" height="4" fill="#8A5526"></rect><rect x="104" y="28" width="8" height="4" fill="#7A4A2E"></rect><rect x="112" y="28" width="8" height="4" fill="#8A93A2"></rect><rect x="20" y="32" width="4" height="4" fill="#5BD0EE"></rect><rect x="24" y="32" width="4" height="4" fill="#8A93A2"></rect><rect x="28" y="32" width="4" height="4" fill="#EA4B36"></rect><rect x="32" y="32" width="4" height="4" fill="#8A93A2"></rect><rect x="36" y="32" width="4" height="4" fill="#EA4B36"></rect><rect x="40" y="32" width="4" height="4" fill="#7A4A2E"></rect><rect x="44" y="32" width="4" height="4" fill="#B5743C"></rect><rect x="48" y="32" width="24" height="4" fill="#D89A5C"></rect><rect x="72" y="32" width="24" height="4" fill="#B5743C"></rect><rect x="96" y="32" width="12" height="4" fill="#8A5526"></rect><rect x="108" y="32" width="4" height="4" fill="#7A4A2E"></rect><rect x="112" y="32" width="8" height="4" fill="#8A93A2"></rect><rect x="20" y="36" width="8" height="4" fill="#8A93A2"></rect><rect x="28" y="36" width="4" height="4" fill="#B62F1F"></rect><rect x="32" y="36" width="4" height="4" fill="#EA4B36"></rect><rect x="36" y="36" width="4" height="4" fill="#B62F1F"></rect><rect x="40" y="36" width="4" height="4" fill="#7A4A2E"></rect><rect x="44" y="36" width="4" height="4" fill="#B5743C"></rect><rect x="48" y="36" width="24" height="4" fill="#D89A5C"></rect><rect x="72" y="36" width="24" height="4" fill="#B5743C"></rect><rect x="96" y="36" width="12" height="4" fill="#8A5526"></rect><rect x="108" y="36" width="4" height="4" fill="#7A4A2E"></rect><rect x="112" y="36" width="8" height="4" fill="#8A93A2"></rect><rect x="20" y="40" width="8" height="4" fill="#8A93A2"></rect><rect x="28" y="40" width="4" height="4" fill="#EA4B36"></rect><rect x="32" y="40" width="4" height="4" fill="#8A93A2"></rect><rect x="36" y="40" width="4" height="4" fill="#EA4B36"></rect><rect x="40" y="40" width="4" height="4" fill="#7A4A2E"></rect><rect x="44" y="40" width="12" height="4" fill="#B5743C"></rect><rect x="56" y="40" width="8" height="4" fill="#D89A5C"></rect><rect x="64" y="40" width="32" height="4" fill="#B5743C"></rect><rect x="96" y="40" width="12" height="4" fill="#8A5526"></rect><rect x="108" y="40" width="4" height="4" fill="#7A4A2E"></rect><rect x="112" y="40" width="8" height="4" fill="#8A93A2"></rect><rect x="20" y="44" width="20" height="4" fill="#8A93A2"></rect><rect x="40" y="44" width="4" height="4" fill="#7A4A2E"></rect><rect x="44" y="44" width="52" height="4" fill="#B5743C"></rect><rect x="96" y="44" width="12" height="4" fill="#8A5526"></rect><rect x="108" y="44" width="4" height="4" fill="#7A4A2E"></rect><rect x="112" y="44" width="8" height="4" fill="#8A93A2"></rect><rect x="20" y="48" width="20" height="4" fill="#8A93A2"></rect><rect x="40" y="48" width="4" height="4" fill="#7A4A2E"></rect><rect x="44" y="48" width="52" height="4" fill="#B5743C"></rect><rect x="96" y="48" width="12" height="4" fill="#8A5526"></rect><rect x="108" y="48" width="4" height="4" fill="#7A4A2E"></rect><rect x="112" y="48" width="8" height="4" fill="#8A93A2"></rect><rect x="28" y="52" width="12" height="4" fill="#8A93A2"></rect><rect x="40" y="52" width="4" height="4" fill="#7A4A2E"></rect><rect x="44" y="52" width="52" height="4" fill="#B5743C"></rect><rect x="96" y="52" width="12" height="4" fill="#8A5526"></rect><rect x="108" y="52" width="4" height="4" fill="#7A4A2E"></rect><rect x="112" y="52" width="8" height="4" fill="#8A93A2"></rect><rect x="28" y="56" width="8" height="4" fill="#8A93A2"></rect><rect x="36" y="56" width="4" height="4" fill="#7A4A2E"></rect><rect x="40" y="56" width="52" height="4" fill="#B5743C"></rect><rect x="92" y="56" width="12" height="4" fill="#8A5526"></rect><rect x="104" y="56" width="4" height="4" fill="#7A4A2E"></rect><rect x="108" y="56" width="12" height="4" fill="#8A93A2"></rect><rect x="28" y="60" width="8" height="4" fill="#8A93A2"></rect><rect x="36" y="60" width="4" height="4" fill="#7A4A2E"></rect><rect x="40" y="60" width="64" height="4" fill="#B5743C"></rect><rect x="104" y="60" width="4" height="4" fill="#7A4A2E"></rect><rect x="108" y="60" width="12" height="4" fill="#8A93A2"></rect><rect x="28" y="64" width="8" height="4" fill="#8A93A2"></rect><rect x="36" y="64" width="4" height="4" fill="#7A4A2E"></rect><rect x="40" y="64" width="8" height="4" fill="#B5743C"></rect><rect x="48" y="64" width="8" height="4" fill="#FBE0C8"></rect><rect x="56" y="64" width="32" height="4" fill="#B5743C"></rect><rect x="88" y="64" width="8" height="4" fill="#FBE0C8"></rect><rect x="96" y="64" width="8" height="4" fill="#B5743C"></rect><rect x="104" y="64" width="4" height="4" fill="#7A4A2E"></rect><rect x="108" y="64" width="8" height="4" fill="#8A93A2"></rect><rect x="28" y="68" width="8" height="4" fill="#8A93A2"></rect><rect x="36" y="68" width="4" height="4" fill="#7A4A2E"></rect><rect x="40" y="68" width="8" height="4" fill="#B5743C"></rect><rect x="48" y="68" width="4" height="4" fill="#2A2622"></rect><rect x="52" y="68" width="4" height="4" fill="#FBE0C8"></rect><rect x="56" y="68" width="4" height="4" fill="#2A2622"></rect><rect x="60" y="68" width="28" height="4" fill="#FBE0C8"></rect><rect x="88" y="68" width="4" height="4" fill="#2A2622"></rect><rect x="92" y="68" width="4" height="4" fill="#FBE0C8"></rect><rect x="96" y="68" width="4" height="4" fill="#2A2622"></rect><rect x="100" y="68" width="4" height="4" fill="#B5743C"></rect><rect x="104" y="68" width="4" height="4" fill="#7A4A2E"></rect><rect x="108" y="68" width="8" height="4" fill="#8A93A2"></rect><rect x="24" y="72" width="12" height="4" fill="#8A93A2"></rect><rect x="36" y="72" width="4" height="4" fill="#7A4A2E"></rect><rect x="40" y="72" width="8" height="4" fill="#B5743C"></rect><rect x="48" y="72" width="4" height="4" fill="#FBE0C8"></rect><rect x="52" y="72" width="4" height="4" fill="#2A2622"></rect><rect x="56" y="72" width="36" height="4" fill="#FBE0C8"></rect><rect x="92" y="72" width="4" height="4" fill="#2A2622"></rect><rect x="96" y="72" width="8" height="4" fill="#B5743C"></rect><rect x="104" y="72" width="4" height="4" fill="#7A4A2E"></rect><rect x="108" y="72" width="8" height="4" fill="#8A93A2"></rect><rect x="20" y="76" width="16" height="4" fill="#8A93A2"></rect><rect x="36" y="76" width="4" height="4" fill="#7A4A2E"></rect><rect x="40" y="76" width="8" height="4" fill="#B5743C"></rect><rect x="48" y="76" width="4" height="4" fill="#2A2622"></rect><rect x="52" y="76" width="4" height="4" fill="#FBE0C8"></rect><rect x="56" y="76" width="4" height="4" fill="#2A2622"></rect><rect x="60" y="76" width="28" height="4" fill="#FBE0C8"></rect><rect x="88" y="76" width="4" height="4" fill="#2A2622"></rect><rect x="92" y="76" width="4" height="4" fill="#FBE0C8"></rect><rect x="96" y="76" width="4" height="4" fill="#2A2622"></rect><rect x="100" y="76" width="4" height="4" fill="#B5743C"></rect><rect x="104" y="76" width="4" height="4" fill="#7A4A2E"></rect><rect x="108" y="76" width="8" height="4" fill="#8A93A2"></rect><rect x="20" y="80" width="12" height="4" fill="#8A93A2"></rect><rect x="32" y="80" width="4" height="4" fill="#7A4A2E"></rect><rect x="36" y="80" width="8" height="4" fill="#B5743C"></rect><rect x="44" y="80" width="48" height="4" fill="#FBE0C8"></rect><rect x="92" y="80" width="8" height="4" fill="#B5743C"></rect><rect x="100" y="80" width="4" height="4" fill="#7A4A2E"></rect><rect x="104" y="80" width="12" height="4" fill="#8A93A2"></rect><rect x="16" y="84" width="12" height="4" fill="#8A93A2"></rect><rect x="28" y="84" width="4" height="4" fill="#7A4A2E"></rect><rect x="32" y="84" width="12" height="4" fill="#B5743C"></rect><rect x="44" y="84" width="48" height="4" fill="#FBE0C8"></rect><rect x="92" y="84" width="12" height="4" fill="#B5743C"></rect><rect x="104" y="84" width="4" height="4" fill="#7A4A2E"></rect><rect x="108" y="84" width="12" height="4" fill="#8A93A2"></rect><rect x="16" y="88" width="12" height="4" fill="#8A93A2"></rect><rect x="28" y="88" width="4" height="4" fill="#7A4A2E"></rect><rect x="32" y="88" width="12" height="4" fill="#B5743C"></rect><rect x="44" y="88" width="16" height="4" fill="#FBE0C8"></rect><rect x="60" y="88" width="4" height="4" fill="#2A2622"></rect><rect x="64" y="88" width="4" height="4" fill="#FBE0C8"></rect><rect x="68" y="88" width="4" height="4" fill="#2A2622"></rect><rect x="72" y="88" width="20" height="4" fill="#FBE0C8"></rect><rect x="92" y="88" width="12" height="4" fill="#B5743C"></rect><rect x="104" y="88" width="4" height="4" fill="#7A4A2E"></rect><rect x="108" y="88" width="12" height="4" fill="#8A93A2"></rect><rect x="16" y="92" width="8" height="4" fill="#8A93A2"></rect><rect x="24" y="92" width="4" height="4" fill="#7A4A2E"></rect><rect x="28" y="92" width="16" height="4" fill="#B5743C"></rect><rect x="44" y="92" width="20" height="4" fill="#FBE0C8"></rect><rect x="64" y="92" width="4" height="4" fill="#2A2622"></rect><rect x="68" y="92" width="4" height="4" fill="#FBE0C8"></rect><rect x="72" y="92" width="4" height="4" fill="#2A2622"></rect><rect x="76" y="92" width="16" height="4" fill="#FBE0C8"></rect><rect x="92" y="92" width="16" height="4" fill="#B5743C"></rect><rect x="108" y="92" width="4" height="4" fill="#7A4A2E"></rect><rect x="112" y="92" width="8" height="4" fill="#8A93A2"></rect><rect x="12" y="96" width="12" height="4" fill="#8A93A2"></rect><rect x="24" y="96" width="4" height="4" fill="#7A4A2E"></rect><rect x="28" y="96" width="16" height="4" fill="#B5743C"></rect><rect x="44" y="96" width="4" height="4" fill="#FBE0C8"></rect><rect x="48" y="96" width="4" height="4" fill="#7A4A2E"></rect><rect x="52" y="96" width="32" height="4" fill="#FBE0C8"></rect><rect x="84" y="96" width="4" height="4" fill="#7A4A2E"></rect><rect x="88" y="96" width="4" height="4" fill="#FBE0C8"></rect><rect x="92" y="96" width="16" height="4" fill="#B5743C"></rect><rect x="108" y="96" width="4" height="4" fill="#7A4A2E"></rect><rect x="112" y="96" width="8" height="4" fill="#8A93A2"></rect><rect x="12" y="100" width="12" height="4" fill="#8A93A2"></rect><rect x="24" y="100" width="4" height="4" fill="#7A4A2E"></rect><rect x="28" y="100" width="16" height="4" fill="#B5743C"></rect><rect x="44" y="100" width="4" height="4" fill="#7A4A2E"></rect><rect x="48" y="100" width="4" height="4" fill="#8A93A2"></rect><rect x="52" y="100" width="32" height="4" fill="#7A4A2E"></rect><rect x="84" y="100" width="4" height="4" fill="#8A93A2"></rect><rect x="88" y="100" width="4" height="4" fill="#7A4A2E"></rect><rect x="92" y="100" width="16" height="4" fill="#B5743C"></rect><rect x="108" y="100" width="4" height="4" fill="#7A4A2E"></rect><rect x="112" y="100" width="8" height="4" fill="#8A93A2"></rect><rect x="12" y="104" width="8" height="4" fill="#8A93A2"></rect><rect x="20" y="104" width="4" height="4" fill="#7A4A2E"></rect><rect x="24" y="104" width="16" height="4" fill="#B5743C"></rect><rect x="40" y="104" width="4" height="4" fill="#7A4A2E"></rect><rect x="44" y="104" width="40" height="4" fill="#8A93A2"></rect><rect x="84" y="104" width="4" height="4" fill="#7A4A2E"></rect><rect x="88" y="104" width="16" height="4" fill="#B5743C"></rect><rect x="104" y="104" width="4" height="4" fill="#7A4A2E"></rect><rect x="108" y="104" width="12" height="4" fill="#8A93A2"></rect><rect x="12" y="108" width="12" height="4" fill="#8A93A2"></rect><rect x="24" y="108" width="4" height="4" fill="#7A4A2E"></rect><rect x="28" y="108" width="8" height="4" fill="#B5743C"></rect><rect x="36" y="108" width="4" height="4" fill="#7A4A2E"></rect><rect x="40" y="108" width="48" height="4" fill="#8A93A2"></rect><rect x="88" y="108" width="4" height="4" fill="#7A4A2E"></rect><rect x="92" y="108" width="8" height="4" fill="#B5743C"></rect><rect x="100" y="108" width="4" height="4" fill="#7A4A2E"></rect><rect x="104" y="108" width="16" height="4" fill="#8A93A2"></rect><rect x="12" y="112" width="12" height="4" fill="#8A93A2"></rect><rect x="24" y="112" width="16" height="4" fill="#7A4A2E"></rect><rect x="40" y="112" width="12" height="4" fill="#8A93A2"></rect><rect x="76" y="112" width="12" height="4" fill="#8A93A2"></rect><rect x="88" y="112" width="16" height="4" fill="#7A4A2E"></rect><rect x="104" y="112" width="12" height="4" fill="#8A93A2"></rect><rect x="16" y="116" width="32" height="4" fill="#8A93A2"></rect><rect x="80" y="116" width="32" height="4" fill="#8A93A2"></rect><rect x="16" y="120" width="32" height="4" fill="#8A93A2"></rect><rect x="80" y="120" width="32" height="4" fill="#8A93A2"></rect></svg>