<svg xmlns="http://www.w3.org/2000/svg" width="128" height="128" viewBox="0 0 128 128" shape-rendering="crispEdges"><rect x="36" y="4" width="48" height="4" fill="#6FA6E6"></rect><rect x="28" y="8" width="64" height="4" fill="#6FA6E6"></rect><rect x="92" y="8" width="16" height="4" fill="#CFE2F8"></rect><rect x="20" y="12" width="24" height="4" fill="#6FA6E6"></rect><rect x="44" y="12" width="32" height="4" fill="#7A4A2E"></rect><rect x="76" y="12" width="24" height="4" fill="#6FA6E6"></rect><rect x="100" y="12" width="16" height="4" fill="#CFE2F8"></rect><rect x="4" y="16" width="32" height="4" fill="#6FA6E6"></rect><rect x="36" y="16" width="8" height="4" fill="#7A4A2E"></rect><rect x="44" y="16" width="32" height="4" fill="#B5743C"></rect><rect x="76" y="16" width="8" height="4" fill="#7A4A2E"></rect><rect x="84" y="16" width="12" height="4" fill="#6FA6E6"></rect><rect x="96" y="16" width="8" height="4" fill="#2A2622"></rect><rect x="104" y="16" width="16" height="4" fill="#CFE2F8"></rect><rect x="4" y="20" width="24" height="4" fill="#6FA6E6"></rect><rect x="28" y="20" width="8" height="4" fill="#7A4A2E"></rect><rect x="36" y="20" width="4" height="4" fill="#B5743C"></rect><rect x="40" y="20" width="8" height="4" fill="#D89A5C"></rect><rect x="48" y="20" width="32" height="4" fill="#B5743C"></rect><rect x="80" y="20" width="4" height="4" fill="#8A5526"></rect><rect x="84" y="20" width="8" height="4" fill="#7A4A2E"></rect><rect x="92" y="20" width="8" height="4" fill="#6FA6E6"></rect><rect x="100" y="20" width="4" height="4" fill="#2A2622"></rect><rect x="104" y="20" width="16" height="4" fill="#CFE2F8"></rect><rect x="4" y="24" width="8" height="4" fill="#6FA6E6"></rect><rect x="12" y="24" width="4" height="4" fill="#EA4B36"></rect><rect x="16" y="24" width="4" height="4" fill="#6FA6E6"></rect><rect x="20" y="24" width="4" height="4" fill="#EA4B36"></rect><rect x="24" y="24" width="4" height="4" fill="#7A4A2E"></rect><rect x="28" y="24" width="4" height="4" fill="#B5743C"></rect><rect x="32" y="24" width="24" height="4" fill="#D89A5C"></rect><rect x="56" y="24" width="24" height="4" fill="#B5743C"></rect><rect x="80" y="24" width="12" height="4" fill="#8A5526"></rect><rect x="92" y="24" width="4" height="4" fill="#7A4A2E"></rect><rect x="96" y="24" width="4" height="4" fill="#6FA6E6"></rect><rect x="100" y="24" width="4" height="4" fill="#2A2622"></rect><rect x="104" y="24" width="20" height="4" fill="#CFE2F8"></rect><rect x="4" y="28" width="8" height="4" fill="#6FA6E6"></rect><rect x="12" y="28" width="4" height="4" fill="#B62F1F"></rect><rect x="16" y="28" width="4" height="4" fill="#EA4B36"></rect><rect x="20" y="28" width="4" height="4" fill="#B62F1F"></rect><rect x="24" y="28" width="4" height="4" fill="#7A4A2E"></rect><rect x="28" y="28" width="4" height="4" fill="#B5743C"></rect><rect x="32" y="28" width="24" height="4" fill="#D89A5C"></rect><rect x="56" y="28" width="24" height="4" fill="#B5743C"></rect><rect x="80" y="28" width="12" height="4" fill="#8A5526"></rect><rect x="92" y="28" width="4" height="4" fill="#7A4A2E"></rect><rect x="96" y="28" width="8" height="4" fill="#6FA6E6"></rect><rect x="104" y="28" width="20" height="4" fill="#CFE2F8"></rect><rect x="4" y="32" width="8" height="4" fill="#6FA6E6"></rect><rect x="12" y="32" width="4" height="4" fill="#EA4B36"></rect><rect x="16" y="32" width="4" height="4" fill="#6FA6E6"></rect><rect x="20" y="32" width="4" height="4" fill="#EA4B36"></rect><rect x="24" y="32" width="4" height="4" fill="#7A4A2E"></rect><rect x="28" y="32" width="12" height="4" fill="#B5743C"></rect><rect x="40" y="32" width="8" height="4" fill="#D89A5C"></rect><rect x="48" y="32" width="32" height="4" fill="#B5743C"></rect><rect x="80" y="32" width="12" height="4" fill="#8A5526"></rect><rect x="92" y="32" width="4" height="4" fill="#7A4A2E"></rect><rect x="96" y="32" width="4" height="4" fill="#6FA6E6"></rect><rect x="100" y="32" width="4" height="4" fill="#2A2622"></rect><rect x="104" y="32" width="20" height="4" fill="#CFE2F8"></rect><rect x="4" y="36" width="20" height="4" fill="#6FA6E6"></rect><rect x="24" y="36" width="4" height="4" fill="#7A4A2E"></rect><rect x="28" y="36" width="52" height="4" fill="#B5743C"></rect><rect x="80" y="36" width="12" height="4" fill="#8A5526"></rect><rect x="92" y="36" width="4" height="4" fill="#7A4A2E"></rect><rect x="96" y="36" width="8" height="4" fill="#6FA6E6"></rect><rect x="104" y="36" width="20" height="4" fill="#CFE2F8"></rect><rect x="4" y="40" width="20" height="4" fill="#6FA6E6"></rect><rect x="24" y="40" width="4" height="4" fill="#7A4A2E"></rect><rect x="28" y="40" width="52" height="4" fill="#B5743C"></rect><rect x="80" y="40" width="12" height="4" fill="#8A5526"></rect><rect x="92" y="40" width="4" height="4" fill="#7A4A2E"></rect><rect x="96" y="40" width="8" height="4" fill="#6FA6E6"></rect><rect x="16" y="44" width="8" height="4" fill="#6FA6E6"></rect><rect x="24" y="44" width="4" height="4" fill="#7A4A2E"></rect><rect x="28" y="44" width="52" height="4" fill="#B5743C"></rect><rect x="80" y="44" width="12" height="4" fill="#8A5526"></rect><rect x="92" y="44" width="4" height="4" fill="#7A4A2E"></rect><rect x="96" y="44" width="8" height="4" fill="#6FA6E6"></rect><rect x="16" y="48" width="8" height="4" fill="#6FA6E6"></rect><rect x="24" y="48" width="4" height="4" fill="#7A4A2E"></rect><rect x="28" y="48" width="48" height="4" fill="#B5743C"></rect><rect x="76" y="48" width="4" height="4" fill="#CFE2F8"></rect><rect x="80" y="48" width="12" height="4" fill="#8A5526"></rect><rect x="92" y="48" width="4" height="4" fill="#7A4A2E"></rect><rect x="96" y="48" width="8" height="4" fill="#6FA6E6"></rect><rect x="16" y="52" width="8" height="4" fill="#6FA6E6"></rect><rect x="24" y="52" width="4" height="4" fill="#7A4A2E"></rect><rect x="28" y="52" width="8" height="4" fill="#B5743C"></rect><rect x="36" y="52" width="8" height="4" fill="#2A2622"></rect><rect x="44" y="52" width="32" height="4" fill="#B5743C"></rect><rect x="76" y="52" width="8" height="4" fill="#2A2622"></rect><rect x="84" y="52" width="8" height="4" fill="#B5743C"></rect><rect x="92" y="52" width="4" height="4" fill="#7A4A2E"></rect><rect x="96" y="52" width="12" height="4" fill="#6FA6E6"></rect><rect x="16" y="56" width="8" height="4" fill="#6FA6E6"></rect><rect x="24" y="56" width="4" height="4" fill="#7A4A2E"></rect><rect x="28" y="56" width="4" height="4" fill="#B5743C"></rect><rect x="32" y="56" width="4" height="4" fill="#2A2622"></rect><rect x="36" y="56" width="4" height="4" fill="#FFFFFF"></rect><rect x="40" y="56" width="4" height="4" fill="#8A4F22"></rect><rect x="44" y="56" width="4" height="4" fill="#2A2622"></rect><rect x="48" y="56" width="20" height="4" fill="#B5743C"></rect><rect x="68" y="56" width="4" height="4" fill="#CFE2F8"></rect><rect x="72" y="56" width="4" height="4" fill="#2A2622"></rect><rect x="76" y="56" width="4" height="4" fill="#FFFFFF"></rect><rect x="80" y="56" width="4" height="4" fill="#8A4F22"></rect><rect x="84" y="56" width="4" height="4" fill="#2A2622"></rect><rect x="88" y="56" width="4" height="4" fill="#B5743C"></rect><rect x="92" y="56" width="4" height="4" fill="#7A4A2E"></rect><rect x="96" y="56" width="12" height="4" fill="#6FA6E6"></rect><rect x="16" y="60" width="12" height="4" fill="#6FA6E6"></rect><rect x="28" y="60" width="4" height="4" fill="#7A4A2E"></rect><rect x="32" y="60" width="4" height="4" fill="#B5743C"></rect><rect x="36" y="60" width="4" height="4" fill="#2A2622"></rect><rect x="40" y="60" width="8" height="4" fill="#8A4F22"></rect><rect x="48" y="60" width="4" height="4" fill="#2A2622"></rect><rect x="52" y="60" width="24" height="4" fill="#FBE0C8"></rect><rect x="76" y="60" width="4" height="4" fill="#2A2622"></rect><rect x="80" y="60" width="8" height="4" fill="#8A4F22"></rect><rect x="88" y="60" width="4" height="4" fill="#2A2622"></rect><rect x="92" y="60" width="4" height="4" fill="#B5743C"></rect><rect x="96" y="60" width="4" height="4" fill="#7A4A2E"></rect><rect x="100" y="60" width="8" height="4" fill="#6FA6E6"></rect><rect x="16" y="64" width="12" height="4" fill="#6FA6E6"></rect><rect x="28" y="64" width="4" height="4" fill="#7A4A2E"></rect><rect x="32" y="64" width="8" height="4" fill="#B5743C"></rect><rect x="40" y="64" width="8" height="4" fill="#2A2622"></rect><rect x="48" y="64" width="32" height="4" fill="#FBE0C8"></rect><rect x="80" y="64" width="8" height="4" fill="#2A2622"></rect><rect x="88" y="64" width="8" height="4" fill="#B5743C"></rect><rect x="96" y="64" width="4" height="4" fill="#7A4A2E"></rect><rect x="100" y="64" width="8" height="4" fill="#6FA6E6"></rect><rect x="16" y="68" width="12" height="4" fill="#6FA6E6"></rect><rect x="28" y="68" width="4" height="4" fill="#7A4A2E"></rect><rect x="32" y="68" width="8" height="4" fill="#B5743C"></rect><rect x="40" y="68" width="48" height="4" fill="#FBE0C8"></rect><rect x="88" y="68" width="8" height="4" fill="#B5743C"></rect><rect x="96" y="68" width="4" height="4" fill="#7A4A2E"></rect><rect x="100" y="68" width="12" height="4" fill="#6FA6E6"></rect><rect x="16" y="72" width="12" height="4" fill="#6FA6E6"></rect><rect x="28" y="72" width="4" height="4" fill="#7A4A2E"></rect><rect x="32" y="72" width="8" height="4" fill="#B5743C"></rect><rect x="40" y="72" width="48" height="4" fill="#FBE0C8"></rect><rect x="88" y="72" width="8" height="4" fill="#B5743C"></rect><rect x="96" y="72" width="4" height="4" fill="#7A4A2E"></rect><rect x="100" y="72" width="12" height="4" fill="#6FA6E6"></rect><rect x="12" y="76" width="12" height="4" fill="#6FA6E6"></rect><rect x="24" y="76" width="4" height="4" fill="#7A4A2E"></rect><rect x="28" y="76" width="12" height="4" fill="#B5743C"></rect><rect x="40" y="76" width="48" height="4" fill="#FBE0C8"></rect><rect x="88" y="76" width="12" height="4" fill="#B5743C"></rect><rect x="100" y="76" width="4" height="4" fill="#7A4A2E"></rect><rect x="104" y="76" width="12" height="4" fill="#6FA6E6"></rect><rect x="12" y="80" width="12" height="4" fill="#6FA6E6"></rect><rect x="24" y="80" width="4" height="4" fill="#7A4A2E"></rect><rect x="28" y="80" width="12" height="4" fill="#B5743C"></rect><rect x="40" y="80" width="20" height="4" fill="#FBE0C8"></rect><rect x="60" y="80" width="8" height="4" fill="#2A2622"></rect><rect x="68" y="80" width="20" height="4" fill="#FBE0C8"></rect><rect x="88" y="80" width="12" height="4" fill="#B5743C"></rect><rect x="100" y="80" width="4" height="4" fill="#7A4A2E"></rect><rect x="104" y="80" width="12" height="4" fill="#6FA6E6"></rect><rect x="12" y="84" width="8" height="4" fill="#6FA6E6"></rect><rect x="20" y="84" width="4" height="4" fill="#7A4A2E"></rect><rect x="24" y="84" width="16" height="4" fill="#B5743C"></rect><rect x="40" y="84" width="48" height="4" fill="#FBE0C8"></rect><rect x="88" y="84" width="16" height="4" fill="#B5743C"></rect><rect x="104" y="84" width="4" height="4" fill="#7A4A2E"></rect><rect x="108" y="84" width="8" height="4" fill="#6FA6E6"></rect><rect x="12" y="88" width="8" height="4" fill="#6FA6E6"></rect><rect x="20" y="88" width="4" height="4" fill="#7A4A2E"></rect><rect x="24" y="88" width="16" height="4" fill="#B5743C"></rect><rect x="40" y="88" width="4" height="4" fill="#FBE0C8"></rect><rect x="44" y="88" width="4" height="4" fill="#7A4A2E"></rect><rect x="48" y="88" width="32" height="4" fill="#FBE0C8"></rect><rect x="80" y="88" width="4" height="4" fill="#7A4A2E"></rect><rect x="84" y="88" width="4" height="4" fill="#FBE0C8"></rect><rect x="88" y="88" width="16" height="4" fill="#B5743C"></rect><rect x="104" y="88" width="4" height="4" fill="#7A4A2E"></rect><rect x="108" y="88" width="8" height="4" fill="#6FA6E6"></rect><rect x="12" y="92" width="8" height="4" fill="#6FA6E6"></rect><rect x="20" y="92" width="4" height="4" fill="#7A4A2E"></rect><rect x="24" y="92" width="16" height="4" fill="#B5743C"></rect><rect x="40" y="92" width="4" height="4" fill="#7A4A2E"></rect><rect x="44" y="92" width="4" height="4" fill="#6FA6E6"></rect><rect x="48" y="92" width="32" height="4" fill="#7A4A2E"></rect><rect x="80" y="92" width="4" height="4" fill="#6FA6E6"></rect><rect x="84" y="92" width="4" height="4" fill="#7A4A2E"></rect><rect x="88" y="92" width="16" height="4" fill="#B5743C"></rect><rect x="104" y="92" width="4" height="4" fill="#7A4A2E"></rect><rect x="108" y="92" width="8" height="4" fill="#6FA6E6"></rect><rect x="12" y="96" width="8" height="4" fill="#6FA6E6"></rect><rect x="20" y="96" width="4" height="4" fill="#7A4A2E"></rect><rect x="24" y="96" width="16" height="4" fill="#B5743C"></rect><rect x="40" y="96" width="4" height="4" fill="#7A4A2E"></rect><rect x="44" y="96" width="40" height="4" fill="#6FA6E6"></rect><rect x="84" y="96" width="4" height="4" fill="#7A4A2E"></rect><rect x="88" y="96" width="16" height="4" fill="#B5743C"></rect><rect x="104" y="96" width="4" height="4" fill="#7A4A2E"></rect><rect x="108" y="96" width="8" height="4" fill="#6FA6E6"></rect><rect x="12" y="100" width="12" height="4" fill="#6FA6E6"></rect><rect x="24" y="100" width="4" height="4" fill="#7A4A2E"></rect><rect x="28" y="100" width="8" height="4" fill="#B5743C"></rect><rect x="36" y="100" width="4" height="4" fill="#7A4A2E"></rect><rect x="40" y="100" width="48" height="4" fill="#6FA6E6"></rect><rect x="88" y="100" width="4" height="4" fill="#7A4A2E"></rect><rect x="92" y="100" width="8" height="4" fill="#B5743C"></rect><rect x="100" y="100" width="4" height="4" fill="#7A4A2E"></rect><rect x="104" y="100" width="12" height="4" fill="#6FA6E6"></rect><rect x="12" y="104" width="12" height="4" fill="#6FA6E6"></rect><rect x="24" y="104" width="16" height="4" fill="#7A4A2E"></rect><rect x="40" y="104" width="12" height="4" fill="#6FA6E6"></rect><rect x="76" y="104" width="12" height="4" fill="#6FA6E6"></rect><rect x="88" y="104" width="16" height="4" fill="#7A4A2E"></rect><rect x="104" y="104" width="12" height="4" fill="#6FA6E6"></rect><rect x="16" y="108" width="32" height="4" fill="#6FA6E6"></rect><rect x="80" y="108" width="32" height="4" fill="#6FA6E6"></rect><rect x="16" y="112" width="32" height="4" fill="#6FA6E6"></rect><rect x="80" y="112" width="32" height="4" fill="#6FA6E6"></rect></svg>