<svg xmlns="http://www.w3.org/2000/svg" width="128" height="128" viewBox="0 0 128 128" shape-rendering="crispEdges"><rect x="32" y="0" width="64" height="4" fill="#FF5A44"></rect><rect x="96" y="0" width="12" height="4" fill="#EA4B36"></rect><rect x="24" y="4" width="24" height="4" fill="#FF5A44"></rect><rect x="48" y="4" width="32" height="4" fill="#6E7488"></rect><rect x="80" y="4" width="16" height="4" fill="#FF5A44"></rect><rect x="96" y="4" width="12" height="4" fill="#EA4B36"></rect><rect x="20" y="8" width="20" height="4" fill="#FF5A44"></rect><rect x="40" y="8" width="8" height="4" fill="#6E7488"></rect><rect x="48" y="8" width="32" height="4" fill="#ECEEF3"></rect><rect x="80" y="8" width="8" height="4" fill="#6E7488"></rect><rect x="88" y="8" width="8" height="4" fill="#FF5A44"></rect><rect x="96" y="8" width="12" height="4" fill="#EA4B36"></rect><rect x="20" y="12" width="12" height="4" fill="#FF5A44"></rect><rect x="32" y="12" width="8" height="4" fill="#6E7488"></rect><rect x="40" y="12" width="4" height="4" fill="#ECEEF3"></rect><rect x="44" y="12" width="8" height="4" fill="#FFFFFF"></rect><rect x="52" y="12" width="36" height="4" fill="#ECEEF3"></rect><rect x="88" y="12" width="8" height="4" fill="#6E7488"></rect><rect x="96" y="12" width="12" height="4" fill="#B62F1F"></rect><rect x="20" y="16" width="8" height="4" fill="#FF5A44"></rect><rect x="28" y="16" width="4" height="4" fill="#6E7488"></rect><rect x="32" y="16" width="4" height="4" fill="#ECEEF3"></rect><rect x="36" y="16" width="24" height="4" fill="#FFFFFF"></rect><rect x="60" y="16" width="28" height="4" fill="#ECEEF3"></rect><rect x="88" y="16" width="8" height="4" fill="#C5CCDA"></rect><rect x="96" y="16" width="12" height="4" fill="#EA4B36"></rect><rect x="20" y="20" width="8" height="4" fill="#FF5A44"></rect><rect x="28" y="20" width="4" height="4" fill="#6E7488"></rect><rect x="32" y="20" width="4" height="4" fill="#ECEEF3"></rect><rect x="36" y="20" width="24" height="4" fill="#FFFFFF"></rect><rect x="60" y="20" width="28" height="4" fill="#ECEEF3"></rect><rect x="88" y="20" width="8" height="4" fill="#C5CCDA"></rect><rect x="96" y="20" width="4" height="4" fill="#6E7488"></rect><rect x="100" y="20" width="8" height="4" fill="#FF5A44"></rect><rect x="20" y="24" width="8" height="4" fill="#FF5A44"></rect><rect x="28" y="24" width="4" height="4" fill="#6E7488"></rect><rect x="32" y="24" width="12" height="4" fill="#ECEEF3"></rect><rect x="44" y="24" width="8" height="4" fill="#FFFFFF"></rect><rect x="52" y="24" width="36" height="4" fill="#ECEEF3"></rect><rect x="88" y="24" width="8" height="4" fill="#C5CCDA"></rect><rect x="96" y="24" width="12" height="4" fill="#EA4B36"></rect><rect x="16" y="28" width="12" height="4" fill="#FF5A44"></rect><rect x="28" y="28" width="8" height="4" fill="#5BD0EE"></rect><rect x="36" y="28" width="52" height="4" fill="#ECEEF3"></rect><rect x="88" y="28" width="8" height="4" fill="#C5CCDA"></rect><rect x="96" y="28" width="12" height="4" fill="#EA4B36"></rect><rect x="108" y="28" width="4" height="4" fill="#FF5A44"></rect><rect x="16" y="32" width="12" height="4" fill="#FF5A44"></rect><rect x="28" y="32" width="4" height="4" fill="#5BD0EE"></rect><rect x="32" y="32" width="56" height="4" fill="#ECEEF3"></rect><rect x="88" y="32" width="8" height="4" fill="#C5CCDA"></rect><rect x="96" y="32" width="4" height="4" fill="#6E7488"></rect><rect x="100" y="32" width="12" height="4" fill="#FF5A44"></rect><rect x="16" y="36" width="8" height="4" fill="#FF5A44"></rect><rect x="24" y="36" width="4" height="4" fill="#6E7488"></rect><rect x="28" y="36" width="60" height="4" fill="#ECEEF3"></rect><rect x="88" y="36" width="12" height="4" fill="#C5CCDA"></rect><rect x="100" y="36" width="4" height="4" fill="#6E7488"></rect><rect x="104" y="36" width="8" height="4" fill="#FF5A44"></rect><rect x="16" y="40" width="8" height="4" fill="#FF5A44"></rect><rect x="24" y="40" width="4" height="4" fill="#6E7488"></rect><rect x="28" y="40" width="8" height="4" fill="#ECEEF3"></rect><rect x="36" y="40" width="16" height="4" fill="#2A2622"></rect><rect x="52" y="40" width="24" height="4" fill="#ECEEF3"></rect><rect x="76" y="40" width="16" height="4" fill="#2A2622"></rect><rect x="92" y="40" width="8" height="4" fill="#C5CCDA"></rect><rect x="100" y="40" width="4" height="4" fill="#6E7488"></rect><rect x="104" y="40" width="8" height="4" fill="#FF5A44"></rect><rect x="16" y="44" width="8" height="4" fill="#FF5A44"></rect><rect x="24" y="44" width="4" height="4" fill="#6E7488"></rect><rect x="28" y="44" width="8" height="4" fill="#ECEEF3"></rect><rect x="36" y="44" width="4" height="4" fill="#2A2622"></rect><rect x="40" y="44" width="4" height="4" fill="#FFFFFF"></rect><rect x="44" y="44" width="4" height="4" fill="#3E78C8"></rect><rect x="48" y="44" width="4" height="4" fill="#2A2622"></rect><rect x="52" y="44" width="24" height="4" fill="#ECEEF3"></rect><rect x="76" y="44" width="4" height="4" fill="#2A2622"></rect><rect x="80" y="44" width="4" height="4" fill="#FFFFFF"></rect><rect x="84" y="44" width="4" height="4" fill="#3E78C8"></rect><rect x="88" y="44" width="4" height="4" fill="#2A2622"></rect><rect x="92" y="44" width="8" height="4" fill="#C5CCDA"></rect><rect x="100" y="44" width="4" height="4" fill="#6E7488"></rect><rect x="104" y="44" width="8" height="4" fill="#FF5A44"></rect><rect x="16" y="48" width="8" height="4" fill="#FF5A44"></rect><rect x="24" y="48" width="4" height="4" fill="#6E7488"></rect><rect x="28" y="48" width="8" height="4" fill="#ECEEF3"></rect><rect x="36" y="48" width="4" height="4" fill="#2A2622"></rect><rect x="40" y="48" width="4" height="4" fill="#3E78C8"></rect><rect x="44" y="48" width="4" height="4" fill="#FFFFFF"></rect><rect x="48" y="48" width="4" height="4" fill="#2A2622"></rect><rect x="52" y="48" width="24" height="4" fill="#ECEEF3"></rect><rect x="76" y="48" width="4" height="4" fill="#2A2622"></rect><rect x="80" y="48" width="4" height="4" fill="#3E78C8"></rect><rect x="84" y="48" width="4" height="4" fill="#FFFFFF"></rect><rect x="88" y="48" width="4" height="4" fill="#2A2622"></rect><rect x="92" y="48" width="8" height="4" fill="#ECEEF3"></rect><rect x="100" y="48" width="4" height="4" fill="#6E7488"></rect><rect x="104" y="48" width="8" height="4" fill="#FF5A44"></rect><rect x="16" y="52" width="8" height="4" fill="#FF5A44"></rect><rect x="24" y="52" width="4" height="4" fill="#6E7488"></rect><rect x="28" y="52" width="8" height="4" fill="#ECEEF3"></rect><rect x="36" y="52" width="4" height="4" fill="#2A2622"></rect><rect x="40" y="52" width="8" height="4" fill="#3E78C8"></rect><rect x="48" y="52" width="4" height="4" fill="#2A2622"></rect><rect x="52" y="52" width="24" height="4" fill="#FBE4D4"></rect><rect x="76" y="52" width="4" height="4" fill="#2A2622"></rect><rect x="80" y="52" width="8" height="4" fill="#3E78C8"></rect><rect x="88" y="52" width="4" height="4" fill="#2A2622"></rect><rect x="92" y="52" width="8" height="4" fill="#ECEEF3"></rect><rect x="100" y="52" width="4" height="4" fill="#6E7488"></rect><rect x="104" y="52" width="8" height="4" fill="#FF5A44"></rect><rect x="16" y="56" width="8" height="4" fill="#FF5A44"></rect><rect x="24" y="56" width="4" height="4" fill="#6E7488"></rect><rect x="28" y="56" width="8" height="4" fill="#ECEEF3"></rect><rect x="36" y="56" width="16" height="4" fill="#2A2622"></rect><rect x="52" y="56" width="24" height="4" fill="#FBE4D4"></rect><rect x="76" y="56" width="16" height="4" fill="#2A2622"></rect><rect x="92" y="56" width="8" height="4" fill="#ECEEF3"></rect><rect x="100" y="56" width="4" height="4" fill="#6E7488"></rect><rect x="104" y="56" width="8" height="4" fill="#FF5A44"></rect><rect x="16" y="60" width="8" height="4" fill="#FF5A44"></rect><rect x="24" y="60" width="4" height="4" fill="#6E7488"></rect><rect x="28" y="60" width="12" height="4" fill="#ECEEF3"></rect><rect x="40" y="60" width="48" height="4" fill="#FBE4D4"></rect><rect x="88" y="60" width="12" height="4" fill="#ECEEF3"></rect><rect x="100" y="60" width="4" height="4" fill="#6E7488"></rect><rect x="104" y="60" width="8" height="4" fill="#FF5A44"></rect><rect x="16" y="64" width="8" height="4" fill="#FF5A44"></rect><rect x="24" y="64" width="4" height="4" fill="#6E7488"></rect><rect x="28" y="64" width="12" height="4" fill="#ECEEF3"></rect><rect x="40" y="64" width="48" height="4" fill="#FBE4D4"></rect><rect x="88" y="64" width="12" height="4" fill="#ECEEF3"></rect><rect x="100" y="64" width="4" height="4" fill="#6E7488"></rect><rect x="104" y="64" width="8" height="4" fill="#FF5A44"></rect><rect x="16" y="68" width="8" height="4" fill="#FF5A44"></rect><rect x="24" y="68" width="4" height="4" fill="#6E7488"></rect><rect x="28" y="68" width="12" height="4" fill="#ECEEF3"></rect><rect x="40" y="68" width="48" height="4" fill="#FBE4D4"></rect><rect x="88" y="68" width="12" height="4" fill="#ECEEF3"></rect><rect x="100" y="68" width="4" height="4" fill="#6E7488"></rect><rect x="104" y="68" width="8" height="4" fill="#FF5A44"></rect><rect x="16" y="72" width="8" height="4" fill="#FF5A44"></rect><rect x="24" y="72" width="4" height="4" fill="#6E7488"></rect><rect x="28" y="72" width="8" height="4" fill="#ECEEF3"></rect><rect x="36" y="72" width="4" height="4" fill="#6E7488"></rect><rect x="40" y="72" width="20" height="4" fill="#FBE4D4"></rect><rect x="60" y="72" width="8" height="4" fill="#2A2622"></rect><rect x="68" y="72" width="20" height="4" fill="#FBE4D4"></rect><rect x="88" y="72" width="4" height="4" fill="#6E7488"></rect><rect x="92" y="72" width="8" height="4" fill="#ECEEF3"></rect><rect x="100" y="72" width="4" height="4" fill="#6E7488"></rect><rect x="104" y="72" width="8" height="4" fill="#FF5A44"></rect><rect x="16" y="76" width="8" height="4" fill="#FF5A44"></rect><rect x="24" y="76" width="4" height="4" fill="#6E7488"></rect><rect x="28" y="76" width="4" height="4" fill="#ECEEF3"></rect><rect x="32" y="76" width="4" height="4" fill="#6E7488"></rect><rect x="36" y="76" width="4" height="4" fill="#FF5A44"></rect><rect x="40" y="76" width="4" height="4" fill="#6E7488"></rect><rect x="44" y="76" width="12" height="4" fill="#FBE4D4"></rect><rect x="56" y="76" width="16" height="4" fill="#2A2622"></rect><rect x="72" y="76" width="12" height="4" fill="#FBE4D4"></rect><rect x="84" y="76" width="4" height="4" fill="#6E7488"></rect><rect x="88" y="76" width="4" height="4" fill="#FF5A44"></rect><rect x="92" y="76" width="4" height="4" fill="#6E7488"></rect><rect x="96" y="76" width="4" height="4" fill="#ECEEF3"></rect><rect x="100" y="76" width="4" height="4" fill="#6E7488"></rect><rect x="104" y="76" width="8" height="4" fill="#FF5A44"></rect><rect x="12" y="80" width="12" height="4" fill="#FF5A44"></rect><rect x="24" y="80" width="4" height="4" fill="#6E7488"></rect><rect x="28" y="80" width="4" height="4" fill="#ECEEF3"></rect><rect x="32" y="80" width="4" height="4" fill="#6E7488"></rect><rect x="36" y="80" width="8" height="4" fill="#FF5A44"></rect><rect x="44" y="80" width="4" height="4" fill="#6E7488"></rect><rect x="48" y="80" width="8" height="4" fill="#FBE4D4"></rect><rect x="56" y="80" width="16" height="4" fill="#2A2622"></rect><rect x="72" y="80" width="8" height="4" fill="#FBE4D4"></rect><rect x="80" y="80" width="4" height="4" fill="#6E7488"></rect><rect x="84" y="80" width="8" height="4" fill="#FF5A44"></rect><rect x="92" y="80" width="4" height="4" fill="#6E7488"></rect><rect x="96" y="80" width="4" height="4" fill="#ECEEF3"></rect><rect x="100" y="80" width="4" height="4" fill="#6E7488"></rect><rect x="104" y="80" width="12" height="4" fill="#FF5A44"></rect><rect x="12" y="84" width="12" height="4" fill="#FF5A44"></rect><rect x="24" y="84" width="4" height="4" fill="#6E7488"></rect><rect x="28" y="84" width="4" height="4" fill="#ECEEF3"></rect><rect x="32" y="84" width="4" height="4" fill="#6E7488"></rect><rect x="36" y="84" width="12" height="4" fill="#FF5A44"></rect><rect x="48" y="84" width="12" height="4" fill="#6E7488"></rect><rect x="60" y="84" width="8" height="4" fill="#2A2622"></rect><rect x="68" y="84" width="12" height="4" fill="#6E7488"></rect><rect x="80" y="84" width="12" height="4" fill="#FF5A44"></rect><rect x="92" y="84" width="4" height="4" fill="#6E7488"></rect><rect x="96" y="84" width="4" height="4" fill="#ECEEF3"></rect><rect x="100" y="84" width="4" height="4" fill="#6E7488"></rect><rect x="104" y="84" width="12" height="4" fill="#FF5A44"></rect><rect x="12" y="88" width="8" height="4" fill="#FF5A44"></rect><rect x="20" y="88" width="4" height="4" fill="#6E7488"></rect><rect x="24" y="88" width="12" height="4" fill="#ECEEF3"></rect><rect x="36" y="88" width="4" height="4" fill="#6E7488"></rect><rect x="40" y="88" width="48" height="4" fill="#FF5A44"></rect><rect x="88" y="88" width="4" height="4" fill="#6E7488"></rect><rect x="92" y="88" width="12" height="4" fill="#ECEEF3"></rect><rect x="104" y="88" width="4" height="4" fill="#6E7488"></rect><rect x="108" y="88" width="8" height="4" fill="#FF5A44"></rect><rect x="12" y="92" width="8" height="4" fill="#FF5A44"></rect><rect x="20" y="92" width="4" height="4" fill="#6E7488"></rect><rect x="24" y="92" width="12" height="4" fill="#ECEEF3"></rect><rect x="36" y="92" width="4" height="4" fill="#6E7488"></rect><rect x="40" y="92" width="48" height="4" fill="#FF5A44"></rect><rect x="88" y="92" width="4" height="4" fill="#6E7488"></rect><rect x="92" y="92" width="12" height="4" fill="#ECEEF3"></rect><rect x="104" y="92" width="4" height="4" fill="#6E7488"></rect><rect x="108" y="92" width="8" height="4" fill="#FF5A44"></rect><rect x="12" y="96" width="8" height="4" fill="#FF5A44"></rect><rect x="20" y="96" width="4" height="4" fill="#6E7488"></rect><rect x="24" y="96" width="12" height="4" fill="#ECEEF3"></rect><rect x="36" y="96" width="4" height="4" fill="#6E7488"></rect><rect x="40" y="96" width="8" height="4" fill="#FF5A44"></rect><rect x="80" y="96" width="8" height="4" fill="#FF5A44"></rect><rect x="88" y="96" width="4" height="4" fill="#6E7488"></rect><rect x="92" y="96" width="12" height="4" fill="#ECEEF3"></rect><rect x="104" y="96" width="4" height="4" fill="#6E7488"></rect><rect x="108" y="96" width="8" height="4" fill="#FF5A44"></rect><rect x="12" y="100" width="8" height="4" fill="#FF5A44"></rect><rect x="20" y="100" width="4" height="4" fill="#6E7488"></rect><rect x="24" y="100" width="12" height="4" fill="#ECEEF3"></rect><rect x="36" y="100" width="4" height="4" fill="#6E7488"></rect><rect x="40" y="100" width="8" height="4" fill="#FF5A44"></rect><rect x="80" y="100" width="8" height="4" fill="#FF5A44"></rect><rect x="88" y="100" width="4" height="4" fill="#6E7488"></rect><rect x="92" y="100" width="12" height="4" fill="#ECEEF3"></rect><rect x="104" y="100" width="4" height="4" fill="#6E7488"></rect><rect x="108" y="100" width="8" height="4" fill="#FF5A44"></rect><rect x="12" y="104" width="8" height="4" fill="#FF5A44"></rect><rect x="20" y="104" width="4" height="4" fill="#6E7488"></rect><rect x="24" y="104" width="12" height="4" fill="#ECEEF3"></rect><rect x="36" y="104" width="4" height="4" fill="#6E7488"></rect><rect x="40" y="104" width="8" height="4" fill="#FF5A44"></rect><rect x="80" y="104" width="8" height="4" fill="#FF5A44"></rect><rect x="88" y="104" width="4" height="4" fill="#6E7488"></rect><rect x="92" y="104" width="12" height="4" fill="#ECEEF3"></rect><rect x="104" y="104" width="4" height="4" fill="#6E7488"></rect><rect x="108" y="104" width="8" height="4" fill="#FF5A44"></rect><rect x="12" y="108" width="8" height="4" fill="#FF5A44"></rect><rect x="20" y="108" width="4" height="4" fill="#6E7488"></rect><rect x="24" y="108" width="12" height="4" fill="#ECEEF3"></rect><rect x="36" y="108" width="4" height="4" fill="#6E7488"></rect><rect x="40" y="108" width="8" height="4" fill="#FF5A44"></rect><rect x="80" y="108" width="8" height="4" fill="#FF5A44"></rect><rect x="88" y="108" width="4" height="4" fill="#6E7488"></rect><rect x="92" y="108" width="12" height="4" fill="#ECEEF3"></rect><rect x="104" y="108" width="4" height="4" fill="#6E7488"></rect><rect x="108" y="108" width="8" height="4" fill="#FF5A44"></rect><rect x="12" y="112" width="12" height="4" fill="#FF5A44"></rect><rect x="24" y="112" width="4" height="4" fill="#6E7488"></rect><rect x="28" y="112" width="4" height="4" fill="#ECEEF3"></rect><rect x="32" y="112" width="4" height="4" fill="#6E7488"></rect><rect x="36" y="112" width="12" height="4" fill="#FF5A44"></rect><rect x="80" y="112" width="12" height="4" fill="#FF5A44"></rect><rect x="92" y="112" width="4" height="4" fill="#6E7488"></rect><rect x="96" y="112" width="4" height="4" fill="#ECEEF3"></rect><rect x="100" y="112" width="4" height="4" fill="#6E7488"></rect><rect x="104" y="112" width="12" height="4" fill="#FF5A44"></rect><rect x="12" y="116" width="16" height="4" fill="#FF5A44"></rect><rect x="28" y="116" width="4" height="4" fill="#6E7488"></rect><rect x="32" y="116" width="16" height="4" fill="#FF5A44"></rect><rect x="80" y="116" width="16" height="4" fill="#FF5A44"></rect><rect x="96" y="116" width="4" height="4" fill="#6E7488"></rect><rect x="100" y="116" width="16" height="4" fill="#FF5A44"></rect><rect x="16" y="120" width="28" height="4" fill="#FF5A44"></rect><rect x="84" y="120" width="28" height="4" fill="#FF5A44"></rect><rect x="20" y="124" width="20" height="4" fill="#FF5A44"></rect><rect x="88" y="124" width="20" height="4" fill="#FF5A44"></rect></svg>