<svg xmlns="http://www.w3.org/2000/svg" width="128" height="128" viewBox="0 0 128 128" shape-rendering="crispEdges"><rect x="112" y="8" width="4" height="4" fill="#FFD23F"></rect><rect x="48" y="12" width="32" height="4" fill="#6E7488"></rect><rect x="108" y="12" width="12" height="4" fill="#FFD23F"></rect><rect x="40" y="16" width="8" height="4" fill="#6E7488"></rect><rect x="48" y="16" width="32" height="4" fill="#ECEEF3"></rect><rect x="80" y="16" width="8" height="4" fill="#6E7488"></rect><rect x="112" y="16" width="4" height="4" fill="#FFD23F"></rect><rect x="32" y="20" width="8" height="4" fill="#6E7488"></rect><rect x="40" y="20" width="4" height="4" fill="#ECEEF3"></rect><rect x="44" y="20" width="8" height="4" fill="#FFFFFF"></rect><rect x="52" y="20" width="36" height="4" fill="#ECEEF3"></rect><rect x="88" y="20" width="8" height="4" fill="#6E7488"></rect><rect x="28" y="24" width="4" height="4" fill="#6E7488"></rect><rect x="32" y="24" width="4" height="4" fill="#ECEEF3"></rect><rect x="36" y="24" width="24" height="4" fill="#FFFFFF"></rect><rect x="60" y="24" width="28" height="4" fill="#ECEEF3"></rect><rect x="88" y="24" width="8" height="4" fill="#C5CCDA"></rect><rect x="96" y="24" width="4" height="4" fill="#6E7488"></rect><rect x="28" y="28" width="4" height="4" fill="#6E7488"></rect><rect x="32" y="28" width="4" height="4" fill="#ECEEF3"></rect><rect x="36" y="28" width="24" height="4" fill="#FFFFFF"></rect><rect x="60" y="28" width="28" height="4" fill="#ECEEF3"></rect><rect x="88" y="28" width="8" height="4" fill="#C5CCDA"></rect><rect x="96" y="28" width="4" height="4" fill="#6E7488"></rect><rect x="28" y="32" width="4" height="4" fill="#6E7488"></rect><rect x="32" y="32" width="12" height="4" fill="#ECEEF3"></rect><rect x="44" y="32" width="8" height="4" fill="#FFFFFF"></rect><rect x="52" y="32" width="36" height="4" fill="#ECEEF3"></rect><rect x="88" y="32" width="8" height="4" fill="#C5CCDA"></rect><rect x="96" y="32" width="4" height="4" fill="#66D98A"></rect><rect x="124" y="32" width="4" height="4" fill="#FF8FB0"></rect><rect x="28" y="36" width="8" height="4" fill="#5BD0EE"></rect><rect x="36" y="36" width="52" height="4" fill="#ECEEF3"></rect><rect x="88" y="36" width="8" height="4" fill="#C5CCDA"></rect><rect x="96" y="36" width="4" height="4" fill="#6E7488"></rect><rect x="28" y="40" width="4" height="4" fill="#5BD0EE"></rect><rect x="32" y="40" width="56" height="4" fill="#ECEEF3"></rect><rect x="88" y="40" width="8" height="4" fill="#C5CCDA"></rect><rect x="96" y="40" width="4" height="4" fill="#6E7488"></rect><rect x="24" y="44" width="4" height="4" fill="#6E7488"></rect><rect x="28" y="44" width="60" height="4" fill="#ECEEF3"></rect><rect x="88" y="44" width="12" height="4" fill="#C5CCDA"></rect><rect x="100" y="44" width="4" height="4" fill="#6E7488"></rect><rect x="24" y="48" width="4" height="4" fill="#6E7488"></rect><rect x="28" y="48" width="60" height="4" fill="#ECEEF3"></rect><rect x="88" y="48" width="12" height="4" fill="#C5CCDA"></rect><rect x="100" y="48" width="4" height="4" fill="#6E7488"></rect><rect x="24" y="52" width="4" height="4" fill="#6E7488"></rect><rect x="28" y="52" width="60" height="4" fill="#ECEEF3"></rect><rect x="88" y="52" width="12" height="4" fill="#C5CCDA"></rect><rect x="100" y="52" width="4" height="4" fill="#6E7488"></rect><rect x="24" y="56" width="4" height="4" fill="#6E7488"></rect><rect x="28" y="56" width="12" height="4" fill="#ECEEF3"></rect><rect x="40" y="56" width="8" height="4" fill="#FBE4D4"></rect><rect x="48" y="56" width="32" height="4" fill="#ECEEF3"></rect><rect x="80" y="56" width="8" height="4" fill="#FBE4D4"></rect><rect x="88" y="56" width="12" height="4" fill="#ECEEF3"></rect><rect x="100" y="56" width="4" height="4" fill="#6E7488"></rect><rect x="24" y="60" width="4" height="4" fill="#6E7488"></rect><rect x="28" y="60" width="12" height="4" fill="#ECEEF3"></rect><rect x="40" y="60" width="8" height="4" fill="#2A2622"></rect><rect x="48" y="60" width="32" height="4" fill="#FBE4D4"></rect><rect x="80" y="60" width="8" height="4" fill="#2A2622"></rect><rect x="88" y="60" width="12" height="4" fill="#ECEEF3"></rect><rect x="100" y="60" width="4" height="4" fill="#6E7488"></rect><rect x="24" y="64" width="4" height="4" fill="#6E7488"></rect><rect x="28" y="64" width="8" height="4" fill="#ECEEF3"></rect><rect x="36" y="64" width="4" height="4" fill="#2A2622"></rect><rect x="40" y="64" width="8" height="4" fill="#FBE4D4"></rect><rect x="48" y="64" width="4" height="4" fill="#2A2622"></rect><rect x="52" y="64" width="24" height="4" fill="#FBE4D4"></rect><rect x="76" y="64" width="4" height="4" fill="#2A2622"></rect><rect x="80" y="64" width="8" height="4" fill="#FBE4D4"></rect><rect x="88" y="64" width="4" height="4" fill="#2A2622"></rect><rect x="92" y="64" width="8" height="4" fill="#ECEEF3"></rect><rect x="100" y="64" width="4" height="4" fill="#6E7488"></rect><rect x="24" y="68" width="4" height="4" fill="#6E7488"></rect><rect x="28" y="68" width="12" height="4" fill="#ECEEF3"></rect><rect x="40" y="68" width="48" height="4" fill="#FBE4D4"></rect><rect x="88" y="68" width="12" height="4" fill="#ECEEF3"></rect><rect x="100" y="68" width="4" height="4" fill="#6E7488"></rect><rect x="24" y="72" width="4" height="4" fill="#6E7488"></rect><rect x="28" y="72" width="4" height="4" fill="#ECEEF3"></rect><rect x="32" y="72" width="8" height="4" fill="#FF8FB0"></rect><rect x="40" y="72" width="48" height="4" fill="#FBE4D4"></rect><rect x="88" y="72" width="4" height="4" fill="#ECEEF3"></rect><rect x="92" y="72" width="8" height="4" fill="#FF8FB0"></rect><rect x="100" y="72" width="4" height="4" fill="#6E7488"></rect><rect x="24" y="76" width="4" height="4" fill="#6E7488"></rect><rect x="28" y="76" width="12" height="4" fill="#ECEEF3"></rect><rect x="40" y="76" width="48" height="4" fill="#FBE4D4"></rect><rect x="88" y="76" width="12" height="4" fill="#ECEEF3"></rect><rect x="100" y="76" width="4" height="4" fill="#6E7488"></rect><rect x="24" y="80" width="4" height="4" fill="#6E7488"></rect><rect x="28" y="80" width="8" height="4" fill="#ECEEF3"></rect><rect x="36" y="80" width="4" height="4" fill="#6E7488"></rect><rect x="40" y="80" width="16" height="4" fill="#FBE4D4"></rect><rect x="56" y="80" width="4" height="4" fill="#2A2622"></rect><rect x="60" y="80" width="8" height="4" fill="#FBE4D4"></rect><rect x="68" y="80" width="4" height="4" fill="#2A2622"></rect><rect x="72" y="80" width="16" height="4" fill="#FBE4D4"></rect><rect x="88" y="80" width="4" height="4" fill="#6E7488"></rect><rect x="92" y="80" width="8" height="4" fill="#ECEEF3"></rect><rect x="100" y="80" width="4" height="4" fill="#6E7488"></rect><rect x="24" y="84" width="4" height="4" fill="#6E7488"></rect><rect x="28" y="84" width="4" height="4" fill="#ECEEF3"></rect><rect x="32" y="84" width="4" height="4" fill="#6E7488"></rect><rect x="40" y="84" width="4" height="4" fill="#6E7488"></rect><rect x="44" y="84" width="16" height="4" fill="#FBE4D4"></rect><rect x="60" y="84" width="8" height="4" fill="#2A2622"></rect><rect x="68" y="84" width="16" height="4" fill="#FBE4D4"></rect><rect x="84" y="84" width="4" height="4" fill="#6E7488"></rect><rect x="92" y="84" width="4" height="4" fill="#6E7488"></rect><rect x="96" y="84" width="4" height="4" fill="#ECEEF3"></rect><rect x="100" y="84" width="4" height="4" fill="#6E7488"></rect><rect x="24" y="88" width="4" height="4" fill="#6E7488"></rect><rect x="28" y="88" width="4" height="4" fill="#ECEEF3"></rect><rect x="32" y="88" width="4" height="4" fill="#6E7488"></rect><rect x="44" y="88" width="4" height="4" fill="#6E7488"></rect><rect x="48" y="88" width="32" height="4" fill="#FBE4D4"></rect><rect x="80" y="88" width="4" height="4" fill="#6E7488"></rect><rect x="92" y="88" width="4" height="4" fill="#6E7488"></rect><rect x="96" y="88" width="4" height="4" fill="#ECEEF3"></rect><rect x="100" y="88" width="4" height="4" fill="#6E7488"></rect><rect x="24" y="92" width="4" height="4" fill="#6E7488"></rect><rect x="28" y="92" width="4" height="4" fill="#ECEEF3"></rect><rect x="32" y="92" width="4" height="4" fill="#6E7488"></rect><rect x="48" y="92" width="32" height="4" fill="#6E7488"></rect><rect x="92" y="92" width="4" height="4" fill="#6E7488"></rect><rect x="96" y="92" width="4" height="4" fill="#ECEEF3"></rect><rect x="100" y="92" width="4" height="4" fill="#6E7488"></rect><rect x="20" y="96" width="4" height="4" fill="#6E7488"></rect><rect x="24" y="96" width="12" height="4" fill="#ECEEF3"></rect><rect x="36" y="96" width="4" height="4" fill="#6E7488"></rect><rect x="88" y="96" width="4" height="4" fill="#6E7488"></rect><rect x="92" y="96" width="12" height="4" fill="#ECEEF3"></rect><rect x="104" y="96" width="4" height="4" fill="#6E7488"></rect><rect x="20" y="100" width="4" height="4" fill="#6E7488"></rect><rect x="24" y="100" width="12" height="4" fill="#ECEEF3"></rect><rect x="36" y="100" width="4" height="4" fill="#6E7488"></rect><rect x="88" y="100" width="4" height="4" fill="#6E7488"></rect><rect x="92" y="100" width="12" height="4" fill="#ECEEF3"></rect><rect x="104" y="100" width="4" height="4" fill="#6E7488"></rect><rect x="20" y="104" width="4" height="4" fill="#6E7488"></rect><rect x="24" y="104" width="12" height="4" fill="#ECEEF3"></rect><rect x="36" y="104" width="4" height="4" fill="#6E7488"></rect><rect x="88" y="104" width="4" height="4" fill="#6E7488"></rect><rect x="92" y="104" width="12" height="4" fill="#ECEEF3"></rect><rect x="104" y="104" width="4" height="4" fill="#6E7488"></rect><rect x="20" y="108" width="4" height="4" fill="#6E7488"></rect><rect x="24" y="108" width="12" height="4" fill="#ECEEF3"></rect><rect x="36" y="108" width="4" height="4" fill="#6E7488"></rect><rect x="88" y="108" width="4" height="4" fill="#6E7488"></rect><rect x="92" y="108" width="12" height="4" fill="#ECEEF3"></rect><rect x="104" y="108" width="4" height="4" fill="#6E7488"></rect><rect x="20" y="112" width="4" height="4" fill="#6E7488"></rect><rect x="24" y="112" width="12" height="4" fill="#ECEEF3"></rect><rect x="36" y="112" width="4" height="4" fill="#6E7488"></rect><rect x="88" y="112" width="4" height="4" fill="#6E7488"></rect><rect x="92" y="112" width="12" height="4" fill="#ECEEF3"></rect><rect x="104" y="112" width="4" height="4" fill="#6E7488"></rect><rect x="20" y="116" width="4" height="4" fill="#6E7488"></rect><rect x="24" y="116" width="12" height="4" fill="#ECEEF3"></rect><rect x="36" y="116" width="4" height="4" fill="#6E7488"></rect><rect x="88" y="116" width="4" height="4" fill="#6E7488"></rect><rect x="92" y="116" width="12" height="4" fill="#ECEEF3"></rect><rect x="104" y="116" width="4" height="4" fill="#6E7488"></rect><rect x="24" y="120" width="4" height="4" fill="#6E7488"></rect><rect x="28" y="120" width="4" height="4" fill="#ECEEF3"></rect><rect x="32" y="120" width="4" height="4" fill="#6E7488"></rect><rect x="92" y="120" width="4" height="4" fill="#6E7488"></rect><rect x="96" y="120" width="4" height="4" fill="#ECEEF3"></rect><rect x="100" y="120" width="4" height="4" fill="#6E7488"></rect><rect x="28" y="124" width="4" height="4" fill="#6E7488"></rect><rect x="96" y="124" width="4" height="4" fill="#6E7488"></rect></svg>