<svg xmlns="http://www.w3.org/2000/svg" width="128" height="128" viewBox="0 0 128 128" shape-rendering="crispEdges"><rect x="108" y="0" width="12" height="4" fill="#4FA8E6"></rect><rect x="112" y="4" width="4" height="4" fill="#4FA8E6"></rect><rect x="108" y="8" width="12" height="4" fill="#4FA8E6"></rect><rect x="48" y="16" width="48" height="4" fill="#46506E"></rect><rect x="96" y="16" width="16" height="4" fill="#4FA8E6"></rect><rect x="40" y="20" width="64" height="4" fill="#46506E"></rect><rect x="104" y="20" width="4" height="4" fill="#4FA8E6"></rect><rect x="32" y="24" width="24" height="4" fill="#46506E"></rect><rect x="56" y="24" width="32" height="4" fill="#6E7488"></rect><rect x="88" y="24" width="12" height="4" fill="#46506E"></rect><rect x="100" y="24" width="4" height="4" fill="#4FA8E6"></rect><rect x="104" y="24" width="8" height="4" fill="#46506E"></rect><rect x="28" y="28" width="20" height="4" fill="#46506E"></rect><rect x="48" y="28" width="8" height="4" fill="#6E7488"></rect><rect x="56" y="28" width="32" height="4" fill="#ECEEF3"></rect><rect x="88" y="28" width="8" height="4" fill="#6E7488"></rect><rect x="96" y="28" width="16" height="4" fill="#4FA8E6"></rect><rect x="112" y="28" width="4" height="4" fill="#46506E"></rect><rect x="28" y="32" width="12" height="4" fill="#46506E"></rect><rect x="40" y="32" width="8" height="4" fill="#6E7488"></rect><rect x="48" y="32" width="4" height="4" fill="#ECEEF3"></rect><rect x="52" y="32" width="8" height="4" fill="#FFFFFF"></rect><rect x="60" y="32" width="36" height="4" fill="#ECEEF3"></rect><rect x="96" y="32" width="8" height="4" fill="#6E7488"></rect><rect x="104" y="32" width="12" height="4" fill="#46506E"></rect><rect x="28" y="36" width="8" height="4" fill="#46506E"></rect><rect x="36" y="36" width="4" height="4" fill="#6E7488"></rect><rect x="40" y="36" width="4" height="4" fill="#ECEEF3"></rect><rect x="44" y="36" width="24" height="4" fill="#FFFFFF"></rect><rect x="68" y="36" width="20" height="4" fill="#ECEEF3"></rect><rect x="88" y="36" width="12" height="4" fill="#4FA8E6"></rect><rect x="100" y="36" width="4" height="4" fill="#C5CCDA"></rect><rect x="104" y="36" width="4" height="4" fill="#6E7488"></rect><rect x="108" y="36" width="8" height="4" fill="#46506E"></rect><rect x="28" y="40" width="8" height="4" fill="#46506E"></rect><rect x="36" y="40" width="4" height="4" fill="#6E7488"></rect><rect x="40" y="40" width="4" height="4" fill="#ECEEF3"></rect><rect x="44" y="40" width="24" height="4" fill="#FFFFFF"></rect><rect x="68" y="40" width="24" height="4" fill="#ECEEF3"></rect><rect x="92" y="40" width="4" height="4" fill="#4FA8E6"></rect><rect x="96" y="40" width="8" height="4" fill="#C5CCDA"></rect><rect x="104" y="40" width="4" height="4" fill="#6E7488"></rect><rect x="108" y="40" width="8" height="4" fill="#46506E"></rect><rect x="28" y="44" width="8" height="4" fill="#46506E"></rect><rect x="36" y="44" width="4" height="4" fill="#6E7488"></rect><rect x="40" y="44" width="12" height="4" fill="#ECEEF3"></rect><rect x="52" y="44" width="8" height="4" fill="#FFFFFF"></rect><rect x="60" y="44" width="28" height="4" fill="#ECEEF3"></rect><rect x="88" y="44" width="12" height="4" fill="#4FA8E6"></rect><rect x="100" y="44" width="4" height="4" fill="#C5CCDA"></rect><rect x="104" y="44" width="4" height="4" fill="#6E7488"></rect><rect x="108" y="44" width="8" height="4" fill="#46506E"></rect><rect x="24" y="48" width="12" height="4" fill="#46506E"></rect><rect x="36" y="48" width="8" height="4" fill="#5BD0EE"></rect><rect x="44" y="48" width="52" height="4" fill="#ECEEF3"></rect><rect x="96" y="48" width="8" height="4" fill="#C5CCDA"></rect><rect x="104" y="48" width="4" height="4" fill="#6E7488"></rect><rect x="108" y="48" width="12" height="4" fill="#46506E"></rect><rect x="24" y="52" width="12" height="4" fill="#46506E"></rect><rect x="36" y="52" width="4" height="4" fill="#5BD0EE"></rect><rect x="40" y="52" width="56" height="4" fill="#ECEEF3"></rect><rect x="96" y="52" width="8" height="4" fill="#C5CCDA"></rect><rect x="104" y="52" width="4" height="4" fill="#6E7488"></rect><rect x="108" y="52" width="12" height="4" fill="#46506E"></rect><rect x="20" y="56" width="12" height="4" fill="#46506E"></rect><rect x="32" y="56" width="4" height="4" fill="#6E7488"></rect><rect x="36" y="56" width="60" height="4" fill="#ECEEF3"></rect><rect x="96" y="56" width="12" height="4" fill="#C5CCDA"></rect><rect x="108" y="56" width="4" height="4" fill="#6E7488"></rect><rect x="112" y="56" width="8" height="4" fill="#46506E"></rect><rect x="20" y="60" width="12" height="4" fill="#46506E"></rect><rect x="32" y="60" width="4" height="4" fill="#6E7488"></rect><rect x="36" y="60" width="60" height="4" fill="#ECEEF3"></rect><rect x="96" y="60" width="12" height="4" fill="#C5CCDA"></rect><rect x="108" y="60" width="4" height="4" fill="#6E7488"></rect><rect x="112" y="60" width="8" height="4" fill="#46506E"></rect><rect x="20" y="64" width="8" height="4" fill="#46506E"></rect><rect x="28" y="64" width="4" height="4" fill="#6E7488"></rect><rect x="32" y="64" width="60" height="4" fill="#ECEEF3"></rect><rect x="92" y="64" width="12" height="4" fill="#C5CCDA"></rect><rect x="104" y="64" width="4" height="4" fill="#6E7488"></rect><rect x="108" y="64" width="12" height="4" fill="#46506E"></rect><rect x="20" y="68" width="8" height="4" fill="#46506E"></rect><rect x="28" y="68" width="4" height="4" fill="#6E7488"></rect><rect x="32" y="68" width="12" height="4" fill="#ECEEF3"></rect><rect x="44" y="68" width="8" height="4" fill="#FBE4D4"></rect><rect x="52" y="68" width="32" height="4" fill="#ECEEF3"></rect><rect x="84" y="68" width="8" height="4" fill="#FBE4D4"></rect><rect x="92" y="68" width="12" height="4" fill="#ECEEF3"></rect><rect x="104" y="68" width="4" height="4" fill="#6E7488"></rect><rect x="108" y="68" width="12" height="4" fill="#46506E"></rect><rect x="20" y="72" width="8" height="4" fill="#46506E"></rect><rect x="28" y="72" width="4" height="4" fill="#6E7488"></rect><rect x="32" y="72" width="12" height="4" fill="#ECEEF3"></rect><rect x="44" y="72" width="48" height="4" fill="#FBE4D4"></rect><rect x="92" y="72" width="12" height="4" fill="#ECEEF3"></rect><rect x="104" y="72" width="4" height="4" fill="#6E7488"></rect><rect x="108" y="72" width="8" height="4" fill="#46506E"></rect><rect x="20" y="76" width="8" height="4" fill="#46506E"></rect><rect x="28" y="76" width="4" height="4" fill="#6E7488"></rect><rect x="32" y="76" width="8" height="4" fill="#ECEEF3"></rect><rect x="40" y="76" width="16" height="4" fill="#2A2622"></rect><rect x="56" y="76" width="24" height="4" fill="#FBE4D4"></rect><rect x="80" y="76" width="16" height="4" fill="#2A2622"></rect><rect x="96" y="76" width="8" height="4" fill="#ECEEF3"></rect><rect x="104" y="76" width="4" height="4" fill="#6E7488"></rect><rect x="108" y="76" width="8" height="4" fill="#46506E"></rect><rect x="20" y="80" width="8" height="4" fill="#46506E"></rect><rect x="28" y="80" width="4" height="4" fill="#6E7488"></rect><rect x="32" y="80" width="12" height="4" fill="#ECEEF3"></rect><rect x="44" y="80" width="8" height="4" fill="#2A2622"></rect><rect x="52" y="80" width="32" height="4" fill="#FBE4D4"></rect><rect x="84" y="80" width="8" height="4" fill="#2A2622"></rect><rect x="92" y="80" width="12" height="4" fill="#ECEEF3"></rect><rect x="104" y="80" width="4" height="4" fill="#6E7488"></rect><rect x="108" y="80" width="8" height="4" fill="#46506E"></rect><rect x="20" y="84" width="8" height="4" fill="#46506E"></rect><rect x="28" y="84" width="4" height="4" fill="#6E7488"></rect><rect x="32" y="84" width="12" height="4" fill="#ECEEF3"></rect><rect x="44" y="84" width="48" height="4" fill="#FBE4D4"></rect><rect x="92" y="84" width="12" height="4" fill="#ECEEF3"></rect><rect x="104" y="84" width="4" height="4" fill="#6E7488"></rect><rect x="108" y="84" width="8" height="4" fill="#46506E"></rect><rect x="20" y="88" width="8" height="4" fill="#46506E"></rect><rect x="28" y="88" width="4" height="4" fill="#6E7488"></rect><rect x="32" y="88" width="12" height="4" fill="#ECEEF3"></rect><rect x="44" y="88" width="48" height="4" fill="#FBE4D4"></rect><rect x="92" y="88" width="12" height="4" fill="#ECEEF3"></rect><rect x="104" y="88" width="4" height="4" fill="#6E7488"></rect><rect x="108" y="88" width="8" height="4" fill="#46506E"></rect><rect x="20" y="92" width="8" height="4" fill="#46506E"></rect><rect x="28" y="92" width="4" height="4" fill="#6E7488"></rect><rect x="32" y="92" width="8" height="4" fill="#ECEEF3"></rect><rect x="40" y="92" width="4" height="4" fill="#6E7488"></rect><rect x="44" y="92" width="20" height="4" fill="#FBE4D4"></rect><rect x="64" y="92" width="8" height="4" fill="#2A2622"></rect><rect x="72" y="92" width="20" height="4" fill="#FBE4D4"></rect><rect x="92" y="92" width="4" height="4" fill="#6E7488"></rect><rect x="96" y="92" width="8" height="4" fill="#ECEEF3"></rect><rect x="104" y="92" width="4" height="4" fill="#6E7488"></rect><rect x="108" y="92" width="8" height="4" fill="#46506E"></rect><rect x="16" y="96" width="12" height="4" fill="#46506E"></rect><rect x="28" y="96" width="4" height="4" fill="#6E7488"></rect><rect x="32" y="96" width="4" height="4" fill="#ECEEF3"></rect><rect x="36" y="96" width="4" height="4" fill="#6E7488"></rect><rect x="40" y="96" width="4" height="4" fill="#46506E"></rect><rect x="44" y="96" width="4" height="4" fill="#6E7488"></rect><rect x="48" y="96" width="40" height="4" fill="#FBE4D4"></rect><rect x="88" y="96" width="4" height="4" fill="#6E7488"></rect><rect x="92" y="96" width="4" height="4" fill="#46506E"></rect><rect x="96" y="96" width="4" height="4" fill="#6E7488"></rect><rect x="100" y="96" width="4" height="4" fill="#ECEEF3"></rect><rect x="104" y="96" width="4" height="4" fill="#6E7488"></rect><rect x="108" y="96" width="8" height="4" fill="#46506E"></rect><rect x="12" y="100" width="16" height="4" fill="#46506E"></rect><rect x="28" y="100" width="4" height="4" fill="#6E7488"></rect><rect x="32" y="100" width="4" height="4" fill="#ECEEF3"></rect><rect x="36" y="100" width="4" height="4" fill="#6E7488"></rect><rect x="40" y="100" width="8" height="4" fill="#46506E"></rect><rect x="48" y="100" width="4" height="4" fill="#6E7488"></rect><rect x="52" y="100" width="32" height="4" fill="#FBE4D4"></rect><rect x="84" y="100" width="4" height="4" fill="#6E7488"></rect><rect x="88" y="100" width="8" height="4" fill="#46506E"></rect><rect x="96" y="100" width="4" height="4" fill="#6E7488"></rect><rect x="100" y="100" width="4" height="4" fill="#ECEEF3"></rect><rect x="104" y="100" width="4" height="4" fill="#6E7488"></rect><rect x="108" y="100" width="8" height="4" fill="#46506E"></rect><rect x="12" y="104" width="12" height="4" fill="#46506E"></rect><rect x="24" y="104" width="4" height="4" fill="#6E7488"></rect><rect x="28" y="104" width="4" height="4" fill="#ECEEF3"></rect><rect x="32" y="104" width="4" height="4" fill="#6E7488"></rect><rect x="36" y="104" width="12" height="4" fill="#46506E"></rect><rect x="48" y="104" width="32" height="4" fill="#6E7488"></rect><rect x="80" y="104" width="12" height="4" fill="#46506E"></rect><rect x="92" y="104" width="4" height="4" fill="#6E7488"></rect><rect x="96" y="104" width="4" height="4" fill="#ECEEF3"></rect><rect x="100" y="104" width="4" height="4" fill="#6E7488"></rect><rect x="104" y="104" width="12" height="4" fill="#46506E"></rect><rect x="12" y="108" width="8" height="4" fill="#46506E"></rect><rect x="20" y="108" width="4" height="4" fill="#6E7488"></rect><rect x="24" y="108" width="12" height="4" fill="#ECEEF3"></rect><rect x="36" y="108" width="4" height="4" fill="#6E7488"></rect><rect x="40" y="108" width="48" height="4" fill="#46506E"></rect><rect x="88" y="108" width="4" height="4" fill="#6E7488"></rect><rect x="92" y="108" width="12" height="4" fill="#ECEEF3"></rect><rect x="104" y="108" width="4" height="4" fill="#6E7488"></rect><rect x="108" y="108" width="8" height="4" fill="#46506E"></rect><rect x="12" y="112" width="8" height="4" fill="#46506E"></rect><rect x="20" y="112" width="4" height="4" fill="#6E7488"></rect><rect x="24" y="112" width="12" height="4" fill="#ECEEF3"></rect><rect x="36" y="112" width="4" height="4" fill="#6E7488"></rect><rect x="40" y="112" width="48" height="4" fill="#46506E"></rect><rect x="88" y="112" width="4" height="4" fill="#6E7488"></rect><rect x="92" y="112" width="12" height="4" fill="#ECEEF3"></rect><rect x="104" y="112" width="4" height="4" fill="#6E7488"></rect><rect x="108" y="112" width="8" height="4" fill="#46506E"></rect><rect x="12" y="116" width="8" height="4" fill="#46506E"></rect><rect x="20" y="116" width="4" height="4" fill="#6E7488"></rect><rect x="24" y="116" width="12" height="4" fill="#ECEEF3"></rect><rect x="36" y="116" width="4" height="4" fill="#6E7488"></rect><rect x="40" y="116" width="8" height="4" fill="#46506E"></rect><rect x="80" y="116" width="8" height="4" fill="#46506E"></rect><rect x="88" y="116" width="4" height="4" fill="#6E7488"></rect><rect x="92" y="116" width="12" height="4" fill="#ECEEF3"></rect><rect x="104" y="116" width="4" height="4" fill="#6E7488"></rect><rect x="108" y="116" width="8" height="4" fill="#46506E"></rect><rect x="12" y="120" width="8" height="4" fill="#46506E"></rect><rect x="20" y="120" width="4" height="4" fill="#6E7488"></rect><rect x="24" y="120" width="12" height="4" fill="#ECEEF3"></rect><rect x="36" y="120" width="4" height="4" fill="#6E7488"></rect><rect x="40" y="120" width="8" height="4" fill="#46506E"></rect><rect x="80" y="120" width="8" height="4" fill="#46506E"></rect><rect x="88" y="120" width="4" height="4" fill="#6E7488"></rect><rect x="92" y="120" width="12" height="4" fill="#ECEEF3"></rect><rect x="104" y="120" width="4" height="4" fill="#6E7488"></rect><rect x="108" y="120" width="8" height="4" fill="#46506E"></rect><rect x="12" y="124" width="8" height="4" fill="#46506E"></rect><rect x="20" y="124" width="4" height="4" fill="#6E7488"></rect><rect x="24" y="124" width="12" height="4" fill="#ECEEF3"></rect><rect x="36" y="124" width="4" height="4" fill="#6E7488"></rect><rect x="40" y="124" width="8" height="4" fill="#46506E"></rect><rect x="80" y="124" width="8" height="4" fill="#46506E"></rect><rect x="88" y="124" width="4" height="4" fill="#6E7488"></rect><rect x="92" y="124" width="12" height="4" fill="#ECEEF3"></rect><rect x="104" y="124" width="4" height="4" fill="#6E7488"></rect><rect x="108" y="124" width="8" height="4" fill="#46506E"></rect></svg>