<svg xmlns="http://www.w3.org/2000/svg" width="128" height="128" viewBox="0 0 128 128" shape-rendering="crispEdges"><rect x="28" y="0" width="48" height="4" fill="#FFC24D"></rect><rect x="112" y="0" width="4" height="4" fill="#FFD23F"></rect><rect x="20" y="4" width="64" height="4" fill="#FFC24D"></rect><rect x="84" y="4" width="4" height="4" fill="#f0f"></rect><rect x="12" y="8" width="24" height="4" fill="#FFC24D"></rect><rect x="36" y="8" width="32" height="4" fill="#6E7488"></rect><rect x="68" y="8" width="24" height="4" fill="#FFC24D"></rect><rect x="96" y="8" width="4" height="4" fill="#FFD23F"></rect><rect x="8" y="12" width="20" height="4" fill="#FFC24D"></rect><rect x="28" y="12" width="8" height="4" fill="#6E7488"></rect><rect x="36" y="12" width="32" height="4" fill="#ECEEF3"></rect><rect x="68" y="12" width="8" height="4" fill="#6E7488"></rect><rect x="76" y="12" width="20" height="4" fill="#FFC24D"></rect><rect x="96" y="12" width="4" height="4" fill="#FFD23F"></rect><rect x="8" y="16" width="12" height="4" fill="#FFC24D"></rect><rect x="20" y="16" width="8" height="4" fill="#6E7488"></rect><rect x="28" y="16" width="4" height="4" fill="#ECEEF3"></rect><rect x="32" y="16" width="8" height="4" fill="#FFFFFF"></rect><rect x="40" y="16" width="36" height="4" fill="#ECEEF3"></rect><rect x="76" y="16" width="8" height="4" fill="#6E7488"></rect><rect x="84" y="16" width="4" height="4" fill="#FFC24D"></rect><rect x="88" y="16" width="8" height="4" fill="#FFD23F"></rect><rect x="96" y="16" width="4" height="4" fill="#F2A33C"></rect><rect x="100" y="16" width="8" height="4" fill="#FFD23F"></rect><rect x="8" y="20" width="8" height="4" fill="#FFC24D"></rect><rect x="16" y="20" width="4" height="4" fill="#6E7488"></rect><rect x="20" y="20" width="4" height="4" fill="#ECEEF3"></rect><rect x="24" y="20" width="24" height="4" fill="#FFFFFF"></rect><rect x="48" y="20" width="28" height="4" fill="#ECEEF3"></rect><rect x="76" y="20" width="8" height="4" fill="#C5CCDA"></rect><rect x="84" y="20" width="4" height="4" fill="#6E7488"></rect><rect x="88" y="20" width="8" height="4" fill="#FFC24D"></rect><rect x="96" y="20" width="4" height="4" fill="#FFD23F"></rect><rect x="8" y="24" width="8" height="4" fill="#FFC24D"></rect><rect x="16" y="24" width="4" height="4" fill="#6E7488"></rect><rect x="20" y="24" width="4" height="4" fill="#ECEEF3"></rect><rect x="24" y="24" width="24" height="4" fill="#FFFFFF"></rect><rect x="48" y="24" width="28" height="4" fill="#ECEEF3"></rect><rect x="76" y="24" width="4" height="4" fill="#C5CCDA"></rect><rect x="80" y="24" width="4" height="4" fill="#FFD23F"></rect><rect x="84" y="24" width="4" height="4" fill="#6E7488"></rect><rect x="88" y="24" width="8" height="4" fill="#FFC24D"></rect><rect x="96" y="24" width="4" height="4" fill="#FFD23F"></rect><rect x="8" y="28" width="12" height="4" fill="#FFC24D"></rect><rect x="20" y="28" width="4" height="4" fill="#6E7488"></rect><rect x="24" y="28" width="12" height="4" fill="#ECEEF3"></rect><rect x="36" y="28" width="8" height="4" fill="#FFFFFF"></rect><rect x="44" y="28" width="36" height="4" fill="#ECEEF3"></rect><rect x="80" y="28" width="8" height="4" fill="#C5CCDA"></rect><rect x="88" y="28" width="4" height="4" fill="#6E7488"></rect><rect x="92" y="28" width="8" height="4" fill="#FFC24D"></rect><rect x="8" y="32" width="12" height="4" fill="#FFC24D"></rect><rect x="20" y="32" width="8" height="4" fill="#5BD0EE"></rect><rect x="28" y="32" width="52" height="4" fill="#ECEEF3"></rect><rect x="80" y="32" width="8" height="4" fill="#C5CCDA"></rect><rect x="88" y="32" width="4" height="4" fill="#6E7488"></rect><rect x="92" y="32" width="12" height="4" fill="#FFC24D"></rect><rect x="8" y="36" width="12" height="4" fill="#FFC24D"></rect><rect x="20" y="36" width="4" height="4" fill="#5BD0EE"></rect><rect x="24" y="36" width="56" height="4" fill="#ECEEF3"></rect><rect x="80" y="36" width="8" height="4" fill="#C5CCDA"></rect><rect x="88" y="36" width="4" height="4" fill="#6E7488"></rect><rect x="92" y="36" width="12" height="4" fill="#FFC24D"></rect><rect x="8" y="40" width="8" height="4" fill="#FFC24D"></rect><rect x="16" y="40" width="4" height="4" fill="#6E7488"></rect><rect x="20" y="40" width="60" height="4" fill="#ECEEF3"></rect><rect x="80" y="40" width="12" height="4" fill="#C5CCDA"></rect><rect x="92" y="40" width="4" height="4" fill="#6E7488"></rect><rect x="96" y="40" width="8" height="4" fill="#FFC24D"></rect><rect x="8" y="44" width="8" height="4" fill="#FFC24D"></rect><rect x="16" y="44" width="4" height="4" fill="#6E7488"></rect><rect x="20" y="44" width="60" height="4" fill="#ECEEF3"></rect><rect x="80" y="44" width="12" height="4" fill="#C5CCDA"></rect><rect x="92" y="44" width="4" height="4" fill="#6E7488"></rect><rect x="96" y="44" width="8" height="4" fill="#FFC24D"></rect><rect x="4" y="48" width="4" height="4" fill="#FFD23F"></rect><rect x="8" y="48" width="8" height="4" fill="#FFC24D"></rect><rect x="16" y="48" width="4" height="4" fill="#6E7488"></rect><rect x="20" y="48" width="60" height="4" fill="#ECEEF3"></rect><rect x="80" y="48" width="12" height="4" fill="#C5CCDA"></rect><rect x="92" y="48" width="4" height="4" fill="#6E7488"></rect><rect x="96" y="48" width="8" height="4" fill="#FFC24D"></rect><rect x="8" y="52" width="4" height="4" fill="#FFD23F"></rect><rect x="12" y="52" width="4" height="4" fill="#FFC24D"></rect><rect x="16" y="52" width="4" height="4" fill="#6E7488"></rect><rect x="20" y="52" width="8" height="4" fill="#ECEEF3"></rect><rect x="28" y="52" width="12" height="4" fill="#2A2622"></rect><rect x="40" y="52" width="32" height="4" fill="#ECEEF3"></rect><rect x="72" y="52" width="12" height="4" fill="#2A2622"></rect><rect x="84" y="52" width="8" height="4" fill="#ECEEF3"></rect><rect x="92" y="52" width="4" height="4" fill="#6E7488"></rect><rect x="96" y="52" width="12" height="4" fill="#FFC24D"></rect><rect x="8" y="56" width="8" height="4" fill="#FFC24D"></rect><rect x="16" y="56" width="4" height="4" fill="#6E7488"></rect><rect x="20" y="56" width="8" height="4" fill="#ECEEF3"></rect><rect x="28" y="56" width="4" height="4" fill="#2A2622"></rect><rect x="32" y="56" width="4" height="4" fill="#FFFFFF"></rect><rect x="36" y="56" width="4" height="4" fill="#3E78C8"></rect><rect x="40" y="56" width="4" height="4" fill="#2A2622"></rect><rect x="44" y="56" width="24" height="4" fill="#FBE4D4"></rect><rect x="68" y="56" width="4" height="4" fill="#2A2622"></rect><rect x="72" y="56" width="4" height="4" fill="#3E78C8"></rect><rect x="76" y="56" width="4" height="4" fill="#FFFFFF"></rect><rect x="80" y="56" width="4" height="4" fill="#2A2622"></rect><rect x="84" y="56" width="8" height="4" fill="#ECEEF3"></rect><rect x="92" y="56" width="4" height="4" fill="#6E7488"></rect><rect x="96" y="56" width="12" height="4" fill="#FFC24D"></rect><rect x="8" y="60" width="12" height="4" fill="#FFC24D"></rect><rect x="20" y="60" width="4" height="4" fill="#6E7488"></rect><rect x="24" y="60" width="12" height="4" fill="#ECEEF3"></rect><rect x="36" y="60" width="8" height="4" fill="#2A2622"></rect><rect x="44" y="60" width="32" height="4" fill="#FBE4D4"></rect><rect x="76" y="60" width="8" height="4" fill="#2A2622"></rect><rect x="84" y="60" width="12" height="4" fill="#ECEEF3"></rect><rect x="96" y="60" width="4" height="4" fill="#6E7488"></rect><rect x="100" y="60" width="8" height="4" fill="#FFC24D"></rect><rect x="8" y="64" width="12" height="4" fill="#FFC24D"></rect><rect x="20" y="64" width="4" height="4" fill="#6E7488"></rect><rect x="24" y="64" width="12" height="4" fill="#ECEEF3"></rect><rect x="36" y="64" width="48" height="4" fill="#FBE4D4"></rect><rect x="84" y="64" width="12" height="4" fill="#ECEEF3"></rect><rect x="96" y="64" width="4" height="4" fill="#6E7488"></rect><rect x="100" y="64" width="8" height="4" fill="#FFC24D"></rect><rect x="12" y="68" width="8" height="4" fill="#FFC24D"></rect><rect x="20" y="68" width="4" height="4" fill="#6E7488"></rect><rect x="24" y="68" width="12" height="4" fill="#ECEEF3"></rect><rect x="36" y="68" width="48" height="4" fill="#FBE4D4"></rect><rect x="84" y="68" width="12" height="4" fill="#ECEEF3"></rect><rect x="96" y="68" width="4" height="4" fill="#6E7488"></rect><rect x="100" y="68" width="8" height="4" fill="#FFC24D"></rect><rect x="8" y="72" width="4" height="4" fill="#FFD23F"></rect><rect x="12" y="72" width="8" height="4" fill="#FFC24D"></rect><rect x="20" y="72" width="4" height="4" fill="#6E7488"></rect><rect x="24" y="72" width="12" height="4" fill="#ECEEF3"></rect><rect x="36" y="72" width="48" height="4" fill="#FBE4D4"></rect><rect x="84" y="72" width="12" height="4" fill="#ECEEF3"></rect><rect x="96" y="72" width="4" height="4" fill="#6E7488"></rect><rect x="100" y="72" width="8" height="4" fill="#FFC24D"></rect><rect x="4" y="76" width="4" height="4" fill="#FFD23F"></rect><rect x="12" y="76" width="8" height="4" fill="#FFC24D"></rect><rect x="20" y="76" width="4" height="4" fill="#6E7488"></rect><rect x="24" y="76" width="8" height="4" fill="#ECEEF3"></rect><rect x="32" y="76" width="4" height="4" fill="#6E7488"></rect><rect x="36" y="76" width="20" height="4" fill="#FBE4D4"></rect><rect x="56" y="76" width="12" height="4" fill="#2A2622"></rect><rect x="68" y="76" width="16" height="4" fill="#FBE4D4"></rect><rect x="84" y="76" width="4" height="4" fill="#6E7488"></rect><rect x="88" y="76" width="8" height="4" fill="#ECEEF3"></rect><rect x="96" y="76" width="4" height="4" fill="#6E7488"></rect><rect x="100" y="76" width="8" height="4" fill="#FFC24D"></rect><rect x="12" y="80" width="8" height="4" fill="#FFC24D"></rect><rect x="20" y="80" width="4" height="4" fill="#6E7488"></rect><rect x="24" y="80" width="4" height="4" fill="#ECEEF3"></rect><rect x="28" y="80" width="4" height="4" fill="#6E7488"></rect><rect x="32" y="80" width="4" height="4" fill="#FFC24D"></rect><rect x="36" y="80" width="4" height="4" fill="#6E7488"></rect><rect x="40" y="80" width="40" height="4" fill="#FBE4D4"></rect><rect x="80" y="80" width="4" height="4" fill="#6E7488"></rect><rect x="84" y="80" width="4" height="4" fill="#FFC24D"></rect><rect x="88" y="80" width="4" height="4" fill="#6E7488"></rect><rect x="92" y="80" width="4" height="4" fill="#ECEEF3"></rect><rect x="96" y="80" width="4" height="4" fill="#6E7488"></rect><rect x="100" y="80" width="8" height="4" fill="#FFC24D"></rect><rect x="12" y="84" width="8" height="4" fill="#FFC24D"></rect><rect x="20" y="84" width="4" height="4" fill="#6E7488"></rect><rect x="24" y="84" width="4" height="4" fill="#ECEEF3"></rect><rect x="28" y="84" width="4" height="4" fill="#6E7488"></rect><rect x="32" y="84" width="8" height="4" fill="#FFC24D"></rect><rect x="40" y="84" width="4" height="4" fill="#6E7488"></rect><rect x="44" y="84" width="32" height="4" fill="#FBE4D4"></rect><rect x="76" y="84" width="4" height="4" fill="#6E7488"></rect><rect x="80" y="84" width="8" height="4" fill="#FFC24D"></rect><rect x="88" y="84" width="4" height="4" fill="#6E7488"></rect><rect x="92" y="84" width="4" height="4" fill="#ECEEF3"></rect><rect x="96" y="84" width="4" height="4" fill="#6E7488"></rect><rect x="100" y="84" width="16" height="4" fill="#FFC24D"></rect><rect x="12" y="88" width="8" height="4" fill="#FFC24D"></rect><rect x="20" y="88" width="4" height="4" fill="#6E7488"></rect><rect x="24" y="88" width="4" height="4" fill="#ECEEF3"></rect><rect x="28" y="88" width="4" height="4" fill="#6E7488"></rect><rect x="32" y="88" width="12" height="4" fill="#FFC24D"></rect><rect x="44" y="88" width="32" height="4" fill="#6E7488"></rect><rect x="76" y="88" width="12" height="4" fill="#FFC24D"></rect><rect x="88" y="88" width="4" height="4" fill="#6E7488"></rect><rect x="92" y="88" width="4" height="4" fill="#ECEEF3"></rect><rect x="96" y="88" width="4" height="4" fill="#6E7488"></rect><rect x="100" y="88" width="16" height="4" fill="#FFC24D"></rect><rect x="12" y="92" width="8" height="4" fill="#FFC24D"></rect><rect x="20" y="92" width="4" height="4" fill="#6E7488"></rect><rect x="24" y="92" width="12" height="4" fill="#ECEEF3"></rect><rect x="36" y="92" width="4" height="4" fill="#6E7488"></rect><rect x="40" y="92" width="48" height="4" fill="#FFC24D"></rect><rect x="88" y="92" width="4" height="4" fill="#6E7488"></rect><rect x="92" y="92" width="12" height="4" fill="#ECEEF3"></rect><rect x="104" y="92" width="4" height="4" fill="#6E7488"></rect><rect x="108" y="92" width="8" height="4" fill="#FFC24D"></rect><rect x="12" y="96" width="8" height="4" fill="#FFC24D"></rect><rect x="20" y="96" width="4" height="4" fill="#6E7488"></rect><rect x="24" y="96" width="12" height="4" fill="#ECEEF3"></rect><rect x="36" y="96" width="4" height="4" fill="#6E7488"></rect><rect x="40" y="96" width="48" height="4" fill="#FFC24D"></rect><rect x="88" y="96" width="4" height="4" fill="#6E7488"></rect><rect x="92" y="96" width="12" height="4" fill="#ECEEF3"></rect><rect x="104" y="96" width="4" height="4" fill="#6E7488"></rect><rect x="108" y="96" width="8" height="4" fill="#FFC24D"></rect><rect x="12" y="100" width="8" height="4" fill="#FFC24D"></rect><rect x="20" y="100" width="4" height="4" fill="#6E7488"></rect><rect x="24" y="100" width="12" height="4" fill="#ECEEF3"></rect><rect x="36" y="100" width="4" height="4" fill="#6E7488"></rect><rect x="40" y="100" width="8" height="4" fill="#FFC24D"></rect><rect x="80" y="100" width="8" height="4" fill="#FFC24D"></rect><rect x="88" y="100" width="4" height="4" fill="#6E7488"></rect><rect x="92" y="100" width="12" height="4" fill="#ECEEF3"></rect><rect x="104" y="100" width="4" height="4" fill="#6E7488"></rect><rect x="108" y="100" width="8" height="4" fill="#FFC24D"></rect><rect x="12" y="104" width="8" height="4" fill="#FFC24D"></rect><rect x="20" y="104" width="4" height="4" fill="#6E7488"></rect><rect x="24" y="104" width="12" height="4" fill="#ECEEF3"></rect><rect x="36" y="104" width="4" height="4" fill="#6E7488"></rect><rect x="40" y="104" width="8" height="4" fill="#FFC24D"></rect><rect x="80" y="104" width="8" height="4" fill="#FFC24D"></rect><rect x="88" y="104" width="4" height="4" fill="#6E7488"></rect><rect x="92" y="104" width="12" height="4" fill="#ECEEF3"></rect><rect x="104" y="104" width="4" height="4" fill="#6E7488"></rect><rect x="108" y="104" width="8" height="4" fill="#FFC24D"></rect><rect x="12" y="108" width="8" height="4" fill="#FFC24D"></rect><rect x="20" y="108" width="4" height="4" fill="#6E7488"></rect><rect x="24" y="108" width="12" height="4" fill="#ECEEF3"></rect><rect x="36" y="108" width="4" height="4" fill="#6E7488"></rect><rect x="40" y="108" width="8" height="4" fill="#FFC24D"></rect><rect x="80" y="108" width="8" height="4" fill="#FFC24D"></rect><rect x="88" y="108" width="4" height="4" fill="#6E7488"></rect><rect x="92" y="108" width="12" height="4" fill="#ECEEF3"></rect><rect x="104" y="108" width="4" height="4" fill="#6E7488"></rect><rect x="108" y="108" width="8" height="4" fill="#FFC24D"></rect><rect x="12" y="112" width="8" height="4" fill="#FFC24D"></rect><rect x="20" y="112" width="4" height="4" fill="#6E7488"></rect><rect x="24" y="112" width="12" height="4" fill="#ECEEF3"></rect><rect x="36" y="112" width="4" height="4" fill="#6E7488"></rect><rect x="40" y="112" width="8" height="4" fill="#FFC24D"></rect><rect x="80" y="112" width="8" height="4" fill="#FFC24D"></rect><rect x="88" y="112" width="4" height="4" fill="#6E7488"></rect><rect x="92" y="112" width="12" height="4" fill="#ECEEF3"></rect><rect x="104" y="112" width="4" height="4" fill="#6E7488"></rect><rect x="108" y="112" width="8" height="4" fill="#FFC24D"></rect><rect x="12" y="116" width="12" height="4" fill="#FFC24D"></rect><rect x="24" y="116" width="4" height="4" fill="#6E7488"></rect><rect x="28" y="116" width="4" height="4" fill="#ECEEF3"></rect><rect x="32" y="116" width="4" height="4" fill="#6E7488"></rect><rect x="36" y="116" width="12" height="4" fill="#FFC24D"></rect><rect x="80" y="116" width="12" height="4" fill="#FFC24D"></rect><rect x="92" y="116" width="4" height="4" fill="#6E7488"></rect><rect x="96" y="116" width="4" height="4" fill="#ECEEF3"></rect><rect x="100" y="116" width="4" height="4" fill="#6E7488"></rect><rect x="104" y="116" width="12" height="4" fill="#FFC24D"></rect><rect x="12" y="120" width="20" height="4" fill="#FFC24D"></rect><rect x="32" y="120" width="4" height="4" fill="#6E7488"></rect><rect x="36" y="120" width="12" height="4" fill="#FFC24D"></rect><rect x="80" y="120" width="20" height="4" fill="#FFC24D"></rect><rect x="100" y="120" width="4" height="4" fill="#6E7488"></rect><rect x="104" y="120" width="12" height="4" fill="#FFC24D"></rect><rect x="16" y="124" width="28" height="4" fill="#FFC24D"></rect><rect x="84" y="124" width="28" height="4" fill="#FFC24D"></rect></svg>