<svg xmlns="http://www.w3.org/2000/svg" width="128" height="128" viewBox="0 0 128 128"><path d="M64 20 C94 20 110 42 110 70 C110 100 89 114 64 114 C39 114 18 100 18 70 C18 42 34 20 64 20 Z" fill="#f2b65a" stroke="#d98a2b" stroke-width="3"/><ellipse cx="40" cy="80" rx="7" ry="4.5" fill="#f08a6e" opacity="0.7"/><ellipse cx="88" cy="80" rx="7" ry="4.5" fill="#f08a6e" opacity="0.7"/><circle cx="48" cy="64" r="9" fill="#3a2a14"/><circle cx="80" cy="64" r="9" fill="#3a2a14"/><circle cx="46" cy="62" r="2.4" fill="#fff"/><circle cx="78" cy="62" r="2.4" fill="#fff"/><ellipse cx="64" cy="90" rx="7" ry="9" fill="#3a2a14"/><rect x="94.5" y="28" width="5" height="14" rx="2.5" fill="#e8533f"/><circle cx="97" cy="47" r="3" fill="#e8533f"/></svg>
