<svg xmlns="http://www.w3.org/2000/svg" width="128" height="128" viewBox="0 0 128 128"><path d="M64 20 C94 20 110 42 110 70 C110 100 89 114 64 114 C39 114 18 100 18 70 C18 42 34 20 64 20 Z" fill="#f2b65a" stroke="#d98a2b" stroke-width="3"/><ellipse cx="40" cy="80" rx="7" ry="4.5" fill="#f08a6e" opacity="0.7"/><ellipse cx="88" cy="80" rx="7" ry="4.5" fill="#f08a6e" opacity="0.7"/><path d="M40 66 Q48 57 56 66" stroke="#3a2a14" stroke-width="4" fill="none" stroke-linecap="round"/><path d="M72 66 Q80 57 88 66" stroke="#3a2a14" stroke-width="4" fill="none" stroke-linecap="round"/><path d="M46 88 Q64 106 82 88" stroke="#3a2a14" stroke-width="4" fill="none" stroke-linecap="round"/><path d="M28 27 l2 5 5 2 -5 2 -2 5 -2 -5 -5 -2 5 -2 z" fill="#ffd23f"/><path d="M100 25 l2 5 5 2 -5 2 -2 5 -2 -5 -5 -2 5 -2 z" fill="#4aa3df"/><path d="M104 63 l2 5 5 2 -5 2 -2 5 -2 -5 -5 -2 5 -2 z" fill="#7ed957"/></svg>
