<svg xmlns="http://www.w3.org/2000/svg" width="128" height="128" viewBox="0 0 128 128"><path d="M64 20 C94 20 110 42 110 70 C110 100 89 114 64 114 C39 114 18 100 18 70 C18 42 34 20 64 20 Z" fill="#f2b65a" stroke="#d98a2b" stroke-width="3"/><ellipse cx="40" cy="80" rx="7" ry="4.5" fill="#f08a6e" opacity="0.7"/><ellipse cx="88" cy="80" rx="7" ry="4.5" fill="#f08a6e" opacity="0.7"/><path d="M42 58 l12 12 M54 58 l-12 12" stroke="#3a2a14" stroke-width="4" stroke-linecap="round"/><path d="M74 58 l12 12 M86 58 l-12 12" stroke="#3a2a14" stroke-width="4" stroke-linecap="round"/><path d="M52 90 q4 -6 8 0 t8 0 t8 0" stroke="#3a2a14" stroke-width="3.5" fill="none" stroke-linecap="round"/><path d="M96 50 q-4 7 0 10 q4 -3 0 -10 z" fill="#4aa3df"/></svg>
