<svg xmlns="http://www.w3.org/2000/svg" width="128" height="128" viewBox="0 0 128 128"><path d="M64 20 C94 20 110 42 110 70 C110 100 89 114 64 114 C39 114 18 100 18 70 C18 42 34 20 64 20 Z" fill="#f2b65a" stroke="#d98a2b" stroke-width="3"/><ellipse cx="40" cy="80" rx="7" ry="4.5" fill="#f08a6e" opacity="0.7"/><ellipse cx="88" cy="80" rx="7" ry="4.5" fill="#f08a6e" opacity="0.7"/><circle cx="48" cy="64" r="8" fill="#3a2a14"/><circle cx="80" cy="64" r="8" fill="#3a2a14"/><circle cx="46" cy="62" r="2.4" fill="#fff"/><circle cx="78" cy="62" r="2.4" fill="#fff"/><path d="M52 88 Q64 100 76 88" stroke="#3a2a14" stroke-width="4" fill="none" stroke-linecap="round"/><path d="M102 29 l2 5 5 2 -5 2 -2 5 -2 -5 -5 -2 5 -2 z" fill="#ffd23f"/></svg>
