<svg xmlns="http://www.w3.org/2000/svg" width="128" height="128" viewBox="0 0 128 128" shape-rendering="crispEdges"><rect x="108" y="8" width="8" height="4" fill="#EA4B36"></rect><rect x="108" y="12" width="8" height="4" fill="#EA4B36"></rect><rect x="44" y="16" width="40" height="4" fill="#9A5A6E"></rect><rect x="108" y="16" width="8" height="4" fill="#EA4B36"></rect><rect x="36" y="20" width="8" height="4" fill="#9A5A6E"></rect><rect x="44" y="20" width="40" height="4" fill="#F7A8C8"></rect><rect x="84" y="20" width="8" height="4" fill="#9A5A6E"></rect><rect x="12" y="24" width="12" height="4" fill="#9A5A6E"></rect><rect x="32" y="24" width="4" height="4" fill="#9A5A6E"></rect><rect x="36" y="24" width="4" height="4" fill="#F7A8C8"></rect><rect x="40" y="24" width="16" height="4" fill="#FFD4E6"></rect><rect x="56" y="24" width="36" height="4" fill="#F7A8C8"></rect><rect x="92" y="24" width="4" height="4" fill="#9A5A6E"></rect><rect x="104" y="24" width="4" height="4" fill="#9A5A6E"></rect><rect x="108" y="24" width="8" height="4" fill="#EA4B36"></rect><rect x="8" y="28" width="4" height="4" fill="#9A5A6E"></rect><rect x="12" y="28" width="12" height="4" fill="#F7A8C8"></rect><rect x="24" y="28" width="4" height="4" fill="#9A5A6E"></rect><rect x="32" y="28" width="4" height="4" fill="#9A5A6E"></rect><rect x="36" y="28" width="4" height="4" fill="#F7A8C8"></rect><rect x="40" y="28" width="16" height="4" fill="#FFD4E6"></rect><rect x="56" y="28" width="36" height="4" fill="#F7A8C8"></rect><rect x="92" y="28" width="4" height="4" fill="#9A5A6E"></rect><rect x="100" y="28" width="4" height="4" fill="#9A5A6E"></rect><rect x="104" y="28" width="4" height="4" fill="#F7A8C8"></rect><rect x="108" y="28" width="4" height="4" fill="#B62F1F"></rect><rect x="112" y="28" width="4" height="4" fill="#E07AA6"></rect><rect x="116" y="28" width="4" height="4" fill="#9A5A6E"></rect><rect x="8" y="32" width="4" height="4" fill="#9A5A6E"></rect><rect x="12" y="32" width="12" height="4" fill="#F7A8C8"></rect><rect x="24" y="32" width="4" height="4" fill="#9A5A6E"></rect><rect x="32" y="32" width="4" height="4" fill="#9A5A6E"></rect><rect x="36" y="32" width="56" height="4" fill="#F7A8C8"></rect><rect x="92" y="32" width="4" height="4" fill="#9A5A6E"></rect><rect x="100" y="32" width="4" height="4" fill="#9A5A6E"></rect><rect x="104" y="32" width="8" height="4" fill="#F7A8C8"></rect><rect x="112" y="32" width="4" height="4" fill="#E07AA6"></rect><rect x="116" y="32" width="4" height="4" fill="#9A5A6E"></rect><rect x="4" y="36" width="4" height="4" fill="#9A5A6E"></rect><rect x="8" y="36" width="20" height="4" fill="#F7A8C8"></rect><rect x="28" y="36" width="4" height="4" fill="#9A5A6E"></rect><rect x="32" y="36" width="64" height="4" fill="#F7A8C8"></rect><rect x="96" y="36" width="4" height="4" fill="#9A5A6E"></rect><rect x="100" y="36" width="12" height="4" fill="#F7A8C8"></rect><rect x="112" y="36" width="8" height="4" fill="#E07AA6"></rect><rect x="120" y="36" width="4" height="4" fill="#9A5A6E"></rect><rect x="4" y="40" width="4" height="4" fill="#9A5A6E"></rect><rect x="8" y="40" width="104" height="4" fill="#F7A8C8"></rect><rect x="112" y="40" width="8" height="4" fill="#E07AA6"></rect><rect x="120" y="40" width="4" height="4" fill="#9A5A6E"></rect><rect x="4" y="44" width="4" height="4" fill="#9A5A6E"></rect><rect x="8" y="44" width="104" height="4" fill="#F7A8C8"></rect><rect x="112" y="44" width="8" height="4" fill="#E07AA6"></rect><rect x="120" y="44" width="4" height="4" fill="#9A5A6E"></rect><rect x="4" y="48" width="4" height="4" fill="#9A5A6E"></rect><rect x="8" y="48" width="104" height="4" fill="#F7A8C8"></rect><rect x="112" y="48" width="8" height="4" fill="#E07AA6"></rect><rect x="120" y="48" width="4" height="4" fill="#9A5A6E"></rect><rect x="4" y="52" width="4" height="4" fill="#9A5A6E"></rect><rect x="8" y="52" width="24" height="4" fill="#F7A8C8"></rect><rect x="32" y="52" width="4" height="4" fill="#FFD23F"></rect><rect x="36" y="52" width="16" height="4" fill="#2A2622"></rect><rect x="52" y="52" width="24" height="4" fill="#F7A8C8"></rect><rect x="76" y="52" width="16" height="4" fill="#2A2622"></rect><rect x="92" y="52" width="8" height="4" fill="#FFD23F"></rect><rect x="100" y="52" width="12" height="4" fill="#F7A8C8"></rect><rect x="112" y="52" width="8" height="4" fill="#E07AA6"></rect><rect x="120" y="52" width="4" height="4" fill="#9A5A6E"></rect><rect x="4" y="56" width="4" height="4" fill="#9A5A6E"></rect><rect x="8" y="56" width="20" height="4" fill="#F7A8C8"></rect><rect x="28" y="56" width="4" height="4" fill="#9A5A6E"></rect><rect x="32" y="56" width="4" height="4" fill="#F7A8C8"></rect><rect x="36" y="56" width="4" height="4" fill="#2A2622"></rect><rect x="40" y="56" width="4" height="4" fill="#FFFFFF"></rect><rect x="44" y="56" width="4" height="4" fill="#C2407E"></rect><rect x="48" y="56" width="4" height="4" fill="#2A2622"></rect><rect x="52" y="56" width="24" height="4" fill="#FDE6D2"></rect><rect x="76" y="56" width="4" height="4" fill="#2A2622"></rect><rect x="80" y="56" width="4" height="4" fill="#FFFFFF"></rect><rect x="84" y="56" width="4" height="4" fill="#C2407E"></rect><rect x="88" y="56" width="4" height="4" fill="#2A2622"></rect><rect x="92" y="56" width="4" height="4" fill="#F7A8C8"></rect><rect x="96" y="56" width="4" height="4" fill="#9A5A6E"></rect><rect x="100" y="56" width="12" height="4" fill="#F7A8C8"></rect><rect x="112" y="56" width="8" height="4" fill="#E07AA6"></rect><rect x="120" y="56" width="4" height="4" fill="#9A5A6E"></rect><rect x="8" y="60" width="4" height="4" fill="#9A5A6E"></rect><rect x="12" y="60" width="12" height="4" fill="#F7A8C8"></rect><rect x="24" y="60" width="4" height="4" fill="#9A5A6E"></rect><rect x="32" y="60" width="4" height="4" fill="#9A5A6E"></rect><rect x="36" y="60" width="4" height="4" fill="#2A2622"></rect><rect x="40" y="60" width="4" height="4" fill="#C2407E"></rect><rect x="44" y="60" width="4" height="4" fill="#FFFFFF"></rect><rect x="48" y="60" width="4" height="4" fill="#2A2622"></rect><rect x="52" y="60" width="24" height="4" fill="#FDE6D2"></rect><rect x="76" y="60" width="4" height="4" fill="#2A2622"></rect><rect x="80" y="60" width="4" height="4" fill="#C2407E"></rect><rect x="84" y="60" width="4" height="4" fill="#FFFFFF"></rect><rect x="88" y="60" width="4" height="4" fill="#2A2622"></rect><rect x="92" y="60" width="4" height="4" fill="#9A5A6E"></rect><rect x="100" y="60" width="4" height="4" fill="#9A5A6E"></rect><rect x="104" y="60" width="8" height="4" fill="#F7A8C8"></rect><rect x="112" y="60" width="4" height="4" fill="#E07AA6"></rect><rect x="116" y="60" width="4" height="4" fill="#9A5A6E"></rect><rect x="8" y="64" width="4" height="4" fill="#9A5A6E"></rect><rect x="12" y="64" width="12" height="4" fill="#F7A8C8"></rect><rect x="24" y="64" width="4" height="4" fill="#9A5A6E"></rect><rect x="32" y="64" width="4" height="4" fill="#9A5A6E"></rect><rect x="36" y="64" width="4" height="4" fill="#2A2622"></rect><rect x="40" y="64" width="8" height="4" fill="#C2407E"></rect><rect x="48" y="64" width="4" height="4" fill="#2A2622"></rect><rect x="52" y="64" width="24" height="4" fill="#FDE6D2"></rect><rect x="76" y="64" width="4" height="4" fill="#2A2622"></rect><rect x="80" y="64" width="8" height="4" fill="#C2407E"></rect><rect x="88" y="64" width="4" height="4" fill="#2A2622"></rect><rect x="92" y="64" width="4" height="4" fill="#9A5A6E"></rect><rect x="100" y="64" width="4" height="4" fill="#9A5A6E"></rect><rect x="104" y="64" width="8" height="4" fill="#F7A8C8"></rect><rect x="112" y="64" width="4" height="4" fill="#E07AA6"></rect><rect x="116" y="64" width="4" height="4" fill="#9A5A6E"></rect><rect x="12" y="68" width="12" height="4" fill="#9A5A6E"></rect><rect x="32" y="68" width="4" height="4" fill="#9A5A6E"></rect><rect x="36" y="68" width="16" height="4" fill="#2A2622"></rect><rect x="52" y="68" width="24" height="4" fill="#FDE6D2"></rect><rect x="76" y="68" width="16" height="4" fill="#2A2622"></rect><rect x="92" y="68" width="4" height="4" fill="#9A5A6E"></rect><rect x="104" y="68" width="12" height="4" fill="#9A5A6E"></rect><rect x="32" y="72" width="4" height="4" fill="#9A5A6E"></rect><rect x="36" y="72" width="4" height="4" fill="#F7A8C8"></rect><rect x="40" y="72" width="48" height="4" fill="#FDE6D2"></rect><rect x="88" y="72" width="4" height="4" fill="#F7A8C8"></rect><rect x="92" y="72" width="4" height="4" fill="#9A5A6E"></rect><rect x="36" y="76" width="4" height="4" fill="#9A5A6E"></rect><rect x="40" y="76" width="48" height="4" fill="#FDE6D2"></rect><rect x="88" y="76" width="4" height="4" fill="#9A5A6E"></rect><rect x="36" y="80" width="4" height="4" fill="#9A5A6E"></rect><rect x="40" y="80" width="20" height="4" fill="#FDE6D2"></rect><rect x="60" y="80" width="8" height="4" fill="#2A2622"></rect><rect x="68" y="80" width="20" height="4" fill="#FDE6D2"></rect><rect x="88" y="80" width="4" height="4" fill="#9A5A6E"></rect><rect x="40" y="84" width="4" height="4" fill="#9A5A6E"></rect><rect x="44" y="84" width="12" height="4" fill="#FDE6D2"></rect><rect x="56" y="84" width="16" height="4" fill="#2A2622"></rect><rect x="72" y="84" width="12" height="4" fill="#FDE6D2"></rect><rect x="84" y="84" width="4" height="4" fill="#9A5A6E"></rect><rect x="44" y="88" width="4" height="4" fill="#9A5A6E"></rect><rect x="48" y="88" width="12" height="4" fill="#FDE6D2"></rect><rect x="60" y="88" width="8" height="4" fill="#2A2622"></rect><rect x="68" y="88" width="12" height="4" fill="#FDE6D2"></rect><rect x="80" y="88" width="4" height="4" fill="#9A5A6E"></rect><rect x="48" y="92" width="32" height="4" fill="#9A5A6E"></rect></svg>