<svg xmlns="http://www.w3.org/2000/svg" width="128" height="128" viewBox="0 0 128 128" shape-rendering="crispEdges"><rect x="40" y="0" width="8" height="4" fill="#FFD23F"></rect><rect x="48" y="0" width="4" height="4" fill="#FFD23F"></rect><rect x="52" y="0" width="24" height="4" fill="#FFD23F"></rect><rect x="76" y="0" width="4" height="4" fill="#FF8FB0"></rect><rect x="80" y="0" width="16" height="4" fill="#FFD23F"></rect><rect x="32" y="4" width="64" height="4" fill="#FFD23F"></rect><rect x="96" y="4" width="4" height="4" fill="#FFD23F"></rect><rect x="100" y="4" width="4" height="4" fill="#FFD23F"></rect><rect x="8" y="8" width="40" height="4" fill="#FFD23F"></rect><rect x="48" y="8" width="40" height="4" fill="#9A5A6E"></rect><rect x="88" y="8" width="4" height="4" fill="#FFD23F"></rect><rect x="92" y="8" width="4" height="4" fill="#FFD23F"></rect><rect x="96" y="8" width="4" height="4" fill="#F2A33C"></rect><rect x="100" y="8" width="4" height="4" fill="#FFD23F"></rect><rect x="104" y="8" width="24" height="4" fill="#FFD23F"></rect><rect x="4" y="12" width="36" height="4" fill="#FFD23F"></rect><rect x="40" y="12" width="8" height="4" fill="#9A5A6E"></rect><rect x="48" y="12" width="40" height="4" fill="#F7A8C8"></rect><rect x="88" y="12" width="8" height="4" fill="#9A5A6E"></rect><rect x="96" y="12" width="4" height="4" fill="#FFD23F"></rect><rect x="100" y="12" width="28" height="4" fill="#FFD23F"></rect><rect x="4" y="16" width="4" height="4" fill="#FFD23F"></rect><rect x="8" y="16" width="4" height="4" fill="#FF8FB0"></rect><rect x="12" y="16" width="4" height="4" fill="#FFD23F"></rect><rect x="16" y="16" width="12" height="4" fill="#9A5A6E"></rect><rect x="28" y="16" width="8" height="4" fill="#FFD23F"></rect><rect x="36" y="16" width="4" height="4" fill="#9A5A6E"></rect><rect x="40" y="16" width="4" height="4" fill="#F7A8C8"></rect><rect x="44" y="16" width="16" height="4" fill="#FFD4E6"></rect><rect x="60" y="16" width="36" height="4" fill="#F7A8C8"></rect><rect x="96" y="16" width="4" height="4" fill="#9A5A6E"></rect><rect x="100" y="16" width="8" height="4" fill="#FFD23F"></rect><rect x="108" y="16" width="12" height="4" fill="#9A5A6E"></rect><rect x="120" y="16" width="8" height="4" fill="#FFD23F"></rect><rect x="0" y="20" width="4" height="4" fill="#FFD23F"></rect><rect x="4" y="20" width="12" height="4" fill="#FF8FB0"></rect><rect x="16" y="20" width="12" height="4" fill="#F7A8C8"></rect><rect x="28" y="20" width="4" height="4" fill="#9A5A6E"></rect><rect x="32" y="20" width="4" height="4" fill="#FFD23F"></rect><rect x="36" y="20" width="4" height="4" fill="#9A5A6E"></rect><rect x="40" y="20" width="4" height="4" fill="#F7A8C8"></rect><rect x="44" y="20" width="16" height="4" fill="#FFD4E6"></rect><rect x="60" y="20" width="36" height="4" fill="#F7A8C8"></rect><rect x="96" y="20" width="4" height="4" fill="#9A5A6E"></rect><rect x="100" y="20" width="4" height="4" fill="#FFD23F"></rect><rect x="104" y="20" width="4" height="4" fill="#9A5A6E"></rect><rect x="108" y="20" width="8" height="4" fill="#F7A8C8"></rect><rect x="116" y="20" width="4" height="4" fill="#E07AA6"></rect><rect x="120" y="20" width="4" height="4" fill="#9A5A6E"></rect><rect x="124" y="20" width="4" height="4" fill="#FFD23F"></rect><rect x="0" y="24" width="8" height="4" fill="#FFD23F"></rect><rect x="8" y="24" width="4" height="4" fill="#FF8FB0"></rect><rect x="12" y="24" width="4" height="4" fill="#9A5A6E"></rect><rect x="16" y="24" width="12" height="4" fill="#F7A8C8"></rect><rect x="28" y="24" width="4" height="4" fill="#9A5A6E"></rect><rect x="32" y="24" width="4" height="4" fill="#FFD23F"></rect><rect x="36" y="24" width="4" height="4" fill="#9A5A6E"></rect><rect x="40" y="24" width="56" height="4" fill="#F7A8C8"></rect><rect x="96" y="24" width="4" height="4" fill="#9A5A6E"></rect><rect x="100" y="24" width="4" height="4" fill="#FFD23F"></rect><rect x="104" y="24" width="4" height="4" fill="#9A5A6E"></rect><rect x="108" y="24" width="8" height="4" fill="#F7A8C8"></rect><rect x="116" y="24" width="4" height="4" fill="#E07AA6"></rect><rect x="120" y="24" width="4" height="4" fill="#9A5A6E"></rect><rect x="124" y="24" width="4" height="4" fill="#FFD23F"></rect><rect x="0" y="28" width="8" height="4" fill="#FFD23F"></rect><rect x="8" y="28" width="4" height="4" fill="#9A5A6E"></rect><rect x="12" y="28" width="20" height="4" fill="#F7A8C8"></rect><rect x="32" y="28" width="4" height="4" fill="#9A5A6E"></rect><rect x="36" y="28" width="64" height="4" fill="#F7A8C8"></rect><rect x="100" y="28" width="4" height="4" fill="#9A5A6E"></rect><rect x="104" y="28" width="12" height="4" fill="#F7A8C8"></rect><rect x="116" y="28" width="8" height="4" fill="#E07AA6"></rect><rect x="124" y="28" width="4" height="4" fill="#9A5A6E"></rect><rect x="0" y="32" width="8" height="4" fill="#FFD23F"></rect><rect x="8" y="32" width="4" height="4" fill="#9A5A6E"></rect><rect x="12" y="32" width="104" height="4" fill="#F7A8C8"></rect><rect x="116" y="32" width="8" height="4" fill="#E07AA6"></rect><rect x="124" y="32" width="4" height="4" fill="#9A5A6E"></rect><rect x="0" y="36" width="4" height="4" fill="#FFD23F"></rect><rect x="4" y="36" width="4" height="4" fill="#9A5A6E"></rect><rect x="8" y="36" width="104" height="4" fill="#F7A8C8"></rect><rect x="112" y="36" width="4" height="4" fill="#66D98A"></rect><rect x="116" y="36" width="4" height="4" fill="#E07AA6"></rect><rect x="120" y="36" width="4" height="4" fill="#9A5A6E"></rect><rect x="124" y="36" width="4" height="4" fill="#FFD23F"></rect><rect x="0" y="40" width="4" height="4" fill="#FFD23F"></rect><rect x="4" y="40" width="4" height="4" fill="#9A5A6E"></rect><rect x="8" y="40" width="100" height="4" fill="#F7A8C8"></rect><rect x="108" y="40" width="12" height="4" fill="#66D98A"></rect><rect x="120" y="40" width="4" height="4" fill="#9A5A6E"></rect><rect x="124" y="40" width="4" height="4" fill="#FFD23F"></rect><rect x="0" y="44" width="4" height="4" fill="#FFD23F"></rect><rect x="4" y="44" width="4" height="4" fill="#9A5A6E"></rect><rect x="8" y="44" width="24" height="4" fill="#F7A8C8"></rect><rect x="32" y="44" width="8" height="4" fill="#FFD23F"></rect><rect x="40" y="44" width="4" height="4" fill="#FDE6D2"></rect><rect x="44" y="44" width="40" height="4" fill="#F7A8C8"></rect><rect x="84" y="44" width="4" height="4" fill="#FDE6D2"></rect><rect x="88" y="44" width="4" height="4" fill="#F7A8C8"></rect><rect x="92" y="44" width="8" height="4" fill="#FFD23F"></rect><rect x="100" y="44" width="12" height="4" fill="#F7A8C8"></rect><rect x="112" y="44" width="4" height="4" fill="#66D98A"></rect><rect x="116" y="44" width="4" height="4" fill="#E07AA6"></rect><rect x="120" y="44" width="4" height="4" fill="#9A5A6E"></rect><rect x="124" y="44" width="4" height="4" fill="#FFD23F"></rect><rect x="0" y="48" width="4" height="4" fill="#FFD23F"></rect><rect x="4" y="48" width="4" height="4" fill="#9A5A6E"></rect><rect x="8" y="48" width="8" height="4" fill="#F7A8C8"></rect><rect x="16" y="48" width="4" height="4" fill="#4FA8E6"></rect><rect x="20" y="48" width="8" height="4" fill="#F7A8C8"></rect><rect x="28" y="48" width="4" height="4" fill="#9A5A6E"></rect><rect x="32" y="48" width="8" height="4" fill="#F7A8C8"></rect><rect x="40" y="48" width="4" height="4" fill="#2A2622"></rect><rect x="44" y="48" width="4" height="4" fill="#FDE6D2"></rect><rect x="48" y="48" width="4" height="4" fill="#2A2622"></rect><rect x="52" y="48" width="28" height="4" fill="#FDE6D2"></rect><rect x="80" y="48" width="4" height="4" fill="#2A2622"></rect><rect x="84" y="48" width="4" height="4" fill="#FDE6D2"></rect><rect x="88" y="48" width="4" height="4" fill="#2A2622"></rect><rect x="92" y="48" width="4" height="4" fill="#F7A8C8"></rect><rect x="96" y="48" width="4" height="4" fill="#9A5A6E"></rect><rect x="100" y="48" width="12" height="4" fill="#F7A8C8"></rect><rect x="112" y="48" width="8" height="4" fill="#E07AA6"></rect><rect x="120" y="48" width="4" height="4" fill="#9A5A6E"></rect><rect x="124" y="48" width="4" height="4" fill="#FFD23F"></rect><rect x="0" y="52" width="8" height="4" fill="#FFD23F"></rect><rect x="8" y="52" width="4" height="4" fill="#9A5A6E"></rect><rect x="12" y="52" width="12" height="4" fill="#F7A8C8"></rect><rect x="24" y="52" width="4" height="4" fill="#9A5A6E"></rect><rect x="28" y="52" width="4" height="4" fill="#FFD23F"></rect><rect x="32" y="52" width="4" height="4" fill="#9A5A6E"></rect><rect x="36" y="52" width="4" height="4" fill="#2A2622"></rect><rect x="40" y="52" width="4" height="4" fill="#FDE6D2"></rect><rect x="44" y="52" width="4" height="4" fill="#2A2622"></rect><rect x="48" y="52" width="4" height="4" fill="#FDE6D2"></rect><rect x="52" y="52" width="4" height="4" fill="#2A2622"></rect><rect x="56" y="52" width="20" height="4" fill="#FDE6D2"></rect><rect x="76" y="52" width="4" height="4" fill="#2A2622"></rect><rect x="80" y="52" width="4" height="4" fill="#FDE6D2"></rect><rect x="84" y="52" width="4" height="4" fill="#2A2622"></rect><rect x="88" y="52" width="4" height="4" fill="#F7A8C8"></rect><rect x="92" y="52" width="4" height="4" fill="#2A2622"></rect><rect x="96" y="52" width="4" height="4" fill="#FFD23F"></rect><rect x="100" y="52" width="4" height="4" fill="#9A5A6E"></rect><rect x="104" y="52" width="8" height="4" fill="#F7A8C8"></rect><rect x="112" y="52" width="4" height="4" fill="#E07AA6"></rect><rect x="116" y="52" width="4" height="4" fill="#9A5A6E"></rect><rect x="120" y="52" width="8" height="4" fill="#FFD23F"></rect><rect x="0" y="56" width="8" height="4" fill="#FFD23F"></rect><rect x="8" y="56" width="4" height="4" fill="#9A5A6E"></rect><rect x="12" y="56" width="12" height="4" fill="#F7A8C8"></rect><rect x="24" y="56" width="4" height="4" fill="#9A5A6E"></rect><rect x="28" y="56" width="4" height="4" fill="#FFD23F"></rect><rect x="32" y="56" width="4" height="4" fill="#9A5A6E"></rect><rect x="36" y="56" width="4" height="4" fill="#F7A8C8"></rect><rect x="40" y="56" width="12" height="4" fill="#2A2622"></rect><rect x="52" y="56" width="28" height="4" fill="#FDE6D2"></rect><rect x="80" y="56" width="12" height="4" fill="#2A2622"></rect><rect x="92" y="56" width="4" height="4" fill="#9A5A6E"></rect><rect x="96" y="56" width="4" height="4" fill="#FFD23F"></rect><rect x="100" y="56" width="4" height="4" fill="#9A5A6E"></rect><rect x="104" y="56" width="8" height="4" fill="#F7A8C8"></rect><rect x="112" y="56" width="4" height="4" fill="#E07AA6"></rect><rect x="116" y="56" width="4" height="4" fill="#9A5A6E"></rect><rect x="120" y="56" width="8" height="4" fill="#FFD23F"></rect><rect x="0" y="60" width="12" height="4" fill="#FFD23F"></rect><rect x="12" y="60" width="12" height="4" fill="#9A5A6E"></rect><rect x="24" y="60" width="4" height="4" fill="#FF8FB0"></rect><rect x="28" y="60" width="4" height="4" fill="#FFD23F"></rect><rect x="32" y="60" width="4" height="4" fill="#9A5A6E"></rect><rect x="36" y="60" width="4" height="4" fill="#F7A8C8"></rect><rect x="40" y="60" width="48" height="4" fill="#FDE6D2"></rect><rect x="88" y="60" width="4" height="4" fill="#F7A8C8"></rect><rect x="92" y="60" width="4" height="4" fill="#9A5A6E"></rect><rect x="96" y="60" width="8" height="4" fill="#FFD23F"></rect><rect x="104" y="60" width="12" height="4" fill="#9A5A6E"></rect><rect x="116" y="60" width="12" height="4" fill="#FFD23F"></rect><rect x="0" y="64" width="32" height="4" fill="#FFD23F"></rect><rect x="32" y="64" width="8" height="4" fill="#FF8FB0"></rect><rect x="40" y="64" width="48" height="4" fill="#FDE6D2"></rect><rect x="88" y="64" width="4" height="4" fill="#F7A8C8"></rect><rect x="92" y="64" width="8" height="4" fill="#FF8FB0"></rect><rect x="100" y="64" width="12" height="4" fill="#FFD23F"></rect><rect x="112" y="64" width="4" height="4" fill="#FFD23F"></rect><rect x="116" y="64" width="12" height="4" fill="#FFD23F"></rect><rect x="4" y="68" width="32" height="4" fill="#FFD23F"></rect><rect x="36" y="68" width="4" height="4" fill="#9A5A6E"></rect><rect x="40" y="68" width="48" height="4" fill="#FDE6D2"></rect><rect x="88" y="68" width="4" height="4" fill="#9A5A6E"></rect><rect x="92" y="68" width="32" height="4" fill="#FFD23F"></rect><rect x="24" y="72" width="12" height="4" fill="#FFD23F"></rect><rect x="36" y="72" width="4" height="4" fill="#9A5A6E"></rect><rect x="40" y="72" width="16" height="4" fill="#FDE6D2"></rect><rect x="56" y="72" width="4" height="4" fill="#2A2622"></rect><rect x="60" y="72" width="8" height="4" fill="#FDE6D2"></rect><rect x="68" y="72" width="4" height="4" fill="#2A2622"></rect><rect x="72" y="72" width="16" height="4" fill="#FDE6D2"></rect><rect x="88" y="72" width="4" height="4" fill="#9A5A6E"></rect><rect x="92" y="72" width="16" height="4" fill="#FFD23F"></rect><rect x="28" y="76" width="12" height="4" fill="#FFD23F"></rect><rect x="40" y="76" width="4" height="4" fill="#9A5A6E"></rect><rect x="44" y="76" width="12" height="4" fill="#FDE6D2"></rect><rect x="56" y="76" width="4" height="4" fill="#2A2622"></rect><rect x="60" y="76" width="8" height="4" fill="#FDE6D2"></rect><rect x="68" y="76" width="4" height="4" fill="#2A2622"></rect><rect x="72" y="76" width="12" height="4" fill="#FDE6D2"></rect><rect x="84" y="76" width="4" height="4" fill="#9A5A6E"></rect><rect x="88" y="76" width="12" height="4" fill="#FFD23F"></rect><rect x="8" y="80" width="4" height="4" fill="#66D98A"></rect><rect x="28" y="80" width="16" height="4" fill="#FFD23F"></rect><rect x="44" y="80" width="4" height="4" fill="#9A5A6E"></rect><rect x="48" y="80" width="12" height="4" fill="#FDE6D2"></rect><rect x="60" y="80" width="8" height="4" fill="#2A2622"></rect><rect x="68" y="80" width="12" height="4" fill="#FDE6D2"></rect><rect x="80" y="80" width="4" height="4" fill="#9A5A6E"></rect><rect x="84" y="80" width="16" height="4" fill="#FFD23F"></rect><rect x="32" y="84" width="16" height="4" fill="#FFD23F"></rect><rect x="48" y="84" width="32" height="4" fill="#9A5A6E"></rect><rect x="80" y="84" width="16" height="4" fill="#FFD23F"></rect><rect x="36" y="88" width="56" height="4" fill="#FFD23F"></rect><rect x="40" y="92" width="48" height="4" fill="#FFD23F"></rect></svg>