<svg xmlns="http://www.w3.org/2000/svg" width="128" height="128" viewBox="0 0 128 128" shape-rendering="crispEdges"><rect x="96" y="4" width="8" height="4" fill="#7FD0EE"></rect><rect x="92" y="8" width="4" height="4" fill="#7FD0EE"></rect><rect x="96" y="8" width="8" height="4" fill="#5BD0EE"></rect><rect x="104" y="8" width="4" height="4" fill="#7FD0EE"></rect><rect x="92" y="12" width="16" height="4" fill="#5BD0EE"></rect><rect x="52" y="16" width="40" height="4" fill="#8A93A2"></rect><rect x="92" y="16" width="16" height="4" fill="#5BD0EE"></rect><rect x="44" y="20" width="52" height="4" fill="#8A93A2"></rect><rect x="96" y="20" width="8" height="4" fill="#5BD0EE"></rect><rect x="104" y="20" width="12" height="4" fill="#8A93A2"></rect><rect x="16" y="24" width="8" height="4" fill="#8A93A2"></rect><rect x="24" y="24" width="4" height="4" fill="#5BD0EE"></rect><rect x="28" y="24" width="32" height="4" fill="#8A93A2"></rect><rect x="60" y="24" width="40" height="4" fill="#9A5A6E"></rect><rect x="100" y="24" width="28" height="4" fill="#8A93A2"></rect><rect x="12" y="28" width="40" height="4" fill="#8A93A2"></rect><rect x="52" y="28" width="8" height="4" fill="#9A5A6E"></rect><rect x="60" y="28" width="40" height="4" fill="#F7A8C8"></rect><rect x="100" y="28" width="8" height="4" fill="#9A5A6E"></rect><rect x="108" y="28" width="20" height="4" fill="#8A93A2"></rect><rect x="12" y="32" width="8" height="4" fill="#8A93A2"></rect><rect x="20" y="32" width="4" height="4" fill="#5BD0EE"></rect><rect x="24" y="32" width="12" height="4" fill="#9A5A6E"></rect><rect x="36" y="32" width="8" height="4" fill="#8A93A2"></rect><rect x="44" y="32" width="4" height="4" fill="#9A5A6E"></rect><rect x="48" y="32" width="4" height="4" fill="#F7A8C8"></rect><rect x="52" y="32" width="16" height="4" fill="#FFD4E6"></rect><rect x="68" y="32" width="36" height="4" fill="#F7A8C8"></rect><rect x="104" y="32" width="4" height="4" fill="#9A5A6E"></rect><rect x="108" y="32" width="8" height="4" fill="#8A93A2"></rect><rect x="116" y="32" width="12" height="4" fill="#9A5A6E"></rect><rect x="8" y="36" width="12" height="4" fill="#8A93A2"></rect><rect x="20" y="36" width="4" height="4" fill="#9A5A6E"></rect><rect x="24" y="36" width="12" height="4" fill="#F7A8C8"></rect><rect x="36" y="36" width="4" height="4" fill="#9A5A6E"></rect><rect x="40" y="36" width="4" height="4" fill="#8A93A2"></rect><rect x="44" y="36" width="4" height="4" fill="#9A5A6E"></rect><rect x="48" y="36" width="4" height="4" fill="#F7A8C8"></rect><rect x="52" y="36" width="16" height="4" fill="#FFD4E6"></rect><rect x="68" y="36" width="36" height="4" fill="#F7A8C8"></rect><rect x="104" y="36" width="4" height="4" fill="#9A5A6E"></rect><rect x="108" y="36" width="4" height="4" fill="#8A93A2"></rect><rect x="112" y="36" width="4" height="4" fill="#9A5A6E"></rect><rect x="116" y="36" width="8" height="4" fill="#F7A8C8"></rect><rect x="124" y="36" width="4" height="4" fill="#E07AA6"></rect><rect x="8" y="40" width="12" height="4" fill="#8A93A2"></rect><rect x="20" y="40" width="4" height="4" fill="#9A5A6E"></rect><rect x="24" y="40" width="12" height="4" fill="#F7A8C8"></rect><rect x="36" y="40" width="4" height="4" fill="#9A5A6E"></rect><rect x="40" y="40" width="4" height="4" fill="#8A93A2"></rect><rect x="44" y="40" width="4" height="4" fill="#9A5A6E"></rect><rect x="48" y="40" width="56" height="4" fill="#F7A8C8"></rect><rect x="104" y="40" width="4" height="4" fill="#9A5A6E"></rect><rect x="108" y="40" width="4" height="4" fill="#8A93A2"></rect><rect x="112" y="40" width="4" height="4" fill="#9A5A6E"></rect><rect x="116" y="40" width="8" height="4" fill="#F7A8C8"></rect><rect x="124" y="40" width="4" height="4" fill="#E07AA6"></rect><rect x="8" y="44" width="8" height="4" fill="#8A93A2"></rect><rect x="16" y="44" width="4" height="4" fill="#9A5A6E"></rect><rect x="20" y="44" width="20" height="4" fill="#F7A8C8"></rect><rect x="40" y="44" width="4" height="4" fill="#9A5A6E"></rect><rect x="44" y="44" width="64" height="4" fill="#F7A8C8"></rect><rect x="108" y="44" width="4" height="4" fill="#9A5A6E"></rect><rect x="112" y="44" width="12" height="4" fill="#F7A8C8"></rect><rect x="124" y="44" width="4" height="4" fill="#E07AA6"></rect><rect x="4" y="48" width="12" height="4" fill="#8A93A2"></rect><rect x="16" y="48" width="4" height="4" fill="#9A5A6E"></rect><rect x="20" y="48" width="104" height="4" fill="#F7A8C8"></rect><rect x="124" y="48" width="4" height="4" fill="#E07AA6"></rect><rect x="4" y="52" width="12" height="4" fill="#8A93A2"></rect><rect x="16" y="52" width="4" height="4" fill="#9A5A6E"></rect><rect x="20" y="52" width="104" height="4" fill="#F7A8C8"></rect><rect x="124" y="52" width="4" height="4" fill="#E07AA6"></rect><rect x="4" y="56" width="8" height="4" fill="#8A93A2"></rect><rect x="12" y="56" width="4" height="4" fill="#9A5A6E"></rect><rect x="16" y="56" width="104" height="4" fill="#F7A8C8"></rect><rect x="120" y="56" width="8" height="4" fill="#E07AA6"></rect><rect x="4" y="60" width="8" height="4" fill="#8A93A2"></rect><rect x="12" y="60" width="4" height="4" fill="#9A5A6E"></rect><rect x="16" y="60" width="24" height="4" fill="#F7A8C8"></rect><rect x="40" y="60" width="8" height="4" fill="#FFD23F"></rect><rect x="48" y="60" width="4" height="4" fill="#FDE6D2"></rect><rect x="52" y="60" width="40" height="4" fill="#F7A8C8"></rect><rect x="92" y="60" width="4" height="4" fill="#FDE6D2"></rect><rect x="96" y="60" width="4" height="4" fill="#F7A8C8"></rect><rect x="100" y="60" width="8" height="4" fill="#FFD23F"></rect><rect x="108" y="60" width="12" height="4" fill="#F7A8C8"></rect><rect x="120" y="60" width="8" height="4" fill="#E07AA6"></rect><rect x="4" y="64" width="8" height="4" fill="#8A93A2"></rect><rect x="12" y="64" width="4" height="4" fill="#9A5A6E"></rect><rect x="16" y="64" width="20" height="4" fill="#F7A8C8"></rect><rect x="36" y="64" width="4" height="4" fill="#9A5A6E"></rect><rect x="40" y="64" width="8" height="4" fill="#F7A8C8"></rect><rect x="48" y="64" width="48" height="4" fill="#FDE6D2"></rect><rect x="96" y="64" width="8" height="4" fill="#F7A8C8"></rect><rect x="104" y="64" width="4" height="4" fill="#9A5A6E"></rect><rect x="108" y="64" width="12" height="4" fill="#F7A8C8"></rect><rect x="120" y="64" width="8" height="4" fill="#E07AA6"></rect><rect x="4" y="68" width="12" height="4" fill="#8A93A2"></rect><rect x="16" y="68" width="4" height="4" fill="#9A5A6E"></rect><rect x="20" y="68" width="12" height="4" fill="#F7A8C8"></rect><rect x="32" y="68" width="4" height="4" fill="#9A5A6E"></rect><rect x="36" y="68" width="4" height="4" fill="#8A93A2"></rect><rect x="40" y="68" width="4" height="4" fill="#9A5A6E"></rect><rect x="44" y="68" width="4" height="4" fill="#F7A8C8"></rect><rect x="48" y="68" width="4" height="4" fill="#2A2622"></rect><rect x="52" y="68" width="4" height="4" fill="#FDE6D2"></rect><rect x="56" y="68" width="4" height="4" fill="#2A2622"></rect><rect x="60" y="68" width="28" height="4" fill="#FDE6D2"></rect><rect x="88" y="68" width="4" height="4" fill="#2A2622"></rect><rect x="92" y="68" width="4" height="4" fill="#FDE6D2"></rect><rect x="96" y="68" width="4" height="4" fill="#2A2622"></rect><rect x="100" y="68" width="4" height="4" fill="#9A5A6E"></rect><rect x="104" y="68" width="4" height="4" fill="#8A93A2"></rect><rect x="108" y="68" width="4" height="4" fill="#9A5A6E"></rect><rect x="112" y="68" width="8" height="4" fill="#F7A8C8"></rect><rect x="120" y="68" width="4" height="4" fill="#E07AA6"></rect><rect x="124" y="68" width="4" height="4" fill="#9A5A6E"></rect><rect x="4" y="72" width="12" height="4" fill="#8A93A2"></rect><rect x="16" y="72" width="4" height="4" fill="#9A5A6E"></rect><rect x="20" y="72" width="12" height="4" fill="#F7A8C8"></rect><rect x="32" y="72" width="4" height="4" fill="#9A5A6E"></rect><rect x="36" y="72" width="4" height="4" fill="#8A93A2"></rect><rect x="40" y="72" width="4" height="4" fill="#9A5A6E"></rect><rect x="44" y="72" width="4" height="4" fill="#F7A8C8"></rect><rect x="48" y="72" width="4" height="4" fill="#FDE6D2"></rect><rect x="52" y="72" width="4" height="4" fill="#2A2622"></rect><rect x="56" y="72" width="36" height="4" fill="#FDE6D2"></rect><rect x="92" y="72" width="4" height="4" fill="#2A2622"></rect><rect x="96" y="72" width="4" height="4" fill="#F7A8C8"></rect><rect x="100" y="72" width="4" height="4" fill="#9A5A6E"></rect><rect x="104" y="72" width="4" height="4" fill="#8A93A2"></rect><rect x="108" y="72" width="4" height="4" fill="#9A5A6E"></rect><rect x="112" y="72" width="8" height="4" fill="#F7A8C8"></rect><rect x="120" y="72" width="4" height="4" fill="#E07AA6"></rect><rect x="124" y="72" width="4" height="4" fill="#9A5A6E"></rect><rect x="8" y="76" width="12" height="4" fill="#8A93A2"></rect><rect x="20" y="76" width="12" height="4" fill="#9A5A6E"></rect><rect x="32" y="76" width="8" height="4" fill="#8A93A2"></rect><rect x="40" y="76" width="4" height="4" fill="#9A5A6E"></rect><rect x="44" y="76" width="4" height="4" fill="#F7A8C8"></rect><rect x="48" y="76" width="4" height="4" fill="#2A2622"></rect><rect x="52" y="76" width="4" height="4" fill="#FDE6D2"></rect><rect x="56" y="76" width="4" height="4" fill="#2A2622"></rect><rect x="60" y="76" width="28" height="4" fill="#FDE6D2"></rect><rect x="88" y="76" width="4" height="4" fill="#2A2622"></rect><rect x="92" y="76" width="4" height="4" fill="#FDE6D2"></rect><rect x="96" y="76" width="4" height="4" fill="#2A2622"></rect><rect x="100" y="76" width="4" height="4" fill="#9A5A6E"></rect><rect x="104" y="76" width="8" height="4" fill="#8A93A2"></rect><rect x="112" y="76" width="12" height="4" fill="#9A5A6E"></rect><rect x="124" y="76" width="4" height="4" fill="#8A93A2"></rect><rect x="8" y="80" width="28" height="4" fill="#8A93A2"></rect><rect x="36" y="80" width="4" height="4" fill="#9A5A6E"></rect><rect x="40" y="80" width="4" height="4" fill="#F7A8C8"></rect><rect x="44" y="80" width="48" height="4" fill="#FDE6D2"></rect><rect x="92" y="80" width="4" height="4" fill="#F7A8C8"></rect><rect x="96" y="80" width="4" height="4" fill="#9A5A6E"></rect><rect x="100" y="80" width="28" height="4" fill="#8A93A2"></rect><rect x="12" y="84" width="28" height="4" fill="#8A93A2"></rect><rect x="40" y="84" width="4" height="4" fill="#9A5A6E"></rect><rect x="44" y="84" width="48" height="4" fill="#FDE6D2"></rect><rect x="92" y="84" width="4" height="4" fill="#9A5A6E"></rect><rect x="96" y="84" width="32" height="4" fill="#8A93A2"></rect><rect x="28" y="88" width="12" height="4" fill="#8A93A2"></rect><rect x="40" y="88" width="4" height="4" fill="#9A5A6E"></rect><rect x="44" y="88" width="16" height="4" fill="#FDE6D2"></rect><rect x="60" y="88" width="4" height="4" fill="#2A2622"></rect><rect x="64" y="88" width="4" height="4" fill="#FDE6D2"></rect><rect x="68" y="88" width="4" height="4" fill="#2A2622"></rect><rect x="72" y="88" width="20" height="4" fill="#FDE6D2"></rect><rect x="92" y="88" width="4" height="4" fill="#9A5A6E"></rect><rect x="96" y="88" width="12" height="4" fill="#8A93A2"></rect><rect x="32" y="92" width="12" height="4" fill="#8A93A2"></rect><rect x="44" y="92" width="4" height="4" fill="#9A5A6E"></rect><rect x="48" y="92" width="16" height="4" fill="#FDE6D2"></rect><rect x="64" y="92" width="4" height="4" fill="#2A2622"></rect><rect x="68" y="92" width="4" height="4" fill="#FDE6D2"></rect><rect x="72" y="92" width="4" height="4" fill="#2A2622"></rect><rect x="76" y="92" width="12" height="4" fill="#FDE6D2"></rect><rect x="88" y="92" width="4" height="4" fill="#9A5A6E"></rect><rect x="92" y="92" width="12" height="4" fill="#8A93A2"></rect><rect x="32" y="96" width="16" height="4" fill="#8A93A2"></rect><rect x="48" y="96" width="4" height="4" fill="#9A5A6E"></rect><rect x="52" y="96" width="32" height="4" fill="#FDE6D2"></rect><rect x="84" y="96" width="4" height="4" fill="#9A5A6E"></rect><rect x="88" y="96" width="16" height="4" fill="#8A93A2"></rect><rect x="36" y="100" width="16" height="4" fill="#8A93A2"></rect><rect x="52" y="100" width="32" height="4" fill="#9A5A6E"></rect><rect x="84" y="100" width="16" height="4" fill="#8A93A2"></rect><rect x="40" y="104" width="56" height="4" fill="#8A93A2"></rect><rect x="44" y="108" width="48" height="4" fill="#8A93A2"></rect></svg>