<svg xmlns="http://www.w3.org/2000/svg" width="128" height="128" viewBox="0 0 128 128" shape-rendering="crispEdges"><rect x="112" y="0" width="4" height="4" fill="#FFD23F"></rect><rect x="24" y="4" width="56" height="4" fill="#FFC24D"></rect><rect x="84" y="4" width="4" height="4" fill="#f0f"></rect><rect x="16" y="8" width="72" height="4" fill="#FFC24D"></rect><rect x="96" y="8" width="4" height="4" fill="#FFD23F"></rect><rect x="0" y="12" width="32" height="4" fill="#FFC24D"></rect><rect x="32" y="12" width="40" height="4" fill="#9A5A6E"></rect><rect x="72" y="12" width="24" height="4" fill="#FFC24D"></rect><rect x="96" y="12" width="4" height="4" fill="#FFD23F"></rect><rect x="100" y="12" width="12" height="4" fill="#FFC24D"></rect><rect x="0" y="16" width="24" height="4" fill="#FFC24D"></rect><rect x="24" y="16" width="8" height="4" fill="#9A5A6E"></rect><rect x="32" y="16" width="40" height="4" fill="#F7A8C8"></rect><rect x="72" y="16" width="8" height="4" fill="#9A5A6E"></rect><rect x="80" y="16" width="8" height="4" fill="#FFC24D"></rect><rect x="88" y="16" width="8" height="4" fill="#FFD23F"></rect><rect x="96" y="16" width="4" height="4" fill="#F2A33C"></rect><rect x="100" y="16" width="8" height="4" fill="#FFD23F"></rect><rect x="108" y="16" width="8" height="4" fill="#FFC24D"></rect><rect x="0" y="20" width="12" height="4" fill="#9A5A6E"></rect><rect x="12" y="20" width="8" height="4" fill="#FFC24D"></rect><rect x="20" y="20" width="4" height="4" fill="#9A5A6E"></rect><rect x="24" y="20" width="4" height="4" fill="#F7A8C8"></rect><rect x="28" y="20" width="16" height="4" fill="#FFD4E6"></rect><rect x="44" y="20" width="36" height="4" fill="#F7A8C8"></rect><rect x="80" y="20" width="4" height="4" fill="#9A5A6E"></rect><rect x="84" y="20" width="8" height="4" fill="#FFC24D"></rect><rect x="92" y="20" width="4" height="4" fill="#9A5A6E"></rect><rect x="96" y="20" width="4" height="4" fill="#FFD23F"></rect><rect x="100" y="20" width="4" height="4" fill="#9A5A6E"></rect><rect x="104" y="20" width="16" height="4" fill="#FFC24D"></rect><rect x="0" y="24" width="12" height="4" fill="#F7A8C8"></rect><rect x="12" y="24" width="4" height="4" fill="#9A5A6E"></rect><rect x="16" y="24" width="4" height="4" fill="#FFC24D"></rect><rect x="20" y="24" width="4" height="4" fill="#9A5A6E"></rect><rect x="24" y="24" width="4" height="4" fill="#F7A8C8"></rect><rect x="28" y="24" width="16" height="4" fill="#FFD4E6"></rect><rect x="44" y="24" width="36" height="4" fill="#F7A8C8"></rect><rect x="80" y="24" width="4" height="4" fill="#FFD23F"></rect><rect x="84" y="24" width="4" height="4" fill="#FFC24D"></rect><rect x="88" y="24" width="4" height="4" fill="#9A5A6E"></rect><rect x="92" y="24" width="4" height="4" fill="#F7A8C8"></rect><rect x="96" y="24" width="4" height="4" fill="#FFD23F"></rect><rect x="100" y="24" width="4" height="4" fill="#E07AA6"></rect><rect x="104" y="24" width="4" height="4" fill="#9A5A6E"></rect><rect x="108" y="24" width="16" height="4" fill="#FFC24D"></rect><rect x="0" y="28" width="4" height="4" fill="#9A5A6E"></rect><rect x="4" y="28" width="12" height="4" fill="#F7A8C8"></rect><rect x="16" y="28" width="4" height="4" fill="#9A5A6E"></rect><rect x="20" y="28" width="4" height="4" fill="#FFC24D"></rect><rect x="24" y="28" width="4" height="4" fill="#9A5A6E"></rect><rect x="28" y="28" width="56" height="4" fill="#F7A8C8"></rect><rect x="84" y="28" width="4" height="4" fill="#9A5A6E"></rect><rect x="88" y="28" width="4" height="4" fill="#FFC24D"></rect><rect x="92" y="28" width="4" height="4" fill="#9A5A6E"></rect><rect x="96" y="28" width="8" height="4" fill="#F7A8C8"></rect><rect x="104" y="28" width="4" height="4" fill="#E07AA6"></rect><rect x="108" y="28" width="4" height="4" fill="#9A5A6E"></rect><rect x="112" y="28" width="12" height="4" fill="#FFC24D"></rect><rect x="0" y="32" width="20" height="4" fill="#F7A8C8"></rect><rect x="20" y="32" width="4" height="4" fill="#9A5A6E"></rect><rect x="24" y="32" width="64" height="4" fill="#F7A8C8"></rect><rect x="88" y="32" width="4" height="4" fill="#9A5A6E"></rect><rect x="92" y="32" width="12" height="4" fill="#F7A8C8"></rect><rect x="104" y="32" width="8" height="4" fill="#E07AA6"></rect><rect x="112" y="32" width="4" height="4" fill="#9A5A6E"></rect><rect x="116" y="32" width="8" height="4" fill="#FFC24D"></rect><rect x="0" y="36" width="104" height="4" fill="#F7A8C8"></rect><rect x="104" y="36" width="8" height="4" fill="#E07AA6"></rect><rect x="112" y="36" width="4" height="4" fill="#9A5A6E"></rect><rect x="116" y="36" width="8" height="4" fill="#FFC24D"></rect><rect x="0" y="40" width="104" height="4" fill="#F7A8C8"></rect><rect x="104" y="40" width="8" height="4" fill="#E07AA6"></rect><rect x="112" y="40" width="4" height="4" fill="#9A5A6E"></rect><rect x="116" y="40" width="8" height="4" fill="#FFC24D"></rect><rect x="0" y="44" width="104" height="4" fill="#F7A8C8"></rect><rect x="104" y="44" width="8" height="4" fill="#E07AA6"></rect><rect x="112" y="44" width="4" height="4" fill="#9A5A6E"></rect><rect x="116" y="44" width="8" height="4" fill="#FFC24D"></rect><rect x="0" y="48" width="4" height="4" fill="#F7A8C8"></rect><rect x="4" y="48" width="4" height="4" fill="#FFD23F"></rect><rect x="8" y="48" width="16" height="4" fill="#F7A8C8"></rect><rect x="24" y="48" width="8" height="4" fill="#FFD23F"></rect><rect x="32" y="48" width="4" height="4" fill="#FDE6D2"></rect><rect x="36" y="48" width="40" height="4" fill="#F7A8C8"></rect><rect x="76" y="48" width="4" height="4" fill="#FDE6D2"></rect><rect x="80" y="48" width="4" height="4" fill="#F7A8C8"></rect><rect x="84" y="48" width="8" height="4" fill="#FFD23F"></rect><rect x="92" y="48" width="12" height="4" fill="#F7A8C8"></rect><rect x="104" y="48" width="8" height="4" fill="#E07AA6"></rect><rect x="112" y="48" width="4" height="4" fill="#9A5A6E"></rect><rect x="116" y="48" width="8" height="4" fill="#FFC24D"></rect><rect x="0" y="52" width="8" height="4" fill="#F7A8C8"></rect><rect x="8" y="52" width="4" height="4" fill="#FFD23F"></rect><rect x="12" y="52" width="8" height="4" fill="#F7A8C8"></rect><rect x="20" y="52" width="4" height="4" fill="#9A5A6E"></rect><rect x="24" y="52" width="4" height="4" fill="#F7A8C8"></rect><rect x="28" y="52" width="12" height="4" fill="#2A2622"></rect><rect x="40" y="52" width="32" height="4" fill="#FDE6D2"></rect><rect x="72" y="52" width="12" height="4" fill="#2A2622"></rect><rect x="84" y="52" width="4" height="4" fill="#F7A8C8"></rect><rect x="88" y="52" width="4" height="4" fill="#9A5A6E"></rect><rect x="92" y="52" width="12" height="4" fill="#F7A8C8"></rect><rect x="104" y="52" width="8" height="4" fill="#E07AA6"></rect><rect x="112" y="52" width="4" height="4" fill="#9A5A6E"></rect><rect x="116" y="52" width="8" height="4" fill="#FFC24D"></rect><rect x="0" y="56" width="4" height="4" fill="#9A5A6E"></rect><rect x="4" y="56" width="12" height="4" fill="#F7A8C8"></rect><rect x="16" y="56" width="4" height="4" fill="#9A5A6E"></rect><rect x="20" y="56" width="4" height="4" fill="#FFC24D"></rect><rect x="24" y="56" width="4" height="4" fill="#9A5A6E"></rect><rect x="28" y="56" width="4" height="4" fill="#2A2622"></rect><rect x="32" y="56" width="4" height="4" fill="#FFFFFF"></rect><rect x="36" y="56" width="4" height="4" fill="#C2407E"></rect><rect x="40" y="56" width="4" height="4" fill="#2A2622"></rect><rect x="44" y="56" width="24" height="4" fill="#FDE6D2"></rect><rect x="68" y="56" width="4" height="4" fill="#2A2622"></rect><rect x="72" y="56" width="4" height="4" fill="#C2407E"></rect><rect x="76" y="56" width="4" height="4" fill="#FFFFFF"></rect><rect x="80" y="56" width="4" height="4" fill="#2A2622"></rect><rect x="84" y="56" width="4" height="4" fill="#9A5A6E"></rect><rect x="88" y="56" width="4" height="4" fill="#FFC24D"></rect><rect x="92" y="56" width="4" height="4" fill="#9A5A6E"></rect><rect x="96" y="56" width="8" height="4" fill="#F7A8C8"></rect><rect x="104" y="56" width="4" height="4" fill="#E07AA6"></rect><rect x="108" y="56" width="4" height="4" fill="#9A5A6E"></rect><rect x="112" y="56" width="12" height="4" fill="#FFC24D"></rect><rect x="0" y="60" width="4" height="4" fill="#FFC24D"></rect><rect x="4" y="60" width="4" height="4" fill="#9A5A6E"></rect><rect x="8" y="60" width="12" height="4" fill="#F7A8C8"></rect><rect x="20" y="60" width="4" height="4" fill="#9A5A6E"></rect><rect x="24" y="60" width="4" height="4" fill="#FFC24D"></rect><rect x="28" y="60" width="4" height="4" fill="#9A5A6E"></rect><rect x="32" y="60" width="4" height="4" fill="#F7A8C8"></rect><rect x="36" y="60" width="8" height="4" fill="#2A2622"></rect><rect x="44" y="60" width="32" height="4" fill="#FDE6D2"></rect><rect x="76" y="60" width="8" height="4" fill="#2A2622"></rect><rect x="84" y="60" width="4" height="4" fill="#F7A8C8"></rect><rect x="88" y="60" width="4" height="4" fill="#9A5A6E"></rect><rect x="92" y="60" width="4" height="4" fill="#FFC24D"></rect><rect x="96" y="60" width="4" height="4" fill="#9A5A6E"></rect><rect x="100" y="60" width="8" height="4" fill="#F7A8C8"></rect><rect x="108" y="60" width="4" height="4" fill="#E07AA6"></rect><rect x="112" y="60" width="4" height="4" fill="#9A5A6E"></rect><rect x="116" y="60" width="8" height="4" fill="#FFC24D"></rect><rect x="0" y="64" width="8" height="4" fill="#FFC24D"></rect><rect x="8" y="64" width="12" height="4" fill="#9A5A6E"></rect><rect x="20" y="64" width="8" height="4" fill="#FFC24D"></rect><rect x="28" y="64" width="4" height="4" fill="#9A5A6E"></rect><rect x="32" y="64" width="4" height="4" fill="#F7A8C8"></rect><rect x="36" y="64" width="48" height="4" fill="#FDE6D2"></rect><rect x="84" y="64" width="4" height="4" fill="#F7A8C8"></rect><rect x="88" y="64" width="4" height="4" fill="#9A5A6E"></rect><rect x="92" y="64" width="8" height="4" fill="#FFC24D"></rect><rect x="100" y="64" width="12" height="4" fill="#9A5A6E"></rect><rect x="112" y="64" width="12" height="4" fill="#FFC24D"></rect><rect x="0" y="68" width="28" height="4" fill="#FFC24D"></rect><rect x="28" y="68" width="4" height="4" fill="#9A5A6E"></rect><rect x="32" y="68" width="4" height="4" fill="#F7A8C8"></rect><rect x="36" y="68" width="48" height="4" fill="#FDE6D2"></rect><rect x="84" y="68" width="4" height="4" fill="#F7A8C8"></rect><rect x="88" y="68" width="4" height="4" fill="#9A5A6E"></rect><rect x="92" y="68" width="32" height="4" fill="#FFC24D"></rect><rect x="0" y="72" width="8" height="4" fill="#FFC24D"></rect><rect x="8" y="72" width="4" height="4" fill="#FFD23F"></rect><rect x="12" y="72" width="20" height="4" fill="#FFC24D"></rect><rect x="32" y="72" width="4" height="4" fill="#9A5A6E"></rect><rect x="36" y="72" width="48" height="4" fill="#FDE6D2"></rect><rect x="84" y="72" width="4" height="4" fill="#9A5A6E"></rect><rect x="88" y="72" width="32" height="4" fill="#FFC24D"></rect><rect x="4" y="76" width="4" height="4" fill="#FFD23F"></rect><rect x="20" y="76" width="12" height="4" fill="#FFC24D"></rect><rect x="32" y="76" width="4" height="4" fill="#9A5A6E"></rect><rect x="36" y="76" width="20" height="4" fill="#FDE6D2"></rect><rect x="56" y="76" width="12" height="4" fill="#2A2622"></rect><rect x="68" y="76" width="16" height="4" fill="#FDE6D2"></rect><rect x="84" y="76" width="4" height="4" fill="#9A5A6E"></rect><rect x="88" y="76" width="12" height="4" fill="#FFC24D"></rect><rect x="24" y="80" width="12" height="4" fill="#FFC24D"></rect><rect x="36" y="80" width="4" height="4" fill="#9A5A6E"></rect><rect x="40" y="80" width="40" height="4" fill="#FDE6D2"></rect><rect x="80" y="80" width="4" height="4" fill="#9A5A6E"></rect><rect x="84" y="80" width="12" height="4" fill="#FFC24D"></rect><rect x="24" y="84" width="16" height="4" fill="#FFC24D"></rect><rect x="40" y="84" width="4" height="4" fill="#9A5A6E"></rect><rect x="44" y="84" width="32" height="4" fill="#FDE6D2"></rect><rect x="76" y="84" width="4" height="4" fill="#9A5A6E"></rect><rect x="80" y="84" width="16" height="4" fill="#FFC24D"></rect><rect x="28" y="88" width="16" height="4" fill="#FFC24D"></rect><rect x="44" y="88" width="32" height="4" fill="#9A5A6E"></rect><rect x="76" y="88" width="16" height="4" fill="#FFC24D"></rect><rect x="32" y="92" width="56" height="4" fill="#FFC24D"></rect><rect x="36" y="96" width="48" height="4" fill="#FFC24D"></rect></svg>